SplineFontDB: 3.0
FontName: OldStandard-Bold
FullName: Old Standard Bold
FamilyName: Old Standard
Weight: Bold
Copyright: Copyright (C) 2006-2008 Alexey Kryukov <alexios@thessalonica.org.ru>
UComments: "2005-12-23: Created.+AAoACgAA-ss01 -- Romanian letters with commaaccent;+AAoA-ss02 -- insular forms;+AAoA-ss06 -- script theta;+AAoA-ss11 -- required Serbian forms;+AAoA-ss12 -- optional Serbian forms;+AAoACgAA-max encl w+AD0A-1212+AAoACgAA-cyra w+AD0A-508 a+AD0A-232 as+AD0A--22 xd+AD0A-374 xa+AD0A-704+AAoA-cyraz w+AD0A-520 a+AD0A-244 as+AD0A--16 xd+AD0A-362 xa+AD0A-692+AAoA-cyrv w+AD0A-500 a+AD0A-238 as+AD0A--12 xd+AD0A-368 xa+AD0A-712+AAoA-cyrg w+AD0A-442 a+AD0A-228 as+AD0A-7 xd+AD0A-378 xa+AD0A-770+AAoA-cyrd w+AD0A-518 a+AD0A-258 as+AD0A-0 xd+AD0A-348 xa+AD0A-694+AAoA-cyre w+AD0A-472 a+AD0A-240 as+AD0A-4 xd+AD0A-366 xa+AD0A-740+AAoA-cyrie w+AD0A-454 a+AD0A-240 as+AD0A-13 xd+AD0A-366 xa+AD0A-758+AAoA-cyrdze w+AD0A-430 a+AD0A-222 as+AD0A-7 xd+AD0A-384 xa+AD0A-782+AAoA-cyrz w+AD0A-434 a+AD0A-216 as+AD0A-1 xd+AD0A-390 xa+AD0A-778+AAoA-cyrzem w+AD0A-436 a+AD0A-224 as+AD0A-6 xd+AD0A-382 xa+AD0A-776+AAoA-cyri w+AD0A-572 a+AD0A-286 as+AD0A-0 xd+AD0A-320 xa+AD0A-640+AAoA-cyrfita w+AD0A-504 a+AD0A-252 as+AD0A-0 xd+AD0A-354 xa+AD0A-708+AAoACgAA-xd+AD0A(max-w)/2-as+AAoA-xa+AD0A-max-w" 
Version: 2.0.2
ItalicAngle: 0
UnderlinePosition: -158
UnderlineWidth: 40
Ascent: 762
Descent: 238
LayerCount: 3
Layer: 0 0 "Back"  1
Layer: 1 0 "Fore"  0
Layer: 2 1 "TTF"  0
XUID: [101 675 718133685 15030316]
FSType: 0
OS2Version: 0
OS2_WeightWidthSlopeOnly: 0
OS2_UseTypoMetrics: 1
CreationTime: 1222415251
ModificationTime: 1227532469
PfmFamily: 17
TTFWeight: 700
TTFWidth: 5
LineGap: 236
VLineGap: 0
Panose: 2 4 5 3 5 5 5 2 3 3
OS2TypoAscent: 0
OS2TypoAOffset: 1
OS2TypoDescent: 0
OS2TypoDOffset: 1
OS2TypoLinegap: 236
OS2WinAscent: 0
OS2WinAOffset: 1
OS2WinDescent: 0
OS2WinDOffset: 1
HheadAscent: 0
HheadAOffset: 1
HheadDescent: 0
HheadDOffset: 1
OS2SubXSize: 640
OS2SubYSize: 660
OS2SubXOff: 0

StartChar: exclam
Encoding: 33 33 1
Width: 280
Flags: W
TeX: 101 0
HStem: -12 156<85.4422 194.558> 710 20G<117 163>
VStem: 62 156<11.4422 120.558 481.971 706.523> 128 24<205 268.438>
LayerCount: 3
Fore
SplineSet
58 632 m 0xd0
 58 696 94 730 140 730 c 0
 186 730 222 696 222 632 c 0
 222 584 209 530 195 477 c 0
 184 434 172 382 168 350 c 10
 152 205 l 25
 128 205 l 25
 112 350 l 18
 109 382 96 434 85 477 c 0
 71 530 58 584 58 632 c 0xd0
62 66 m 0xe0
 62 111 95 144 140 144 c 0
 185 144 218 111 218 66 c 0
 218 21 185 -12 140 -12 c 0
 95 -12 62 21 62 66 c 0xe0
EndSplineSet
Layer: 2
SplineSet
58 632 m 0,0,1
 58 678 58 678 81 704 c 128,-1,2
 104 730 104 730 140 730 c 128,-1,3
 176 730 176 730 199 704 c 128,-1,4
 222 678 222 678 222 632 c 0,5,6
 222 579 222 579 195 477 c 0,7,8
 173 392 173 392 168 350 c 2,9,-1
 152 205 l 1,10,-1
 128 205 l 1,11,-1
 112 350 l 2,12,13
 109 384 109 384 85 477 c 0,14,15
 58 579 58 579 58 632 c 0,0,1
62 66 m 128,-1,17
 62 100 62 100 84 122 c 128,-1,18
 106 144 106 144 140 144 c 128,-1,19
 174 144 174 144 196 122 c 128,-1,20
 218 100 218 100 218 66 c 128,-1,21
 218 32 218 32 196 10 c 128,-1,22
 174 -12 174 -12 140 -12 c 128,-1,23
 106 -12 106 -12 84 10 c 128,-1,16
 62 32 62 32 62 66 c 128,-1,17
EndSplineSet
EndChar

StartChar: numbersign
Encoding: 35 35 3
Width: 712
Flags: W
TeX: 110 0
HStem: 0 21G<150 219.187 382 451.187> 182 64<66 179 255 410 487 637> 464 64<72 223 299 455 531 646> 692 20G<258.848 328 490.848 560>
DStem2: 150 0 216 0 0.155393 0.987853<10.2559 184.296 259.328 469.707 544.74 720.755> 382 0 448 0 0.155393 0.987853<10.2559 184.14 259.328 469.707 544.74 720.755>
LayerCount: 3
Fore
SplineSet
66 182 m 1
 66 246 l 1
 189 246 l 1
 223 464 l 1
 72 464 l 1
 72 528 l 1
 233 528 l 1
 262 712 l 1
 328 712 l 1
 299 528 l 1
 465 528 l 1
 494 712 l 1
 560 712 l 1
 531 528 l 1
 646 528 l 1
 646 464 l 1
 521 464 l 1
 487 246 l 1
 637 246 l 1
 637 182 l 1
 477 182 l 1
 448 0 l 1
 382 0 l 1
 410 182 l 1
 245 182 l 1
 216 0 l 1
 150 0 l 1
 179 182 l 1
 66 182 l 1
255 246 m 1
 421 246 l 1
 455 464 l 1
 289 464 l 1
 255 246 l 1
EndSplineSet
Layer: 2
SplineSet
66 182 m 1,0,-1
 66 246 l 1,1,-1
 189 246 l 1,2,-1
 223 464 l 1,3,-1
 72 464 l 1,4,-1
 72 528 l 1,5,-1
 233 528 l 1,6,-1
 262 712 l 1,7,-1
 328 712 l 1,8,-1
 299 528 l 1,9,-1
 465 528 l 1,10,-1
 494 712 l 1,11,-1
 560 712 l 1,12,-1
 531 528 l 1,13,-1
 646 528 l 1,14,-1
 646 464 l 1,15,-1
 521 464 l 1,16,-1
 487 246 l 1,17,-1
 637 246 l 1,18,-1
 637 182 l 1,19,-1
 477 182 l 1,20,-1
 448 0 l 1,21,-1
 382 0 l 1,22,-1
 410 182 l 1,23,-1
 245 182 l 1,24,-1
 216 0 l 1,25,-1
 150 0 l 1,26,-1
 179 182 l 1,27,-1
 66 182 l 1,0,-1
255 246 m 1,28,-1
 421 246 l 1,29,-1
 455 464 l 1,30,-1
 289 464 l 1,31,-1
 255 246 l 1,28,-1
EndSplineSet
EndChar

StartChar: dollar
Encoding: 36 36 4
Width: 580
VWidth: 1080
Flags: W
TeX: 100 0
HStem: -16 32<258.679 341.39> -9 33<176.893 226 258 300.298 301.702 342> 688 33<374 416.495> 696 32<258 342>
VStem: 52 62<82.551 194> 76 76<479 622.149> 226 32<-84 -14 24 300 491 682 725 796> 342 32<-84 -13 27 228 419 688 726 796> 446 80<93.2206 232.5> 476 52<540 641.096>
DStem2: 226 491 173 353 0.849183 -0.528099<-68.0651 0 37.7358 90.3049 128.041 136.528 174.264 226.833 264.569 329.891>
LayerCount: 3
Fore
SplineSet
52 166 m 0x4b80
 52 222 87 260 131 260 c 0
 161 260 184 235 184 210 c 0
 184 172 167 161 141 145 c 0
 117 131 114 125 114 108 c 0x4b80
 114 71 159 38 226 24 c 1
 226 320 l 1
 173 353 l 2
 128 381 76 431 76 527 c 0
 76 642 148 698 226 718 c 1
 226 796 l 1
 258 796 l 1
 258 725 l 1
 274 727 289 728 304 728 c 0x57
 317 728 330 727 342 726 c 1
 342 796 l 1
 374 796 l 1
 374 721 l 1
 460 704 528 653 528 566 c 0
 528 514 501 458 456 458 c 0
 420 458 399 480 399 508 c 0
 399 535 419 554 438 563 c 0
 461 574 476 582 476 603 c 0x2740
 476 637 438 672 374 688 c 1
 374 399 l 1
 413 375 l 2
 481 333 526 276 526 189 c 0
 526 76 457 15 374 -7 c 1
 374 -84 l 1
 342 -84 l 1
 342 -13 l 1
 328 -15 315 -16 301 -16 c 0xa380
 287 -16 273 -16 258 -14 c 1
 258 -84 l 1
 226 -84 l 1
 226 -9 l 1
 137 7 52 57 52 166 c 0x4b80
258 471 m 1
 342 419 l 1
 342 693 l 1
 329 695 315 696 300 696 c 0x13
 285 696 271 695 258 692 c 1
 258 471 l 1
258 18 m 1
 272 17 286 16 301 16 c 0x83
 316 16 330 17 342 19 c 1
 342 248 l 1
 258 300 l 1
 258 18 l 1
152 589 m 0x07
 152 550 179 518 226 491 c 1
 226 682 l 1
 182 665 152 631 152 589 c 0x07
374 27 m 1
 429 47 446 89 446 121 c 0x0380
 446 183 399 213 374 228 c 1
 374 27 l 1
EndSplineSet
Layer: 2
SplineSet
52 166 m 0,0,1
 52 208 52 208 75 234 c 128,-1,2
 98 260 98 260 131 260 c 0,3,4
 153 260 153 260 168.5 245 c 128,-1,5
 184 230 184 230 184 210 c 0,6,7
 184 192 184 192 178 179.5 c 128,-1,8
 172 167 172 167 164.5 161 c 128,-1,9
 157 155 157 155 141 145 c 0,10,11
 124 135 124 135 119 128 c 128,-1,12
 114 121 114 121 114 108 c 0,13,14
 114 80 114 80 145 57 c 128,-1,15
 176 34 176 34 226 24 c 1,16,-1
 226 320 l 1,17,-1
 173 353 l 2,18,19
 76 414 76 414 76 527 c 0,20,21
 76 607 76 607 118 654 c 128,-1,22
 160 701 160 701 226 718 c 1,23,-1
 226 796 l 1,24,-1
 258 796 l 1,25,-1
 258 725 l 1,26,27
 282 728 282 728 304 728 c 0,28,29
 318 728 318 728 342 726 c 1,30,-1
 342 796 l 1,31,-1
 374 796 l 1,32,-1
 374 721 l 1,33,34
 442 708 442 708 485 668 c 128,-1,35
 528 628 528 628 528 566 c 0,36,37
 528 524 528 524 508 491 c 128,-1,38
 488 458 488 458 456 458 c 0,39,40
 430 458 430 458 414.5 472 c 128,-1,41
 399 486 399 486 399 508 c 0,42,43
 399 526 399 526 410.5 541 c 128,-1,44
 422 556 422 556 438 563 c 0,45,46
 452 570 452 570 459 574 c 128,-1,47
 466 578 466 578 471 585.5 c 128,-1,48
 476 593 476 593 476 603 c 0,49,50
 476 629 476 629 448.5 652.5 c 128,-1,51
 421 676 421 676 374 688 c 1,52,-1
 374 399 l 1,53,-1
 413 375 l 2,54,55
 526 305 526 305 526 189 c 0,56,57
 526 109 526 109 484 60 c 128,-1,58
 442 11 442 11 374 -7 c 1,59,-1
 374 -84 l 1,60,-1
 342 -84 l 1,61,-1
 342 -13 l 1,62,63
 321 -16 321 -16 301 -16 c 0,64,65
 273 -16 273 -16 258 -14 c 1,66,-1
 258 -84 l 1,67,-1
 226 -84 l 1,68,-1
 226 -9 l 1,69,70
 190 -2 190 -2 160.5 10.5 c 128,-1,71
 131 23 131 23 105.5 43.5 c 128,-1,72
 80 64 80 64 66 95 c 128,-1,73
 52 126 52 126 52 166 c 0,0,1
258 471 m 1,74,-1
 342 419 l 1,75,-1
 342 693 l 1,76,77
 322 696 322 696 300 696 c 0,78,79
 276 696 276 696 258 692 c 1,80,-1
 258 471 l 1,74,-1
258 18 m 1,81,82
 286 16 286 16 301 16 c 0,83,84
 324 16 324 16 342 19 c 1,85,-1
 342 248 l 1,86,-1
 258 300 l 1,87,-1
 258 18 l 1,81,82
152 589 m 0,88,89
 152 534 152 534 226 491 c 1,90,-1
 226 682 l 1,91,92
 192 669 192 669 172 644.5 c 128,-1,93
 152 620 152 620 152 589 c 0,88,89
374 27 m 1,94,95
 400 36 400 36 417 53 c 128,-1,96
 434 70 434 70 440 87 c 128,-1,97
 446 104 446 104 446 121 c 0,98,99
 446 143 446 143 439 161.5 c 128,-1,100
 432 180 432 180 419 193 c 128,-1,101
 406 206 406 206 396.5 213 c 128,-1,102
 387 220 387 220 374 228 c 1,103,-1
 374 27 l 1,94,95
EndSplineSet
EndChar

StartChar: percent
Encoding: 37 37 5
Width: 860
Flags: W
TeX: 112 0
HStem: -16 20<607.246 648.953> 330 20<607.246 648.953> 364 20<209.246 250.953> 710 20<209.246 250.953>
VStem: 90 96<447.038 645.509> 276 96<448.927 643.598> 488 96<67.0379 265.509> 674 96<68.9275 263.598>
DStem2: 188 -18 238 -18 0.500123 0.865954<25.0062 863.787>
LayerCount: 3
Fore
SplineSet
188 -18 m 25
 620 730 l 25
 670 730 l 25
 238 -18 l 25
 188 -18 l 25
584 166 m 0
 584 44 596 4 628 4 c 0
 660 4 674 44 674 166 c 0
 674 288 660 330 628 330 c 0
 596 330 584 288 584 166 c 0
488 166 m 0
 488 278 556 350 628 350 c 0
 700 350 770 278 770 166 c 0
 770 54 700 -16 628 -16 c 0
 556 -16 488 54 488 166 c 0
186 546 m 0
 186 424 198 384 230 384 c 0
 262 384 276 424 276 546 c 0
 276 668 262 710 230 710 c 0
 198 710 186 668 186 546 c 0
90 546 m 0
 90 658 158 730 230 730 c 0
 302 730 372 658 372 546 c 0
 372 434 302 364 230 364 c 0
 158 364 90 434 90 546 c 0
EndSplineSet
Layer: 2
SplineSet
188 -18 m 1,0,-1
 620 730 l 1,1,-1
 670 730 l 1,2,-1
 238 -18 l 1,3,-1
 188 -18 l 1,0,-1
584 166 m 0,4,5
 584 76 584 76 594 40 c 128,-1,6
 604 4 604 4 628 4 c 128,-1,7
 652 4 652 4 663 40 c 128,-1,8
 674 76 674 76 674 166 c 128,-1,9
 674 256 674 256 663 293 c 128,-1,10
 652 330 652 330 628 330 c 128,-1,11
 604 330 604 330 594 293.5 c 128,-1,12
 584 257 584 257 584 166 c 0,4,5
488 166 m 128,-1,14
 488 247 488 247 530 298.5 c 128,-1,15
 572 350 572 350 628 350 c 128,-1,16
 684 350 684 350 727 298.5 c 128,-1,17
 770 247 770 247 770 166 c 0,18,19
 770 86 770 86 727.5 35 c 128,-1,20
 685 -16 685 -16 628 -16 c 0,21,22
 572 -16 572 -16 530 34.5 c 128,-1,13
 488 85 488 85 488 166 c 128,-1,14
186 546 m 0,23,24
 186 456 186 456 196 420 c 128,-1,25
 206 384 206 384 230 384 c 128,-1,26
 254 384 254 384 265 420 c 128,-1,27
 276 456 276 456 276 546 c 128,-1,28
 276 636 276 636 265 673 c 128,-1,29
 254 710 254 710 230 710 c 128,-1,30
 206 710 206 710 196 673.5 c 128,-1,31
 186 637 186 637 186 546 c 0,23,24
90 546 m 128,-1,33
 90 627 90 627 132 678.5 c 128,-1,34
 174 730 174 730 230 730 c 128,-1,35
 286 730 286 730 329 678.5 c 128,-1,36
 372 627 372 627 372 546 c 0,37,38
 372 466 372 466 329.5 415 c 128,-1,39
 287 364 287 364 230 364 c 0,40,41
 174 364 174 364 132 414.5 c 128,-1,32
 90 465 90 465 90 546 c 128,-1,33
EndSplineSet
Ligature2: "'frac' Diagonal Fractions-1" zero slash zero
Ligature2: "'frac' Diagonal Fractions-1" zero fraction zero
LCarets2: 2 0 0 
EndChar

StartChar: ampersand
Encoding: 38 38 6
Width: 786
Flags: W
TeX: 97 0
HStem: -18 60<190 367.885 580.5 671.488> 358 32<531 600.25 688.276 742> 699 32<315.35 405.833>
VStem: 44 140<117.676 222.089> 192 92<528.539 651.154> 436 44<533.683 676.093>
DStem2: 344 463 242 415 0.55307 -0.833135<-134.934 0 39.0467 352.79>
LayerCount: 3
Fore
SplineSet
44 141 m 0
 44 232 118 304 230 382 c 2
 253 398 l 1
 242 415 l 2
 210 464 192 498 192 566 c 0
 192 672 273 731 361 731 c 0
 450 731 480 658 480 607 c 0
 480 529 429 482 363 433 c 1
 539 169 l 1
 580 218 607 281 607 318 c 0
 607 344 589 358 569 358 c 2
 531 358 l 1
 531 390 l 1
 742 390 l 1
 742 358 l 1
 734 358 l 2
 681 358 654 303 646 286 c 0
 625 242 596 186 558 142 c 1
 591 86 620 42 655 42 c 0
 684 42 704 73 720 105 c 1
 740 95 l 1
 726 54 680 -18 603 -18 c 0
 558 -18 509 14 477 61 c 1
 433 25 337 -18 248 -18 c 0
 132 -18 44 37 44 141 c 0
184 193 m 0
 184 95 271 42 340 42 c 0
 387 42 429 62 459 88 c 1
 273 369 l 1
 212 313 184 278 184 193 c 0
284 622 m 0
 284 565 294 543 344 463 c 1
 393 500 436 540 436 615 c 0
 436 662 407 699 362 699 c 0
 323 699 284 671 284 622 c 0
EndSplineSet
Layer: 2
SplineSet
44 141 m 0,0,1
 44 205 44 205 91 261.5 c 128,-1,2
 138 318 138 318 230 382 c 2,3,-1
 253 398 l 1,4,-1
 242 415 l 2,5,6
 215 456 215 456 203.5 487 c 128,-1,7
 192 518 192 518 192 566 c 0,8,9
 192 642 192 642 241.5 686.5 c 128,-1,10
 291 731 291 731 361 731 c 0,11,12
 392 731 392 731 416.5 719 c 128,-1,13
 441 707 441 707 454.5 687.5 c 128,-1,14
 468 668 468 668 474 648 c 128,-1,15
 480 628 480 628 480 607 c 0,16,17
 480 579 480 579 471.5 554.5 c 128,-1,18
 463 530 463 530 445.5 508.5 c 128,-1,19
 428 487 428 487 409.5 470.5 c 128,-1,20
 391 454 391 454 363 433 c 1,21,-1
 539 169 l 1,22,23
 569 205 569 205 588 247.5 c 128,-1,24
 607 290 607 290 607 318 c 0,25,26
 607 336 607 336 596 347 c 128,-1,27
 585 358 585 358 569 358 c 2,28,-1
 531 358 l 1,29,-1
 531 390 l 1,30,-1
 742 390 l 1,31,-1
 742 358 l 1,32,-1
 734 358 l 2,33,34
 680 358 680 358 646 286 c 0,35,36
 601 192 601 192 558 142 c 1,37,38
 588 92 588 92 609.5 67 c 128,-1,39
 631 42 631 42 655 42 c 0,40,41
 674 42 674 42 690 59 c 128,-1,42
 706 76 706 76 720 105 c 1,43,-1
 740 95 l 1,44,45
 734 78 734 78 723 60 c 128,-1,46
 712 42 712 42 695.5 23.5 c 128,-1,47
 679 5 679 5 654.5 -6.5 c 128,-1,48
 630 -18 630 -18 603 -18 c 0,49,50
 570 -18 570 -18 536 4 c 128,-1,51
 502 26 502 26 477 61 c 1,52,53
 440 31 440 31 375 6.5 c 128,-1,54
 310 -18 310 -18 248 -18 c 0,55,56
 158 -18 158 -18 101 24 c 128,-1,57
 44 66 44 66 44 141 c 0,0,1
184 193 m 0,58,59
 184 146 184 146 209 111 c 128,-1,60
 234 76 234 76 269 59 c 128,-1,61
 304 42 304 42 340 42 c 0,62,63
 406 42 406 42 459 88 c 1,64,-1
 273 369 l 1,65,66
 248 346 248 346 233 329.5 c 128,-1,67
 218 313 218 313 206 292.5 c 128,-1,68
 194 272 194 272 189 248 c 128,-1,69
 184 224 184 224 184 193 c 0,58,59
284 622 m 0,70,71
 284 580 284 580 295 552 c 128,-1,72
 306 524 306 524 344 463 c 1,73,74
 366 479 366 479 380 492.5 c 128,-1,75
 394 506 394 506 408 524 c 128,-1,76
 422 542 422 542 429 565 c 128,-1,77
 436 588 436 588 436 615 c 0,78,79
 436 651 436 651 415.5 675 c 128,-1,80
 395 699 395 699 362 699 c 0,81,82
 331 699 331 699 307.5 678 c 128,-1,83
 284 657 284 657 284 622 c 0,70,71
EndSplineSet
EndChar

StartChar: quotesingle
Encoding: 39 39 7
Width: 240
VWidth: 959
Flags: W
TeX: 113 0
HStem: 482 248<98 142>
VStem: 72 96<510.234 722.526>
LayerCount: 3
Fore
SplineSet
72 672 m 0
 72 708 90 730 120 730 c 0
 150 730 168 708 168 672 c 0
 168 662 164 628 163 621 c 10
 142 482 l 25
 98 482 l 25
 77 621 l 18
 76 628 72 662 72 672 c 0
EndSplineSet
Layer: 2
SplineSet
72 672 m 0,0,1
 72 699 72 699 85 714.5 c 128,-1,2
 98 730 98 730 120 730 c 128,-1,3
 142 730 142 730 155 714.5 c 128,-1,4
 168 699 168 699 168 672 c 0,5,6
 168 656 168 656 163 621 c 2,7,-1
 142 482 l 1,8,-1
 98 482 l 1,9,-1
 77 621 l 2,10,11
 72 656 72 656 72 672 c 0,0,1
EndSplineSet
EndChar

StartChar: parenleft
Encoding: 40 40 8
Width: 370
Flags: W
TeX: 112 0
HStem: 710 20G<250 350.308>
VStem: 60 136<118.354 413.646>
LayerCount: 3
Fore
SplineSet
60 266 m 0
 60 462 162 618 338 730 c 9
 354 704 l 17
 234 608 196 530 196 408 c 2
 196 124 l 2
 196 2 234 -76 354 -172 c 9
 338 -198 l 17
 162 -86 60 70 60 266 c 0
EndSplineSet
Layer: 2
SplineSet
60 266 m 128,-1,1
 60 410 60 410 132 527 c 128,-1,2
 204 644 204 644 338 730 c 1,3,-1
 354 704 l 1,4,5
 265 633 265 633 230.5 567 c 128,-1,6
 196 501 196 501 196 408 c 2,7,-1
 196 124 l 2,8,9
 196 31 196 31 230.5 -35 c 128,-1,10
 265 -101 265 -101 354 -172 c 1,11,-1
 338 -198 l 1,12,13
 204 -112 204 -112 132 5 c 128,-1,0
 60 122 60 122 60 266 c 128,-1,1
EndSplineSet
EndChar

StartChar: parenright
Encoding: 41 41 9
Width: 370
Flags: W
TeX: 112 0
HStem: 710 20G<19.6923 120>
VStem: 174 136<118.354 413.646>
LayerCount: 3
Fore
SplineSet
16 -172 m 17
 136 -76 174 2 174 124 c 2
 174 408 l 2
 174 530 136 608 16 704 c 9
 32 730 l 17
 208 618 310 462 310 266 c 0
 310 70 208 -86 32 -198 c 9
 16 -172 l 17
EndSplineSet
Layer: 2
SplineSet
16 -172 m 1,0,1
 105 -101 105 -101 139.5 -35 c 128,-1,2
 174 31 174 31 174 124 c 2,3,-1
 174 408 l 2,4,5
 174 501 174 501 139.5 567 c 128,-1,6
 105 633 105 633 16 704 c 1,7,-1
 32 730 l 1,8,9
 166 644 166 644 238 527 c 128,-1,10
 310 410 310 410 310 266 c 128,-1,11
 310 122 310 122 238 5 c 128,-1,12
 166 -112 166 -112 32 -198 c 1,13,-1
 16 -172 l 1,0,1
EndSplineSet
EndChar

StartChar: asterisk
Encoding: 42 42 10
Width: 502
Flags: W
TeX: 97 0
HStem: 369 98<80.635 158.438 351.562 429.365> 468 54<223.063 242.999 267.001 286.937> 523 98<80.635 158.438 351.562 429.365>
VStem: 209 92<296.248 397.629 592.371 693.752> 223 64<484.004 505.996> 243 24<398.693 467.999 522.002 591.307>
CounterMasks: 1 e0
LayerCount: 3
Fore
SplineSet
70 415 m 0xe4
 70 446 95 467 139 467 c 0
 164 467 194 472 213 484 c 0
 213 484 223 489 223 495 c 0xe8
 223 501 213 506 213 506 c 0
 194 518 164 523 139 523 c 0
 95 523 70 544 70 575 c 0
 70 601 91 621 116 621 c 0
 140 621 159 602 174 580 c 0
 188 559 204 541 221 528 c 0
 224 526 231 522 235 522 c 0
 241 522 243 524 243 537 c 0xe4
 243 560 236 584 224 606 c 0
 214 622 209 637 209 655 c 0
 209 681 229 700 255 700 c 0
 281 700 301 681 301 655 c 0xf0
 301 637 296 622 286 606 c 0
 274 584 267 560 267 537 c 0xe4
 267 524 269 522 275 522 c 0
 279 522 286 526 289 528 c 0
 306 541 322 559 336 580 c 0
 351 602 370 621 394 621 c 0
 419 621 440 601 440 575 c 0
 440 544 415 523 371 523 c 0
 346 523 316 518 297 506 c 0
 297 506 287 501 287 495 c 0xe8
 287 489 297 484 297 484 c 0
 316 472 346 467 371 467 c 0
 415 467 440 446 440 415 c 0
 440 389 419 369 394 369 c 0
 370 369 351 388 336 410 c 0
 322 431 306 449 289 462 c 0
 286 464 279 468 275 468 c 0
 269 468 267 466 267 453 c 0xe4
 267 430 274 406 286 384 c 0
 296 368 301 353 301 335 c 0
 301 309 281 290 255 290 c 0
 229 290 209 309 209 335 c 0xf0
 209 353 214 368 224 384 c 0
 236 406 243 430 243 453 c 0
 243 466 241 468 235 468 c 0
 231 468 224 464 221 462 c 0
 204 449 188 431 174 410 c 0
 159 388 140 369 116 369 c 0
 91 369 70 389 70 415 c 0xe4
EndSplineSet
Layer: 2
SplineSet
70 415 m 0,0,1
 70 438 70 438 88 452.5 c 128,-1,2
 106 467 106 467 139 467 c 0,3,4
 186 467 186 467 213 484 c 0,5,6
 223 489 223 489 223 495 c 0,7,8
 223 498 223 498 220.5 500.5 c 128,-1,9
 218 503 218 503 216 504 c 2,10,-1
 213 506 l 2,11,12
 186 523 186 523 139 523 c 0,13,14
 106 523 106 523 88 537.5 c 128,-1,15
 70 552 70 552 70 575 c 0,16,17
 70 594 70 594 83.5 607.5 c 128,-1,18
 97 621 97 621 116 621 c 0,19,20
 146 621 146 621 174 580 c 0,21,22
 196 547 196 547 221 528 c 0,23,24
 230 522 230 522 235 522 c 128,-1,25
 240 522 240 522 241.5 525 c 128,-1,26
 243 528 243 528 243 537 c 0,27,28
 243 571 243 571 224 606 c 0,29,30
 209 630 209 630 209 655 c 0,31,32
 209 674 209 674 222.5 687 c 128,-1,33
 236 700 236 700 255 700 c 128,-1,34
 274 700 274 700 287.5 687 c 128,-1,35
 301 674 301 674 301 655 c 0,36,37
 301 630 301 630 286 606 c 0,38,39
 267 571 267 571 267 537 c 0,40,41
 267 528 267 528 268.5 525 c 128,-1,42
 270 522 270 522 275 522 c 128,-1,43
 280 522 280 522 289 528 c 0,44,45
 314 547 314 547 336 580 c 0,46,47
 364 621 364 621 394 621 c 0,48,49
 413 621 413 621 426.5 607.5 c 128,-1,50
 440 594 440 594 440 575 c 0,51,52
 440 552 440 552 422 537.5 c 128,-1,53
 404 523 404 523 371 523 c 0,54,55
 324 523 324 523 297 506 c 0,56,57
 287 501 287 501 287 495 c 0,58,59
 287 492 287 492 289.5 489.5 c 128,-1,60
 292 487 292 487 294 486 c 2,61,-1
 297 484 l 2,62,63
 324 467 324 467 371 467 c 0,64,65
 404 467 404 467 422 452.5 c 128,-1,66
 440 438 440 438 440 415 c 0,67,68
 440 396 440 396 426.5 382.5 c 128,-1,69
 413 369 413 369 394 369 c 0,70,71
 364 369 364 369 336 410 c 0,72,73
 314 443 314 443 289 462 c 0,74,75
 280 468 280 468 275 468 c 128,-1,76
 270 468 270 468 268.5 465 c 128,-1,77
 267 462 267 462 267 453 c 0,78,79
 267 419 267 419 286 384 c 0,80,81
 301 360 301 360 301 335 c 0,82,83
 301 316 301 316 287.5 303 c 128,-1,84
 274 290 274 290 255 290 c 128,-1,85
 236 290 236 290 222.5 303 c 128,-1,86
 209 316 209 316 209 335 c 0,87,88
 209 360 209 360 224 384 c 0,89,90
 243 419 243 419 243 453 c 0,91,92
 243 462 243 462 241.5 465 c 128,-1,93
 240 468 240 468 235 468 c 128,-1,94
 230 468 230 468 221 462 c 0,95,96
 196 443 196 443 174 410 c 0,97,98
 146 369 146 369 116 369 c 0,99,100
 97 369 97 369 83.5 382.5 c 128,-1,101
 70 396 70 396 70 415 c 0,0,1
EndSplineSet
EndChar

StartChar: plus
Encoding: 43 43 11
Width: 940
Flags: W
TeX: 112 0
HStem: -156 21G<436 504> 240 64<42 436 504 898>
VStem: 436 68<-156 240 304 700>
LayerCount: 3
Fore
SplineSet
42 240 m 1
 42 304 l 1
 436 304 l 1
 436 700 l 1
 504 700 l 1
 504 304 l 1
 898 304 l 1
 898 240 l 1
 504 240 l 1
 504 -156 l 1
 436 -156 l 1
 436 240 l 1
 42 240 l 1
EndSplineSet
Layer: 2
SplineSet
42 240 m 1,0,-1
 42 304 l 1,1,-1
 436 304 l 1,2,-1
 436 700 l 1,3,-1
 504 700 l 1,4,-1
 504 304 l 1,5,-1
 898 304 l 1,6,-1
 898 240 l 1,7,-1
 504 240 l 1,8,-1
 504 -156 l 1,9,-1
 436 -156 l 1,10,-1
 436 240 l 1,11,-1
 42 240 l 1,0,-1
EndSplineSet
EndChar

StartChar: comma
Encoding: 44 44 12
Width: 280
Flags: W
TeX: 99 0
HStem: 8 140<95.6157 191.137>
VStem: 192 46<-65.357 65>
LayerCount: 3
Fore
SplineSet
46 63 m 0
 46 120 91 148 132 148 c 0
 198 148 238 98 238 32 c 0
 238 -83 162 -161 66 -196 c 9
 52 -168 l 17
 135 -137 192 -74 192 -10 c 0
 192 -2 187 8 175 8 c 0
 168 8 159 4 151 0 c 0
 139 -6 130 -9 117 -9 c 0
 84 -9 46 14 46 63 c 0
EndSplineSet
Layer: 2
SplineSet
46 63 m 0,0,1
 46 103 46 103 72 125.5 c 128,-1,2
 98 148 98 148 132 148 c 0,3,4
 180 148 180 148 209 115 c 128,-1,5
 238 82 238 82 238 32 c 0,6,7
 238 -50 238 -50 190 -109 c 128,-1,8
 142 -168 142 -168 66 -196 c 1,9,-1
 52 -168 l 1,10,11
 114 -144 114 -144 153 -101 c 128,-1,12
 192 -58 192 -58 192 -10 c 0,13,14
 192 -3 192 -3 188 2.5 c 128,-1,15
 184 8 184 8 175 8 c 0,16,17
 167 8 167 8 151 0 c 0,18,19
 133 -9 133 -9 117 -9 c 0,20,21
 90 -9 90 -9 68 10 c 128,-1,22
 46 29 46 29 46 63 c 0,0,1
EndSplineSet
EndChar

StartChar: hyphen
Encoding: 45 45 13
Width: 370
Flags: W
TeX: 104 0
HStem: 208 102<56 314>
VStem: 56 258<208 310>
LayerCount: 3
Fore
SplineSet
56 208 m 25
 56 310 l 25
 314 310 l 25
 314 208 l 25
 56 208 l 25
EndSplineSet
Layer: 2
SplineSet
56 208 m 1,0,-1
 56 310 l 1,1,-1
 314 310 l 1,2,-1
 314 208 l 1,3,-1
 56 208 l 1,0,-1
EndSplineSet
EndChar

StartChar: period
Encoding: 46 46 14
Width: 280
Flags: W
TeX: 112 0
HStem: -12 156<85.4422 194.558>
VStem: 62 156<11.4422 120.558>
LayerCount: 3
Fore
SplineSet
62 66 m 0
 62 111 95 144 140 144 c 0
 185 144 218 111 218 66 c 0
 218 21 185 -12 140 -12 c 0
 95 -12 62 21 62 66 c 0
EndSplineSet
Layer: 2
SplineSet
62 66 m 128,-1,1
 62 100 62 100 84 122 c 128,-1,2
 106 144 106 144 140 144 c 128,-1,3
 174 144 174 144 196 122 c 128,-1,4
 218 100 218 100 218 66 c 128,-1,5
 218 32 218 32 196 10 c 128,-1,6
 174 -12 174 -12 140 -12 c 128,-1,7
 106 -12 106 -12 84 10 c 128,-1,0
 62 32 62 32 62 66 c 128,-1,1
EndSplineSet
EndChar

StartChar: slash
Encoding: 47 47 15
Width: 450
Flags: W
TeX: 115 0
HStem: 710 20G<325.922 400>
DStem2: 50 -198 118 -198 0.290751 0.956799<19.7711 969.901>
LayerCount: 3
Fore
SplineSet
50 -198 m 25
 332 730 l 25
 400 730 l 25
 118 -198 l 25
 50 -198 l 25
EndSplineSet
Layer: 2
SplineSet
50 -198 m 1,0,-1
 332 730 l 1,1,-1
 400 730 l 1,2,-1
 118 -198 l 1,3,-1
 50 -198 l 1,0,-1
EndSplineSet
EndChar

StartChar: zero
Encoding: 48 48 16
Width: 580
VWidth: 1080
Flags: W
TeX: 122 0
HStem: -16 32<254.649 325.351> 696 32<254.649 325.351>
VStem: 50 170<211.046 500.954> 360 170<211.046 500.954>
LayerCount: 3
Fore
SplineSet
220 144 m 2
 220 96 234 16 290 16 c 0
 346 16 360 96 360 144 c 2
 360 568 l 2
 360 616 346 696 290 696 c 0
 234 696 220 616 220 568 c 2
 220 144 l 2
50 356 m 0
 50 524 138 728 290 728 c 0
 442 728 530 524 530 356 c 0
 530 188 442 -16 290 -16 c 0
 138 -16 50 188 50 356 c 0
EndSplineSet
Layer: 2
SplineSet
220 144 m 2,0,1
 220 124 220 124 223 103.5 c 128,-1,2
 226 83 226 83 233.5 62.5 c 128,-1,3
 241 42 241 42 255.5 29 c 128,-1,4
 270 16 270 16 290 16 c 128,-1,5
 310 16 310 16 324.5 29 c 128,-1,6
 339 42 339 42 346.5 62.5 c 128,-1,7
 354 83 354 83 357 103.5 c 128,-1,8
 360 124 360 124 360 144 c 2,9,-1
 360 568 l 2,10,11
 360 588 360 588 357 608.5 c 128,-1,12
 354 629 354 629 346.5 649.5 c 128,-1,13
 339 670 339 670 324.5 683 c 128,-1,14
 310 696 310 696 290 696 c 128,-1,15
 270 696 270 696 255.5 683 c 128,-1,16
 241 670 241 670 233.5 649.5 c 128,-1,17
 226 629 226 629 223 608.5 c 128,-1,18
 220 588 220 588 220 568 c 2,19,-1
 220 144 l 2,0,1
50 356 m 128,-1,21
 50 407 50 407 60 459.5 c 128,-1,22
 70 512 70 512 91 560 c 128,-1,23
 112 608 112 608 140 645.5 c 128,-1,24
 168 683 168 683 207 705.5 c 128,-1,25
 246 728 246 728 290 728 c 128,-1,26
 334 728 334 728 373 705.5 c 128,-1,27
 412 683 412 683 440 645.5 c 128,-1,28
 468 608 468 608 489 560 c 128,-1,29
 510 512 510 512 520 459.5 c 128,-1,30
 530 407 530 407 530 356 c 128,-1,31
 530 305 530 305 520 252.5 c 128,-1,32
 510 200 510 200 489 152 c 128,-1,33
 468 104 468 104 440 66.5 c 128,-1,34
 412 29 412 29 373 6.5 c 128,-1,35
 334 -16 334 -16 290 -16 c 128,-1,36
 246 -16 246 -16 207 6.5 c 128,-1,37
 168 29 168 29 140 66.5 c 128,-1,38
 112 104 112 104 91 152 c 128,-1,39
 70 200 70 200 60 252.5 c 128,-1,20
 50 305 50 305 50 356 c 128,-1,21
EndSplineSet
AlternateSubs2: "'aalt' Access All Alternates in Latin lookup 0 subtable" zerosuperior zeroinferior
Substitution2: "'sups' Superscript Forms-1" zerosuperior
Substitution2: "'subs' Subscript Forms-1" zeroinferior
EndChar

StartChar: one
Encoding: 49 49 17
Width: 580
VWidth: 1080
Flags: W
TeX: 111 0
HStem: 0 32<120 215.438 364.562 460> 603 36<120 215.316> 692 20G<280 364>
VStem: 216 148<32.0402 603>
LayerCount: 3
Fore
SplineSet
120 0 m 25
 120 32 l 25
 192 32 l 18
 210 32 216 38 216 56 c 10
 216 603 l 25
 120 603 l 25
 120 639 l 17
 157 639 l 2
 211 639 271 663 289 712 c 9
 364 712 l 25
 364 56 l 18
 364 38 370 32 388 32 c 10
 460 32 l 25
 460 0 l 25
 120 0 l 25
EndSplineSet
Layer: 2
SplineSet
120 0 m 1,0,-1
 120 32 l 1,1,-1
 192 32 l 2,2,3
 206 32 206 32 211 37 c 128,-1,4
 216 42 216 42 216 56 c 2,5,-1
 216 603 l 1,6,-1
 120 603 l 1,7,-1
 120 639 l 1,8,-1
 157 639 l 2,9,10
 200 639 200 639 238 658 c 128,-1,11
 276 677 276 677 289 712 c 1,12,-1
 364 712 l 1,13,-1
 364 56 l 2,14,15
 364 42 364 42 369 37 c 128,-1,16
 374 32 374 32 388 32 c 2,17,-1
 460 32 l 1,18,-1
 460 0 l 1,19,-1
 120 0 l 1,0,-1
EndSplineSet
AlternateSubs2: "'aalt' Access All Alternates in Latin lookup 0 subtable" onesuperior oneinferior
Substitution2: "'sups' Superscript Forms-1" onesuperior
Substitution2: "'subs' Subscript Forms-1" oneinferior
EndChar

StartChar: two
Encoding: 50 50 18
Width: 580
Flags: W
TeX: 116 0
HStem: -16 148<273.613 416.643> 96 68<135.907 219> 692 36<198.899 309.719>
VStem: 64 100<498 619.016> 72 40<0 93.8125> 354 150<468.08 632.654> 468 32<161.975 271>
LayerCount: 3
Fore
SplineSet
64 534 m 0x74
 64 641 157 728 280 728 c 0
 432 728 504 649 504 544 c 0
 504 421 370 348 255 287 c 0
 213 264 143 216 122 137 c 9
 126 135 l 17
 152 156 182 164 207 164 c 0x74
 231 164 271 156 293 148 c 0
 315 141 346 132 384 132 c 0
 434 132 468 167 468 204 c 0
 468 231 466 248 463 271 c 9
 494 271 l 17
 498 242 500 218 500 193 c 0
 500 100 458 -16 336 -16 c 0xa2
 283 -16 238 22 206 58 c 0
 184 82 170 96 144 96 c 0
 126 96 112 84 112 64 c 2
 112 0 l 25
 72 0 l 25
 72 47 l 2x6a
 72 106 77 184 201 303 c 0
 279 378 354 458 354 560 c 0
 354 623 333 692 253 692 c 0
 201 692 164 653 164 610 c 0
 164 582 174 563 192 550 c 0
 218 532 237 514 237 480 c 0
 237 446 209 420 170 420 c 0
 116 420 64 462 64 534 c 0x74
EndSplineSet
Layer: 2
SplineSet
64 534 m 0,0,1
 64 615 64 615 126 671.5 c 128,-1,2
 188 728 188 728 280 728 c 0,3,4
 390 728 390 728 447 677 c 128,-1,5
 504 626 504 626 504 544 c 0,6,7
 504 518 504 518 496 494 c 128,-1,8
 488 470 488 470 476 450.5 c 128,-1,9
 464 431 464 431 442 410.5 c 128,-1,10
 420 390 420 390 402 375.5 c 128,-1,11
 384 361 384 361 354 342.5 c 128,-1,12
 324 324 324 324 305 314 c 128,-1,13
 286 304 286 304 255 287 c 0,14,15
 146 228 146 228 122 137 c 1,16,-1
 126 135 l 1,17,18
 162 164 162 164 207 164 c 0,19,20
 224 164 224 164 250 159 c 128,-1,21
 276 154 276 154 293 148 c 0,22,23
 344 132 344 132 384 132 c 0,24,25
 420 132 420 132 444 153.5 c 128,-1,26
 468 175 468 175 468 204 c 0,27,28
 468 232 468 232 463 271 c 1,29,-1
 494 271 l 1,30,31
 500 228 500 228 500 193 c 0,32,33
 500 164 500 164 495 135.5 c 128,-1,34
 490 107 490 107 477.5 79.5 c 128,-1,35
 465 52 465 52 446.5 31 c 128,-1,36
 428 10 428 10 399.5 -3 c 128,-1,37
 371 -16 371 -16 336 -16 c 0,38,39
 272 -16 272 -16 206 58 c 0,40,41
 187 79 187 79 174.5 87.5 c 128,-1,42
 162 96 162 96 144 96 c 0,43,44
 130 96 130 96 121 87 c 128,-1,45
 112 78 112 78 112 64 c 2,46,-1
 112 0 l 1,47,-1
 72 0 l 1,48,-1
 72 47 l 2,49,50
 72 70 72 70 73 85.5 c 128,-1,51
 74 101 74 101 81.5 127.5 c 128,-1,52
 89 154 89 154 102 178.5 c 128,-1,53
 115 203 115 203 140.5 236 c 128,-1,54
 166 269 166 269 201 303 c 0,55,56
 236 336 236 336 259 361 c 128,-1,57
 282 386 282 386 306 420 c 128,-1,58
 330 454 330 454 342 489 c 128,-1,59
 354 524 354 524 354 560 c 0,60,61
 354 586 354 586 349 608 c 128,-1,62
 344 630 344 630 333.5 649.5 c 128,-1,63
 323 669 323 669 302.5 680.5 c 128,-1,64
 282 692 282 692 253 692 c 0,65,66
 215 692 215 692 189.5 667.5 c 128,-1,67
 164 643 164 643 164 610 c 0,68,69
 164 570 164 570 192 550 c 0,70,71
 214 534 214 534 225.5 519 c 128,-1,72
 237 504 237 504 237 480 c 0,73,74
 237 454 237 454 218 437 c 128,-1,75
 199 420 199 420 170 420 c 0,76,77
 127 420 127 420 95.5 451 c 128,-1,78
 64 482 64 482 64 534 c 0,0,1
EndSplineSet
AlternateSubs2: "'aalt' Access All Alternates in Latin lookup 0 subtable" twosuperior twoinferior
Substitution2: "'sups' Superscript Forms-1" twosuperior
Substitution2: "'subs' Subscript Forms-1" twoinferior
EndChar

StartChar: three
Encoding: 51 51 19
Width: 580
Flags: W
TeX: 116 0
HStem: -16 32<179.367 302.827> 356 36<154 305.573> 696 32<201.06 305.435>
VStem: 56 96<64.0666 168> 74 90<530.5 641.715> 343 150<470.467 632.255> 356 160<95.143 268.462>
LayerCount: 3
Fore
SplineSet
56 141 m 0xf2
 56 195 96 243 152 243 c 0
 198 243 226 214 226 177 c 0
 226 140 207 120 180 108 c 0
 167 102 152 90 152 74 c 0
 152 37 191 16 250 16 c 0
 320 16 356 73 356 193 c 0xf2
 356 312 307 356 255 356 c 2
 154 356 l 25
 154 392 l 25
 253 392 l 2
 316 392 343 438 343 538 c 0
 343 667 309 696 256 696 c 0
 207 696 164 666 164 619 c 0
 164 600 182 585 194 577 c 0
 212 565 229 547 229 517 c 0
 229 486 205 457 164 457 c 0
 116 457 74 500 74 561 c 0
 74 664 163 728 268 728 c 0
 400 728 493 661 493 550 c 0xec
 493 446 405 397 329 381 c 1
 329 372 l 1
 420 364 516 293 516 189 c 0
 516 54 409 -16 253 -16 c 0
 142 -16 56 42 56 141 c 0xf2
EndSplineSet
Layer: 2
SplineSet
56 141 m 0,0,1
 56 182 56 182 83.5 212.5 c 128,-1,2
 111 243 111 243 152 243 c 0,3,4
 186 243 186 243 206 224.5 c 128,-1,5
 226 206 226 206 226 177 c 0,6,7
 226 128 226 128 180 108 c 0,8,9
 152 95 152 95 152 74 c 0,10,11
 152 46 152 46 178.5 31 c 128,-1,12
 205 16 205 16 250 16 c 0,13,14
 356 16 356 16 356 193 c 0,15,16
 356 276 356 276 327 316 c 128,-1,17
 298 356 298 356 255 356 c 2,18,-1
 154 356 l 1,19,-1
 154 392 l 1,20,-1
 253 392 l 2,21,22
 300 392 300 392 321.5 427 c 128,-1,23
 343 462 343 462 343 538 c 0,24,25
 343 585 343 585 337 616.5 c 128,-1,26
 331 648 331 648 319 665 c 128,-1,27
 307 682 307 682 292 689 c 128,-1,28
 277 696 277 696 256 696 c 0,29,30
 218 696 218 696 191 674.5 c 128,-1,31
 164 653 164 653 164 619 c 0,32,33
 164 597 164 597 194 577 c 0,34,35
 229 554 229 554 229 517 c 0,36,37
 229 492 229 492 211.5 474.5 c 128,-1,38
 194 457 194 457 164 457 c 0,39,40
 127 457 127 457 100.5 486.5 c 128,-1,41
 74 516 74 516 74 561 c 0,42,43
 74 636 74 636 130 682 c 128,-1,44
 186 728 186 728 268 728 c 0,45,46
 368 728 368 728 430.5 680 c 128,-1,47
 493 632 493 632 493 550 c 0,48,49
 493 513 493 513 478.5 482.5 c 128,-1,50
 464 452 464 452 439 432 c 128,-1,51
 414 412 414 412 387 400 c 128,-1,52
 360 388 360 388 329 381 c 1,53,-1
 329 372 l 1,54,55
 376 368 376 368 418 345 c 128,-1,56
 460 322 460 322 488 280.5 c 128,-1,57
 516 239 516 239 516 189 c 0,58,59
 516 90 516 90 444.5 37 c 128,-1,60
 373 -16 373 -16 253 -16 c 0,61,62
 168 -16 168 -16 112 26 c 128,-1,63
 56 68 56 68 56 141 c 0,0,1
EndSplineSet
AlternateSubs2: "'aalt' Access All Alternates in Latin lookup 0 subtable" threesuperior threeinferior
Substitution2: "'sups' Superscript Forms-1" threesuperior
Substitution2: "'subs' Subscript Forms-1" threeinferior
EndChar

StartChar: four
Encoding: 52 52 20
Width: 580
VWidth: 1080
Flags: W
TeX: 102 0
HStem: 0 32<150 269.438 418.562 514> 204 36<100 270 418 526> 693 20G<301.856 418>
VStem: 270 148<32.0402 204 240 544>
DStem2: 50 241 100 240 0.486742 0.873545<23.4636 371.768>
LayerCount: 3
Fore
SplineSet
100 240 m 1
 270 240 l 1
 270 544 l 1
 100 240 l 1
50 204 m 1
 50 241 l 1
 313 713 l 1
 418 713 l 1
 418 240 l 1
 526 240 l 1
 526 204 l 1
 418 204 l 1
 418 56 l 2
 418 38 424 32 442 32 c 2
 514 32 l 1
 514 0 l 1
 150 0 l 1
 150 32 l 1
 246 32 l 2
 264 32 270 38 270 56 c 2
 270 204 l 1
 50 204 l 1
EndSplineSet
Layer: 2
SplineSet
100 240 m 1,0,-1
 270 240 l 1,1,-1
 270 544 l 1,2,-1
 100 240 l 1,0,-1
50 204 m 1,3,-1
 50 241 l 1,4,-1
 313 713 l 1,5,-1
 418 713 l 1,6,-1
 418 240 l 1,7,-1
 526 240 l 1,8,-1
 526 204 l 1,9,-1
 418 204 l 1,10,-1
 418 56 l 2,11,12
 418 42 418 42 423 37 c 128,-1,13
 428 32 428 32 442 32 c 2,14,-1
 514 32 l 1,15,-1
 514 0 l 1,16,-1
 150 0 l 1,17,-1
 150 32 l 1,18,-1
 246 32 l 2,19,20
 260 32 260 32 265 37 c 128,-1,21
 270 42 270 42 270 56 c 2,22,-1
 270 204 l 1,23,-1
 50 204 l 1,3,-1
EndSplineSet
AlternateSubs2: "'aalt' Access All Alternates in Latin lookup 0 subtable" foursuperior fourinferior
Substitution2: "'sups' Superscript Forms-1" foursuperior
Substitution2: "'subs' Subscript Forms-1" fourinferior
EndChar

StartChar: five
Encoding: 53 53 21
Width: 580
Flags: W
TeX: 102 0
HStem: -16 32<196.716 309.614> 420 32<210.424 312.114> 556 122<162.96 284.564> 696 20G<112 150 415 458>
VStem: 76 90<64.5554 170> 112 40<400 556> 112 26<318 347.22> 356 160<122.339 327.765>
LayerCount: 3
Fore
SplineSet
76 138 m 0xf9
 76 202 127 245 173 245 c 0
 219 245 239 211 239 180 c 0
 239 144 212 126 196 118 c 0
 180 112 166 99 166 76 c 0xf9
 166 48 197 16 264 16 c 0
 349 16 356 123 356 221 c 0
 356 357 339 420 259 420 c 0
 222 420 153 378 138 318 c 9
 112 318 l 9
 112 703 l 1xf3
 132 716 l 1
 168 694 215 678 270 678 c 0
 320 678 390 696 440 728 c 1
 458 710 l 1
 384 598 266 556 152 556 c 1
 152 400 l 1xf5
 158 398 l 1
 194 435 234 452 286 452 c 0
 426 452 516 362 516 224 c 0
 516 74 400 -16 267 -16 c 0
 151 -16 76 54 76 138 c 0xf9
EndSplineSet
Layer: 2
SplineSet
76 138 m 0,0,1
 76 184 76 184 106 214.5 c 128,-1,2
 136 245 136 245 173 245 c 0,3,4
 205 245 205 245 222 225.5 c 128,-1,5
 239 206 239 206 239 180 c 0,6,7
 239 140 239 140 196 118 c 0,8,9
 166 107 166 107 166 76 c 0,10,11
 166 52 166 52 191.5 34 c 128,-1,12
 217 16 217 16 264 16 c 0,13,14
 284 16 284 16 300 24 c 128,-1,15
 316 32 316 32 326 48 c 128,-1,16
 336 64 336 64 342 81.5 c 128,-1,17
 348 99 348 99 351 124.5 c 128,-1,18
 354 150 354 150 355 171 c 128,-1,19
 356 192 356 192 356 221 c 0,20,21
 356 329 356 329 336 374.5 c 128,-1,22
 316 420 316 420 259 420 c 0,23,24
 228 420 228 420 188 390 c 128,-1,25
 148 360 148 360 138 318 c 1,26,-1
 112 318 l 1,27,-1
 112 703 l 1,28,-1
 132 716 l 1,29,30
 194 678 194 678 270 678 c 0,31,32
 309 678 309 678 356.5 691.5 c 128,-1,33
 404 705 404 705 440 728 c 1,34,-1
 458 710 l 1,35,36
 406 630 406 630 325 593 c 128,-1,37
 244 556 244 556 152 556 c 1,38,-1
 152 400 l 1,39,-1
 158 398 l 1,40,41
 210 452 210 452 286 452 c 0,42,43
 391 452 391 452 453.5 390 c 128,-1,44
 516 328 516 328 516 224 c 0,45,46
 516 152 516 152 481 96 c 128,-1,47
 446 40 446 40 390 12 c 128,-1,48
 334 -16 334 -16 267 -16 c 0,49,50
 182 -16 182 -16 129 29 c 128,-1,51
 76 74 76 74 76 138 c 0,0,1
EndSplineSet
AlternateSubs2: "'aalt' Access All Alternates in Latin lookup 0 subtable" fivesuperior fiveinferior
Substitution2: "'sups' Superscript Forms-1" fivesuperior
Substitution2: "'subs' Subscript Forms-1" fiveinferior
EndChar

StartChar: six
Encoding: 54 54 22
Width: 580
VWidth: 1080
Flags: W
TeX: 115 0
HStem: -16 32<272.287 355.242> 382 38<265.295 355.47> 696 32<289.625 402.828>
VStem: 72 160<185.702 505.603> 386 148<105.366 317.709> 420 72<564 664.755>
LayerCount: 3
Fore
SplineSet
232 195 m 0xf8
 232 77 254 16 313 16 c 0
 385 16 386 100 386 200 c 0
 386 288 377 382 322 382 c 0
 290 382 262 370 248 340 c 0
 234 312 232 263 232 195 c 0xf8
72 339 m 0
 72 569 173 728 342 728 c 0
 440 728 492 660 492 592 c 0
 492 536 456 489 402 489 c 0
 362 489 335 516 335 556 c 0
 335 588 352 608 380 618 c 0
 402 626 420 634 420 650 c 0xf4
 420 675 393 696 341 696 c 0
 261 696 232 612 232 533 c 2
 232 390 l 1
 238 387 l 1
 260 409 298 420 335 420 c 0
 475 420 534 324 534 210 c 0
 534 103 471 -16 314 -16 c 0
 162 -16 72 148 72 339 c 0
EndSplineSet
Layer: 2
SplineSet
232 195 m 0,0,1
 232 104 232 104 251 60 c 128,-1,2
 270 16 270 16 313 16 c 0,3,4
 328 16 328 16 340 21.5 c 128,-1,5
 352 27 352 27 359 34.5 c 128,-1,6
 366 42 366 42 371.5 57 c 128,-1,7
 377 72 377 72 379.5 85 c 128,-1,8
 382 98 382 98 384 120.5 c 128,-1,9
 386 143 386 143 386 158 c 128,-1,10
 386 173 386 173 386 200 c 0,11,12
 386 238 386 238 383.5 266.5 c 128,-1,13
 381 295 381 295 374.5 323.5 c 128,-1,14
 368 352 368 352 355 367 c 128,-1,15
 342 382 342 382 322 382 c 0,16,17
 268 382 268 382 248 340 c 0,18,19
 232 308 232 308 232 195 c 0,0,1
72 339 m 0,20,21
 72 454 72 454 104 542 c 128,-1,22
 136 630 136 630 197.5 679 c 128,-1,23
 259 728 259 728 342 728 c 0,24,25
 412 728 412 728 452 687.5 c 128,-1,26
 492 647 492 647 492 592 c 0,27,28
 492 549 492 549 467 519 c 128,-1,29
 442 489 442 489 402 489 c 0,30,31
 372 489 372 489 353.5 507.5 c 128,-1,32
 335 526 335 526 335 556 c 0,33,34
 335 602 335 602 380 618 c 0,35,36
 400 625 400 625 410 632 c 128,-1,37
 420 639 420 639 420 650 c 0,38,39
 420 670 420 670 399 683 c 128,-1,40
 378 696 378 696 341 696 c 0,41,42
 303 696 303 696 277.5 671 c 128,-1,43
 252 646 252 646 242 611 c 128,-1,44
 232 576 232 576 232 533 c 2,45,-1
 232 390 l 1,46,-1
 238 387 l 1,47,48
 271 420 271 420 335 420 c 0,49,50
 386 420 386 420 425 403.5 c 128,-1,51
 464 387 464 387 487 357.5 c 128,-1,52
 510 328 510 328 522 291 c 128,-1,53
 534 254 534 254 534 210 c 0,54,55
 534 168 534 168 521 129 c 128,-1,56
 508 90 508 90 483 57 c 128,-1,57
 458 24 458 24 414 4 c 128,-1,58
 370 -16 370 -16 314 -16 c 0,59,60
 240 -16 240 -16 184 33 c 128,-1,61
 128 82 128 82 100 162 c 128,-1,62
 72 242 72 242 72 339 c 0,20,21
EndSplineSet
AlternateSubs2: "'aalt' Access All Alternates in Latin lookup 0 subtable" sixsuperior sixinferior
Substitution2: "'sups' Superscript Forms-1" sixsuperior
Substitution2: "'subs' Subscript Forms-1" sixinferior
EndChar

StartChar: seven
Encoding: 55 55 23
Width: 580
VWidth: 1080
Flags: W
TeX: 115 0
HStem: -16 21G<269.5 316.5> 540 56<387.5 464.642> 572 148<208.716 336.003>
VStem: 210 160<14.6745 181.496> 472 44<550.891 656.6>
DStem2: 94 428 130 428 0.0807216 0.996737<2.90598 120.802 221.648 284.93>
LayerCount: 3
Fore
SplineSet
94 428 m 25xb8
 117 712 l 25
 153 712 l 25
 148 646 l 17
 152 644 l 1
 184 686 224 720 279 720 c 0xb8
 325 720 350 688 372 657 c 0
 394 624 416 596 440 596 c 0xd8
 462 596 472 608 472 626 c 0
 472 642 462 650 452 656 c 0
 438 664 427 677 427 693 c 0
 427 708 437 720 457 720 c 0xb8
 494 720 516 665 516 628 c 0
 516 536 487 471 437 389 c 0
 381 297 370 184 370 87 c 0
 370 16 340 -16 293 -16 c 0
 246 -16 210 22 210 88 c 0
 210 177 264 249 322 316 c 0
 368 369 406 416 438 470 c 0
 451 493 465 523 474 563 c 9
 470 566 l 17
 451 550 428 540 401 540 c 0xd8
 374 540 340 548 314 558 c 0
 290 566 265 572 232 572 c 0
 180 572 140 548 135 488 c 10
 130 428 l 25
 94 428 l 25xb8
EndSplineSet
Layer: 2
SplineSet
94 428 m 1,0,-1
 117 712 l 1,1,-1
 153 712 l 1,2,-1
 148 646 l 1,3,-1
 152 644 l 1,4,5
 210 720 210 720 279 720 c 0,6,7
 300 720 300 720 319 710 c 128,-1,8
 338 700 338 700 348 688 c 128,-1,9
 358 676 358 676 372 657 c 0,10,11
 392 628 392 628 408 612 c 128,-1,12
 424 596 424 596 440 596 c 0,13,14
 472 596 472 596 472 626 c 0,15,16
 472 644 472 644 452 656 c 0,17,18
 427 670 427 670 427 693 c 0,19,20
 427 705 427 705 434.5 712.5 c 128,-1,21
 442 720 442 720 457 720 c 0,22,23
 482 720 482 720 499 690 c 128,-1,24
 516 660 516 660 516 628 c 0,25,26
 516 563 516 563 497 509.5 c 128,-1,27
 478 456 478 456 437 389 c 0,28,29
 370 279 370 279 370 87 c 0,30,31
 370 35 370 35 350 9.5 c 128,-1,32
 330 -16 330 -16 293 -16 c 128,-1,33
 256 -16 256 -16 233 12 c 128,-1,34
 210 40 210 40 210 88 c 0,35,36
 210 120 210 120 219 151 c 128,-1,37
 228 182 228 182 245 211 c 128,-1,38
 262 240 262 240 279 263.5 c 128,-1,39
 296 287 296 287 322 316 c 0,40,41
 400 406 400 406 438 470 c 0,42,43
 463 514 463 514 474 563 c 1,44,-1
 470 566 l 1,45,46
 439 540 439 540 401 540 c 0,47,48
 361 540 361 540 314 558 c 0,49,50
 272 572 272 572 232 572 c 0,51,52
 190 572 190 572 164 551.5 c 128,-1,53
 138 531 138 531 135 488 c 2,54,-1
 130 428 l 1,55,-1
 94 428 l 1,0,-1
EndSplineSet
AlternateSubs2: "'aalt' Access All Alternates in Latin lookup 0 subtable" sevensuperior seveninferior
Substitution2: "'sups' Superscript Forms-1" sevensuperior
Substitution2: "'subs' Subscript Forms-1" seveninferior
EndChar

StartChar: eight
Encoding: 56 56 24
Width: 580
VWidth: 1080
Flags: W
TeX: 101 0
HStem: -16 32<228.78 383.829> 696 32<229.996 374.829>
VStem: 56 68<97.7704 249.855> 70 92<467 612.59> 450 48<492.823 635.103> 462 76<118.354 253.5>
DStem2: 233 489 206 328 0.896433 -0.44318<33.2441 159.844 177.101 299.197>
LayerCount: 3
Fore
SplineSet
162 588 m 0xd8
 162 530 193 508 233 489 c 2
 364 426 l 1
 419 448 450 506 450 564 c 0
 450 651 375 696 309 696 c 0
 253 696 162 671 162 588 c 0xd8
56 167 m 0xe4
 56 260 126 316 177 338 c 1
 177 340 l 1
 138 363 70 413 70 521 c 0
 70 660 196 728 302 728 c 0
 444 728 498 633 498 569 c 0xd8
 498 496 442 441 392 415 c 1
 392 411 l 1
 411 401 l 2
 493 361 538 286 538 221 c 0
 538 94 451 -16 286 -16 c 0
 177 -16 56 50 56 167 c 0xe4
124 183 m 0xe4
 124 43 256 16 313 16 c 0
 404 16 462 72 462 134 c 0
 462 194 414 225 372 246 c 2
 206 328 l 1
 162 304 124 275 124 183 c 0xe4
EndSplineSet
Layer: 2
SplineSet
162 588 m 0,0,1
 162 548 162 548 180 527 c 128,-1,2
 198 506 198 506 233 489 c 2,3,-1
 364 426 l 1,4,5
 404 442 404 442 427 480.5 c 128,-1,6
 450 519 450 519 450 564 c 0,7,8
 450 625 450 625 407 660.5 c 128,-1,9
 364 696 364 696 309 696 c 0,10,11
 291 696 291 696 272.5 693 c 128,-1,12
 254 690 254 690 233.5 682 c 128,-1,13
 213 674 213 674 197.5 662 c 128,-1,14
 182 650 182 650 172 631 c 128,-1,15
 162 612 162 612 162 588 c 0,0,1
56 167 m 0,16,17
 56 200 56 200 67.5 229.5 c 128,-1,18
 79 259 79 259 97.5 279.5 c 128,-1,19
 116 300 116 300 136 314.5 c 128,-1,20
 156 329 156 329 177 338 c 1,21,-1
 177 340 l 1,22,23
 70 403 70 403 70 521 c 0,24,25
 70 571 70 571 91 611.5 c 128,-1,26
 112 652 112 652 146 677 c 128,-1,27
 180 702 180 702 220.5 715 c 128,-1,28
 261 728 261 728 302 728 c 128,-1,29
 343 728 343 728 376.5 717.5 c 128,-1,30
 410 707 410 707 432 690.5 c 128,-1,31
 454 674 454 674 469.5 652.5 c 128,-1,32
 485 631 485 631 491.5 610 c 128,-1,33
 498 589 498 589 498 569 c 0,34,35
 498 518 498 518 466.5 478 c 128,-1,36
 435 438 435 438 392 415 c 1,37,-1
 392 411 l 1,38,-1
 411 401 l 2,39,40
 470 372 470 372 504 322 c 128,-1,41
 538 272 538 272 538 221 c 0,42,43
 538 173 538 173 521.5 130.5 c 128,-1,44
 505 88 505 88 474.5 55 c 128,-1,45
 444 22 444 22 395 3 c 128,-1,46
 346 -16 346 -16 286 -16 c 0,47,48
 244 -16 244 -16 204 -3.5 c 128,-1,49
 164 9 164 9 130.5 31.5 c 128,-1,50
 97 54 97 54 76.5 89.5 c 128,-1,51
 56 125 56 125 56 167 c 0,16,17
124 183 m 0,52,53
 124 143 124 143 138.5 112 c 128,-1,54
 153 81 153 81 174 63.5 c 128,-1,55
 195 46 195 46 222.5 35 c 128,-1,56
 250 24 250 24 271.5 20 c 128,-1,57
 293 16 293 16 313 16 c 0,58,59
 379 16 379 16 420.5 51 c 128,-1,60
 462 86 462 86 462 134 c 0,61,62
 462 156 462 156 454 174 c 128,-1,63
 446 192 446 192 432 205 c 128,-1,64
 418 218 418 218 404 227 c 128,-1,65
 390 236 390 236 372 246 c 2,66,-1
 206 328 l 1,67,68
 186 318 186 318 174 308 c 128,-1,69
 162 298 162 298 149 281.5 c 128,-1,70
 136 265 136 265 130 240.5 c 128,-1,71
 124 216 124 216 124 183 c 0,52,53
EndSplineSet
AlternateSubs2: "'aalt' Access All Alternates in Latin lookup 0 subtable" eightsuperior eightinferior
Substitution2: "'sups' Superscript Forms-1" eightsuperior
Substitution2: "'subs' Subscript Forms-1" eightinferior
EndChar

StartChar: nine
Encoding: 57 57 25
Width: 580
VWidth: 1080
Flags: W
TeX: -110 0
HStem: -16 32<197.172 310.375> 292 38<244.53 334.705> 696 32<244.758 327.713>
VStem: 66 148<394.291 606.634> 108 72<47.2446 148> 368 160<206.397 526.298>
LayerCount: 3
Fore
SplineSet
214 512 m 0xf4
 214 424 223 330 278 330 c 0
 310 330 338 342 352 372 c 0
 366 400 368 449 368 517 c 0
 368 635 346 696 287 696 c 0
 215 696 214 612 214 512 c 0xf4
66 502 m 0
 66 609 129 728 286 728 c 0
 438 728 528 564 528 373 c 0
 528 143 427 -16 258 -16 c 0
 160 -16 108 52 108 120 c 0
 108 176 144 223 198 223 c 0
 238 223 265 196 265 156 c 0
 265 124 248 104 220 94 c 0
 198 86 180 78 180 62 c 0xec
 180 37 207 16 259 16 c 0
 339 16 368 100 368 179 c 2
 368 322 l 1
 362 325 l 1
 340 303 302 292 265 292 c 0
 125 292 66 388 66 502 c 0
EndSplineSet
Layer: 2
SplineSet
214 512 m 0,0,1
 214 474 214 474 216.5 445.5 c 128,-1,2
 219 417 219 417 225.5 388.5 c 128,-1,3
 232 360 232 360 245 345 c 128,-1,4
 258 330 258 330 278 330 c 0,5,6
 332 330 332 330 352 372 c 0,7,8
 368 404 368 404 368 517 c 0,9,10
 368 608 368 608 349 652 c 128,-1,11
 330 696 330 696 287 696 c 0,12,13
 272 696 272 696 260 690.5 c 128,-1,14
 248 685 248 685 241 677.5 c 128,-1,15
 234 670 234 670 228.5 655 c 128,-1,16
 223 640 223 640 220.5 627 c 128,-1,17
 218 614 218 614 216 591.5 c 128,-1,18
 214 569 214 569 214 554 c 128,-1,19
 214 539 214 539 214 512 c 0,0,1
66 502 m 0,20,21
 66 544 66 544 79 583 c 128,-1,22
 92 622 92 622 117 655 c 128,-1,23
 142 688 142 688 186 708 c 128,-1,24
 230 728 230 728 286 728 c 0,25,26
 360 728 360 728 416 679 c 128,-1,27
 472 630 472 630 500 550 c 128,-1,28
 528 470 528 470 528 373 c 0,29,30
 528 258 528 258 496 170 c 128,-1,31
 464 82 464 82 402.5 33 c 128,-1,32
 341 -16 341 -16 258 -16 c 0,33,34
 188 -16 188 -16 148 24.5 c 128,-1,35
 108 65 108 65 108 120 c 0,36,37
 108 163 108 163 133 193 c 128,-1,38
 158 223 158 223 198 223 c 0,39,40
 228 223 228 223 246.5 204.5 c 128,-1,41
 265 186 265 186 265 156 c 0,42,43
 265 110 265 110 220 94 c 0,44,45
 200 87 200 87 190 80 c 128,-1,46
 180 73 180 73 180 62 c 0,47,48
 180 42 180 42 201 29 c 128,-1,49
 222 16 222 16 259 16 c 0,50,51
 297 16 297 16 322.5 41 c 128,-1,52
 348 66 348 66 358 101 c 128,-1,53
 368 136 368 136 368 179 c 2,54,-1
 368 322 l 1,55,-1
 362 325 l 1,56,57
 329 292 329 292 265 292 c 0,58,59
 214 292 214 292 175 308.5 c 128,-1,60
 136 325 136 325 113 354.5 c 128,-1,61
 90 384 90 384 78 421 c 128,-1,62
 66 458 66 458 66 502 c 0,20,21
EndSplineSet
AlternateSubs2: "'aalt' Access All Alternates in Latin lookup 0 subtable" ninesuperior nineinferior
Substitution2: "'sups' Superscript Forms-1" ninesuperior
Substitution2: "'subs' Subscript Forms-1" nineinferior
EndChar

StartChar: less
Encoding: 60 60 28
Width: 940
Flags: W
TeX: 108 0
HStem: -156 21G<785.824 833.429>
VStem: 84 96<204 340>
DStem2: 84 292 180 272 0.875162 0.48383<74.339 843.272> 180 272 84 252 0.875162 -0.48383<0 768.933>
LayerCount: 3
Fore
SplineSet
84 252 m 1
 84 292 l 1
 822 700 l 1
 854 644 l 1
 180 272 l 1
 854 -100 l 1
 822 -156 l 1
 84 252 l 1
EndSplineSet
Layer: 2
SplineSet
84 252 m 1,0,-1
 84 292 l 1,1,-1
 822 700 l 1,2,-1
 854 644 l 1,3,-1
 180 272 l 1,4,-1
 854 -100 l 1,5,-1
 822 -156 l 1,6,-1
 84 252 l 1,0,-1
EndSplineSet
EndChar

StartChar: equal
Encoding: 61 61 29
Width: 940
Flags: W
TeX: 101 0
HStem: 136 64<48 892> 344 64<48 892>
LayerCount: 3
Fore
SplineSet
48 344 m 1
 48 408 l 1
 892 408 l 1
 892 344 l 1
 48 344 l 1
48 136 m 1
 48 200 l 1
 892 200 l 1
 892 136 l 1
 48 136 l 1
EndSplineSet
Layer: 2
SplineSet
48 344 m 1,0,-1
 48 408 l 1,1,-1
 892 408 l 1,2,-1
 892 344 l 1,3,-1
 48 344 l 1,0,-1
48 136 m 1,4,-1
 48 200 l 1,5,-1
 892 200 l 1,6,-1
 892 136 l 1,7,-1
 48 136 l 1,4,-1
EndSplineSet
EndChar

StartChar: greater
Encoding: 62 62 30
Width: 940
Flags: W
TeX: 103 0
HStem: -156 21G<106.571 154.176>
VStem: 760 96<204 340>
DStem2: 118 700 86 644 0.875162 -0.48383<0 768.933> 86 -100 118 -156 0.875162 0.48383<0.910738 769.844>
LayerCount: 3
Fore
SplineSet
86 -100 m 1
 760 272 l 1
 86 644 l 1
 118 700 l 1
 856 292 l 1
 856 252 l 1
 118 -156 l 1
 86 -100 l 1
EndSplineSet
Layer: 2
SplineSet
86 -100 m 1,0,-1
 760 272 l 1,1,-1
 86 644 l 1,2,-1
 118 700 l 1,3,-1
 856 292 l 1,4,-1
 856 252 l 1,5,-1
 118 -156 l 1,6,-1
 86 -100 l 1,0,-1
EndSplineSet
EndChar

StartChar: question
Encoding: 63 63 31
Width: 470
Flags: W
TeX: 113 0
HStem: -12 156<193.442 302.558> 176 30<199.187 281.562> 692 40<146.753 243.909>
VStem: 72 34<507.29 646.296> 150 34<219.562 315.942> 170 156<11.4422 120.558> 270 122<513.957 662.037> 301 28<227.045 301.552>
LayerCount: 3
Fore
SplineSet
170 66 m 0xf4
 170 111 203 144 248 144 c 0
 293 144 326 111 326 66 c 0
 326 21 293 -12 248 -12 c 0
 203 -12 170 21 170 66 c 0xf4
72 586 m 0
 72 659 127 732 229 732 c 0
 325 732 392 670 392 588 c 0xfa
 392 519 330 450 269 394 c 0
 225 353 184 313 184 256 c 0
 184 220 215 206 245 206 c 0
 280 206 301 235 301 272 c 0
 301 278 300 287 296 298 c 1
 320 308 l 1
 326 295 329 287 329 271 c 0xf9
 329 214 290 176 245 176 c 0
 196 176 150 202 150 257 c 0
 150 307 173 352 202 397 c 0
 239 455 270 507 270 601 c 0xfa
 270 650 245 692 198 692 c 0
 142 692 106 639 106 584 c 0
 106 533 117 510 144 476 c 9
 121 459 l 17
 91 496 72 528 72 586 c 0
EndSplineSet
Layer: 2
SplineSet
170 66 m 128,-1,1
 170 100 170 100 192 122 c 128,-1,2
 214 144 214 144 248 144 c 128,-1,3
 282 144 282 144 304 122 c 128,-1,4
 326 100 326 100 326 66 c 128,-1,5
 326 32 326 32 304 10 c 128,-1,6
 282 -12 282 -12 248 -12 c 128,-1,7
 214 -12 214 -12 192 10 c 128,-1,0
 170 32 170 32 170 66 c 128,-1,1
72 586 m 0,8,9
 72 645 72 645 114 688.5 c 128,-1,10
 156 732 156 732 229 732 c 0,11,12
 300 732 300 732 346 691 c 128,-1,13
 392 650 392 650 392 588 c 0,14,15
 392 507 392 507 269 394 c 0,16,17
 248 374 248 374 236 362 c 128,-1,18
 224 350 224 350 210.5 332 c 128,-1,19
 197 314 197 314 190.5 295 c 128,-1,20
 184 276 184 276 184 256 c 0,21,22
 184 231 184 231 202 218.5 c 128,-1,23
 220 206 220 206 245 206 c 128,-1,24
 270 206 270 206 285.5 225 c 128,-1,25
 301 244 301 244 301 272 c 0,26,27
 301 284 301 284 296 298 c 1,28,-1
 320 308 l 1,29,30
 329 288 329 288 329 271 c 0,31,32
 329 230 329 230 304.5 203 c 128,-1,33
 280 176 280 176 245 176 c 0,34,35
 206 176 206 176 178 197 c 128,-1,36
 150 218 150 218 150 257 c 0,37,38
 150 316 150 316 202 397 c 0,39,40
 219 424 219 424 228.5 441 c 128,-1,41
 238 458 238 458 249 484 c 128,-1,42
 260 510 260 510 265 538.5 c 128,-1,43
 270 567 270 567 270 601 c 0,44,45
 270 640 270 640 251 666 c 128,-1,46
 232 692 232 692 198 692 c 0,47,48
 158 692 158 692 132 659.5 c 128,-1,49
 106 627 106 627 106 584 c 0,50,51
 106 548 106 548 114 525.5 c 128,-1,52
 122 503 122 503 144 476 c 1,53,-1
 121 459 l 1,54,55
 96 490 96 490 84 518 c 128,-1,56
 72 546 72 546 72 586 c 0,8,9
EndSplineSet
EndChar

StartChar: at
Encoding: 64 64 32
Width: 820
Flags: W
TeX: 97 0
HStem: -18 32<320.043 512.613> 130 32<523.5 626.135> 130 24<291.5 372.393> 554 24<404.804 465.126> 698 32<325.137 513.138>
VStem: 44 72<214.703 470.378> 200 108<179.521 395.548> 704 72<284.243 509.44>
DStem2: 459 335 548 257 0.229917 0.97321<-97.8513 140.666 193.08 237.457>
LayerCount: 3
Fore
SplineSet
44 347 m 0xdf
 44 558 209 730 422 730 c 0
 642 730 776 570 776 386 c 0
 776 287 702 130 548 130 c 0xdf
 499 130 461 158 455 206 c 9
 451 207 l 17
 434 184 386 130 321 130 c 0xbf
 262 130 200 169 200 254 c 0
 200 332 219 426 263 481 c 0
 321 553 382 578 432 578 c 0
 468 578 492 550 499 523 c 1
 503 523 l 9
 514 566 l 25
 621 566 l 25
 548 257 l 18
 545 241 543 227 543 214 c 0
 543 176 566 162 579 162 c 0
 666 162 704 302 704 397 c 0
 704 585 584 698 412 698 c 0
 249 698 116 553 116 344 c 0
 116 144 232 14 426 14 c 0
 498 14 563 49 594 70 c 9
 609 43 l 17
 580 22 509 -18 404 -18 c 0
 204 -18 44 126 44 347 c 0xdf
308 223 m 0
 308 179 328 154 345 154 c 0xbf
 397 154 441 246 459 335 c 0
 479 419 483 451 483 475 c 0
 483 522 468 554 442 554 c 0
 403 554 372 524 341 434 c 0
 323 384 308 297 308 223 c 0
EndSplineSet
Layer: 2
SplineSet
44 347 m 0,0,1
 44 451 44 451 94 539 c 128,-1,2
 144 627 144 627 231 678.5 c 128,-1,3
 318 730 318 730 422 730 c 0,4,5
 502 730 502 730 569.5 702 c 128,-1,6
 637 674 637 674 681.5 627 c 128,-1,7
 726 580 726 580 751 517.5 c 128,-1,8
 776 455 776 455 776 386 c 0,9,10
 776 356 776 356 767 322 c 128,-1,11
 758 288 758 288 739.5 253.5 c 128,-1,12
 721 219 721 219 695 191.5 c 128,-1,13
 669 164 669 164 630.5 147 c 128,-1,14
 592 130 592 130 548 130 c 0,15,16
 510 130 510 130 485 150 c 128,-1,17
 460 170 460 170 455 206 c 1,18,-1
 451 207 l 1,19,20
 439 191 439 191 424 176 c 128,-1,21
 409 161 409 161 379.5 145.5 c 128,-1,22
 350 130 350 130 321 130 c 0,23,24
 272 130 272 130 236 162 c 128,-1,25
 200 194 200 194 200 254 c 0,26,27
 200 318 200 318 216 380 c 128,-1,28
 232 442 232 442 263 481 c 0,29,30
 341 578 341 578 432 578 c 0,31,32
 458 578 458 578 475.5 562 c 128,-1,33
 493 546 493 546 499 523 c 1,34,-1
 503 523 l 1,35,-1
 514 566 l 1,36,-1
 621 566 l 1,37,-1
 548 257 l 2,38,39
 543 230 543 230 543 214 c 0,40,41
 543 188 543 188 554.5 175 c 128,-1,42
 566 162 566 162 579 162 c 0,43,44
 610 162 610 162 635 185 c 128,-1,45
 660 208 660 208 674.5 244 c 128,-1,46
 689 280 689 280 696.5 320 c 128,-1,47
 704 360 704 360 704 397 c 0,48,49
 704 536 704 536 623.5 617 c 128,-1,50
 543 698 543 698 412 698 c 0,51,52
 352 698 352 698 297 672 c 128,-1,53
 242 646 242 646 202.5 600 c 128,-1,54
 163 554 163 554 139.5 487 c 128,-1,55
 116 420 116 420 116 344 c 0,56,57
 116 193 116 193 199 103.5 c 128,-1,58
 282 14 282 14 426 14 c 0,59,60
 474 14 474 14 518 31 c 128,-1,61
 562 48 562 48 594 70 c 1,62,-1
 609 43 l 1,63,64
 578 20 578 20 525.5 1 c 128,-1,65
 473 -18 473 -18 404 -18 c 0,66,67
 330 -18 330 -18 264 8 c 128,-1,68
 198 34 198 34 149 81 c 128,-1,69
 100 128 100 128 72 197 c 128,-1,70
 44 266 44 266 44 347 c 0,0,1
308 223 m 0,71,72
 308 192 308 192 319.5 173 c 128,-1,73
 331 154 331 154 345 154 c 0,74,75
 382 154 382 154 413 208 c 128,-1,76
 444 262 444 262 459 335 c 0,77,78
 483 436 483 436 483 475 c 0,79,80
 483 511 483 511 472 532.5 c 128,-1,81
 461 554 461 554 442 554 c 0,82,83
 412 554 412 554 388 527 c 128,-1,84
 364 500 364 500 341 434 c 0,85,86
 327 396 327 396 317.5 336.5 c 128,-1,87
 308 277 308 277 308 223 c 0,71,72
EndSplineSet
EndChar

StartChar: A
Encoding: 65 65 33
Width: 754
VWidth: 1039
Flags: W
TeX: 65 0
HStem: 0 32<44 121.049 212.009 299 381 476.344 653.583 732> 189 37<245 430> 710 20G<370.16 425.615>
DStem2: 166 113 211 128 0.323579 0.946201<-22.4792 93.2675 132.483 423.105> 419 730 339 501 0.314026 -0.949414<192.294 481.959 520.856 651.192>
AnchorPoint: "Bottom" 340 0 basechar 0
AnchorPoint: "Top" 396 762 basechar 0
LayerCount: 3
Fore
SplineSet
245 226 m 1
 430 226 l 1
 339 501 l 1
 245 226 l 1
44 0 m 1
 44 32 l 1
 78 32 l 2
 121 32 152 73 166 113 c 2
 377 730 l 1
 419 730 l 1
 633 83 l 2
 645 48 666 32 692 32 c 2
 732 32 l 1
 732 0 l 1
 381 0 l 1
 381 32 l 1
 453 32 l 2
 469 32 480 47 480 64 c 0
 480 70 477 84 474 93 c 2
 442 189 l 1
 232 189 l 1
 211 128 l 2
 204 110 200 90 200 77 c 0
 200 55 219 32 252 32 c 2
 299 32 l 1
 299 0 l 1
 44 0 l 1
EndSplineSet
Layer: 2
SplineSet
245 226 m 1,0,-1
 430 226 l 1,1,-1
 339 501 l 1,2,-1
 245 226 l 1,0,-1
44 0 m 1,3,-1
 44 32 l 1,4,-1
 78 32 l 2,5,6
 108 32 108 32 131 56 c 128,-1,7
 154 80 154 80 166 113 c 2,8,-1
 377 730 l 1,9,-1
 419 730 l 1,10,-1
 633 83 l 2,11,12
 650 32 650 32 692 32 c 2,13,-1
 732 32 l 1,14,-1
 732 0 l 1,15,-1
 381 0 l 1,16,-1
 381 32 l 1,17,-1
 453 32 l 2,18,19
 464 32 464 32 472 41.5 c 128,-1,20
 480 51 480 51 480 64 c 0,21,22
 480 75 480 75 474 93 c 2,23,-1
 442 189 l 1,24,-1
 232 189 l 1,25,-1
 211 128 l 2,26,27
 200 100 200 100 200 77 c 0,28,29
 200 60 200 60 214 46 c 128,-1,30
 228 32 228 32 252 32 c 2,31,-1
 299 32 l 1,32,-1
 299 0 l 1,33,-1
 44 0 l 1,3,-1
EndSplineSet
EndChar

StartChar: B
Encoding: 66 66 34
Width: 710
VWidth: 1039
Flags: W
TeX: 66 0
HStem: 0 32<62 155.438 304.562 456.176> 356 32<304 449.415> 680 32<62 155.438 304.562 447.025>
VStem: 156 148<32.0402 356 388 679.96> 488 150<468.305 615.257> 502 160<106.515 268.219>
AnchorPoint: "Bottom" 320 0 basechar 0
AnchorPoint: "Top" 320 762 basechar 0
LayerCount: 3
Fore
SplineSet
304 56 m 2xf4
 304 38 310 32 328 32 c 2
 396 32 l 2
 462 32 502 66 502 194 c 0
 502 322 462 356 396 356 c 10
 304 356 l 25
 304 56 l 2xf4
62 0 m 1
 62 32 l 1
 132 32 l 2
 150 32 156 38 156 56 c 2
 156 656 l 2
 156 674 150 680 132 680 c 2
 62 680 l 1
 62 712 l 1
 414 712 l 2
 533 712 638 642 638 542 c 0xf8
 638 445 549 396 469 375 c 1
 469 369 l 1
 554 356 662 298 662 194 c 0
 662 68 553 0 427 0 c 2
 62 0 l 1
304 388 m 25
 396 388 l 2
 473 388 488 450 488 542 c 0
 488 630 455 680 402 680 c 2
 328 680 l 2
 310 680 304 674 304 656 c 10
 304 388 l 25
EndSplineSet
Layer: 2
SplineSet
304 56 m 2,0,1
 304 42 304 42 309 37 c 128,-1,2
 314 32 314 32 328 32 c 2,3,-1
 396 32 l 2,4,5
 422 32 422 32 440.5 39.5 c 128,-1,6
 459 47 459 47 473.5 64.5 c 128,-1,7
 488 82 488 82 495 114.5 c 128,-1,8
 502 147 502 147 502 194 c 128,-1,9
 502 241 502 241 495 273.5 c 128,-1,10
 488 306 488 306 473.5 323.5 c 128,-1,11
 459 341 459 341 440.5 348.5 c 128,-1,12
 422 356 422 356 396 356 c 2,13,-1
 304 356 l 1,14,-1
 304 56 l 2,0,1
62 0 m 1,15,-1
 62 32 l 1,16,-1
 132 32 l 2,17,18
 146 32 146 32 151 37 c 128,-1,19
 156 42 156 42 156 56 c 2,20,-1
 156 656 l 2,21,22
 156 670 156 670 151 675 c 128,-1,23
 146 680 146 680 132 680 c 2,24,-1
 62 680 l 1,25,-1
 62 712 l 1,26,-1
 414 712 l 2,27,28
 474 712 474 712 525 691 c 128,-1,29
 576 670 576 670 607 630 c 128,-1,30
 638 590 638 590 638 542 c 0,31,32
 638 508 638 508 623 479 c 128,-1,33
 608 450 608 450 583 430 c 128,-1,34
 558 410 558 410 530 397 c 128,-1,35
 502 384 502 384 469 375 c 1,36,-1
 469 369 l 1,37,38
 502 364 502 364 535 350.5 c 128,-1,39
 568 337 568 337 597 316 c 128,-1,40
 626 295 626 295 644 263 c 128,-1,41
 662 231 662 231 662 194 c 0,42,43
 662 133 662 133 629 88.5 c 128,-1,44
 596 44 596 44 544 22 c 128,-1,45
 492 0 492 0 427 0 c 2,46,-1
 62 0 l 1,15,-1
304 388 m 1,47,-1
 396 388 l 2,48,49
 424 388 424 388 443 399 c 128,-1,50
 462 410 462 410 471 431 c 128,-1,51
 480 452 480 452 484 478 c 128,-1,52
 488 504 488 504 488 542 c 0,53,54
 488 608 488 608 465 644 c 128,-1,55
 442 680 442 680 402 680 c 2,56,-1
 328 680 l 2,57,58
 314 680 314 680 309 675 c 128,-1,59
 304 670 304 670 304 656 c 2,60,-1
 304 388 l 1,47,-1
EndSplineSet
EndChar

StartChar: C
Encoding: 67 67 35
Width: 660
VWidth: 1039
Flags: W
TeX: 67 0
HStem: -18 32<307.687 440.633> 698 32<301.049 412.372>
VStem: 70 170<210.059 507.098> 560 32<415 483.493> 576 36<178.477 275>
AnchorPoint: "Bottom" 360 0 basechar 0
AnchorPoint: "Top" 348 762 basechar 0
LayerCount: 3
Fore
SplineSet
70 356 m 0xe8
 70 556 174 730 350 730 c 0
 404 730 445 708 485 681 c 0
 499 672 511 666 519 666 c 0
 531 666 536 674 541 685 c 2
 559 722 l 9
 592 722 l 25
 592 415 l 25
 560 415 l 17xf0
 530 586 450 698 350 698 c 0
 294 698 240 650 240 506 c 2
 240 206 l 2
 240 62 304 14 360 14 c 0
 454 14 507 67 537 123 c 0
 561 168 571 228 576 275 c 1
 612 275 l 1
 608 220 595 156 571 109 c 0
 531 31 460 -18 360 -18 c 0
 166 -18 70 168 70 356 c 0xe8
EndSplineSet
Layer: 2
SplineSet
70 356 m 0,0,1
 70 432 70 432 89 499 c 128,-1,2
 108 566 108 566 143.5 618 c 128,-1,3
 179 670 179 670 232.5 700 c 128,-1,4
 286 730 286 730 350 730 c 0,5,6
 387 730 387 730 418.5 717 c 128,-1,7
 450 704 450 704 485 681 c 0,8,9
 508 666 508 666 519 666 c 0,10,11
 532 666 532 666 541 685 c 2,12,-1
 559 722 l 1,13,-1
 592 722 l 1,14,-1
 592 415 l 1,15,-1
 560 415 l 1,16,17
 538 544 538 544 481 621 c 128,-1,18
 424 698 424 698 350 698 c 0,19,20
 302 698 302 698 271 652 c 128,-1,21
 240 606 240 606 240 506 c 2,22,-1
 240 206 l 2,23,24
 240 154 240 154 251 115.5 c 128,-1,25
 262 77 262 77 279.5 55.5 c 128,-1,26
 297 34 297 34 317.5 24 c 128,-1,27
 338 14 338 14 360 14 c 0,28,29
 478 14 478 14 537 123 c 0,30,31
 566 176 566 176 576 275 c 1,32,-1
 612 275 l 1,33,34
 604 175 604 175 571 109 c 0,35,36
 540 49 540 49 486.5 15.5 c 128,-1,37
 433 -18 433 -18 360 -18 c 0,38,39
 304 -18 304 -18 256 3 c 128,-1,40
 208 24 208 24 174 60 c 128,-1,41
 140 96 140 96 116 143.5 c 128,-1,42
 92 191 92 191 81 245 c 128,-1,43
 70 299 70 299 70 356 c 0,0,1
EndSplineSet
EndChar

StartChar: D
Encoding: 68 68 36
Width: 786
VWidth: 1039
Flags: W
TeX: 68 0
HStem: 0 32<62 155.438 304.562 479.809> 680 32<62 155.438 304.562 479.809>
VStem: 156 148<32.0402 679.96> 566 170<225.936 496.395>
AnchorPoint: "Bottom" 352 0 basechar 0
AnchorPoint: "Top" 352 762 basechar 0
LayerCount: 3
Fore
SplineSet
304 56 m 18
 304 38 310 32 328 32 c 10
 417 32 l 18
 497 32 566 86 566 206 c 2
 566 506 l 2
 566 626 497 680 417 680 c 10
 328 680 l 18
 310 680 304 674 304 656 c 10
 304 56 l 18
62 0 m 25
 62 32 l 25
 132 32 l 18
 150 32 156 38 156 56 c 10
 156 656 l 18
 156 674 150 680 132 680 c 10
 62 680 l 25
 62 712 l 25
 434 712 l 18
 600 712 736 570 736 362 c 0
 736 154 600 0 434 0 c 10
 62 0 l 25
EndSplineSet
Layer: 2
SplineSet
304 56 m 2,0,1
 304 42 304 42 309 37 c 128,-1,2
 314 32 314 32 328 32 c 2,3,-1
 417 32 l 2,4,5
 482 32 482 32 524 76 c 128,-1,6
 566 120 566 120 566 206 c 2,7,-1
 566 506 l 2,8,9
 566 592 566 592 524 636 c 128,-1,10
 482 680 482 680 417 680 c 2,11,-1
 328 680 l 2,12,13
 314 680 314 680 309 675 c 128,-1,14
 304 670 304 670 304 656 c 2,15,-1
 304 56 l 2,0,1
62 0 m 1,16,-1
 62 32 l 1,17,-1
 132 32 l 2,18,19
 146 32 146 32 151 37 c 128,-1,20
 156 42 156 42 156 56 c 2,21,-1
 156 656 l 2,22,23
 156 670 156 670 151 675 c 128,-1,24
 146 680 146 680 132 680 c 2,25,-1
 62 680 l 1,26,-1
 62 712 l 1,27,-1
 434 712 l 2,28,29
 496 712 496 712 551 686 c 128,-1,30
 606 660 606 660 647 615 c 128,-1,31
 688 570 688 570 712 504 c 128,-1,32
 736 438 736 438 736 362 c 0,33,34
 736 260 736 260 695 177 c 128,-1,35
 654 94 654 94 585 47 c 128,-1,36
 516 0 516 0 434 0 c 2,37,-1
 62 0 l 1,16,-1
EndSplineSet
EndChar

StartChar: E
Encoding: 69 69 37
Width: 690
VWidth: 1039
Flags: W
TeX: 69 0
HStem: 0 32<62 155.438 304.562 492.047> 344 36<304 398.69> 480 21G<590.982 630> 680 32<62 155.438 304.562 493.444>
VStem: 156 148<32.0402 344 380 679.96> 455 32<205 272.058 451.679 518> 598 32<480 540.643> 606 32<191.012 276>
AnchorPoint: "Bottom" 372 0 basechar 0
AnchorPoint: "Top" 372 762 basechar 0
LayerCount: 3
Fore
SplineSet
62 0 m 1xfd
 62 32 l 1
 132 32 l 2
 150 32 156 38 156 56 c 2
 156 656 l 2
 156 674 150 680 132 680 c 2
 62 680 l 1
 62 712 l 1
 624 712 l 1
 630 480 l 1
 598 480 l 1xfe
 598 480 588 544 558 594 c 0
 530 643 490 680 438 680 c 2
 328 680 l 2
 310 680 304 674 304 656 c 2
 304 380 l 1
 355 380 l 2
 411 380 455 460 455 518 c 1
 487 518 l 1
 487 205 l 1
 455 205 l 1
 455 264 411 344 355 344 c 2
 304 344 l 1
 304 56 l 2
 304 38 310 32 328 32 c 2
 437 32 l 2
 519 32 566 120 585 174 c 0
 598 211 606 276 606 276 c 1
 638 276 l 1
 632 0 l 1
 62 0 l 1xfd
EndSplineSet
Layer: 2
SplineSet
62 0 m 1,0,-1
 62 32 l 1,1,-1
 132 32 l 2,2,3
 146 32 146 32 151 37 c 128,-1,4
 156 42 156 42 156 56 c 2,5,-1
 156 656 l 2,6,7
 156 670 156 670 151 675 c 128,-1,8
 146 680 146 680 132 680 c 2,9,-1
 62 680 l 1,10,-1
 62 712 l 1,11,-1
 624 712 l 1,12,-1
 630 480 l 1,13,-1
 598 480 l 1,14,15
 588 544 588 544 558 594 c 0,16,17
 509 680 509 680 438 680 c 2,18,-1
 328 680 l 2,19,20
 314 680 314 680 309 675 c 128,-1,21
 304 670 304 670 304 656 c 2,22,-1
 304 380 l 1,23,-1
 355 380 l 2,24,25
 382 380 382 380 405.5 402.5 c 128,-1,26
 429 425 429 425 442 456.5 c 128,-1,27
 455 488 455 488 455 518 c 1,28,-1
 487 518 l 1,29,-1
 487 205 l 1,30,-1
 455 205 l 1,31,32
 455 235 455 235 442 267 c 128,-1,33
 429 299 429 299 405.5 321.5 c 128,-1,34
 382 344 382 344 355 344 c 2,35,-1
 304 344 l 1,36,-1
 304 56 l 2,37,38
 304 42 304 42 309 37 c 128,-1,39
 314 32 314 32 328 32 c 2,40,-1
 437 32 l 2,41,42
 466 32 466 32 491.5 46 c 128,-1,43
 517 60 517 60 535 83 c 128,-1,44
 553 106 553 106 565 128 c 128,-1,45
 577 150 577 150 585 174 c 0,46,47
 591 190 591 190 596.5 216 c 128,-1,48
 602 242 602 242 604 259 c 2,49,-1
 606 276 l 1,50,-1
 638 276 l 1,51,-1
 632 0 l 1,52,-1
 62 0 l 1,0,-1
EndSplineSet
EndChar

StartChar: F
Encoding: 70 70 38
Width: 670
VWidth: 1039
Flags: W
TeX: 70 0
HStem: 0 32<62 155.438 304.562 419> 344 36<304 398.69> 680 32<62 155.438 304.562 485.068>
VStem: 156 148<32.0402 344 380 679.96> 455 32<205 272.058 451.679 518> 602 32<438 513.887>
AnchorPoint: "Top" 372 762 basechar 0
LayerCount: 3
Fore
SplineSet
62 0 m 1
 62 32 l 1
 132 32 l 2
 150 32 156 38 156 56 c 2
 156 656 l 2
 156 674 150 680 132 680 c 2
 62 680 l 1
 62 712 l 1
 626 712 l 1
 634 438 l 1
 602 438 l 1
 602 438 591 518 566 571 c 0
 542 622 494 680 430 680 c 2
 328 680 l 2
 310 680 304 674 304 656 c 2
 304 380 l 1
 355 380 l 2
 411 380 455 460 455 518 c 1
 487 518 l 1
 487 205 l 1
 455 205 l 1
 455 264 411 344 355 344 c 2
 304 344 l 1
 304 56 l 2
 304 38 310 32 328 32 c 10
 419 32 l 25
 419 0 l 25
 62 0 l 1
EndSplineSet
Layer: 2
SplineSet
62 0 m 1,0,-1
 62 32 l 1,1,-1
 132 32 l 2,2,3
 146 32 146 32 151 37 c 128,-1,4
 156 42 156 42 156 56 c 2,5,-1
 156 656 l 2,6,7
 156 670 156 670 151 675 c 128,-1,8
 146 680 146 680 132 680 c 2,9,-1
 62 680 l 1,10,-1
 62 712 l 1,11,-1
 626 712 l 1,12,-1
 634 438 l 1,13,-1
 602 438 l 1,14,15
 591 518 591 518 566 571 c 0,16,17
 545 616 545 616 509.5 648 c 128,-1,18
 474 680 474 680 430 680 c 2,19,-1
 328 680 l 2,20,21
 314 680 314 680 309 675 c 128,-1,22
 304 670 304 670 304 656 c 2,23,-1
 304 380 l 1,24,-1
 355 380 l 2,25,26
 382 380 382 380 405.5 402.5 c 128,-1,27
 429 425 429 425 442 456.5 c 128,-1,28
 455 488 455 488 455 518 c 1,29,-1
 487 518 l 1,30,-1
 487 205 l 1,31,-1
 455 205 l 1,32,33
 455 235 455 235 442 267 c 128,-1,34
 429 299 429 299 405.5 321.5 c 128,-1,35
 382 344 382 344 355 344 c 2,36,-1
 304 344 l 1,37,-1
 304 56 l 2,38,39
 304 42 304 42 309 37 c 128,-1,40
 314 32 314 32 328 32 c 2,41,-1
 419 32 l 1,42,-1
 419 0 l 1,43,-1
 62 0 l 1,0,-1
EndSplineSet
EndChar

StartChar: G
Encoding: 71 71 39
Width: 720
VWidth: 1039
Flags: W
TeX: 71 0
HStem: -18 32<299.276 403.521> 322 32<356 467.438 616.562 688> 698 32<304.65 433.022>
VStem: 70 170<205.332 498.812> 468 148<105.969 321.96> 584 32<-13 9.75 434 485.989>
AnchorPoint: "Bottom" 364 0 basechar 0
AnchorPoint: "Top" 364 762 basechar 0
LayerCount: 3
Fore
SplineSet
70 356 m 0xf4
 70 556 192 730 368 730 c 0
 431 730 470 708 510 681 c 0
 524 672 535 666 544 666 c 0
 555 666 561 674 566 685 c 2
 583 722 l 9
 616 722 l 25
 616 434 l 25xf4
 585 434 l 17
 540 600 468 698 368 698 c 0
 292 698 240 650 240 506 c 2
 240 206 l 2
 240 62 286 14 350 14 c 0
 422 14 468 85 468 161 c 10
 468 298 l 18
 468 316 462 322 444 322 c 10
 356 322 l 25
 356 354 l 25
 688 354 l 25
 688 322 l 25
 640 322 l 18
 622 322 616 316 616 298 c 10xf8
 616 -13 l 25
 584 -13 l 17
 560 78 l 2
 557 90 549 103 536 103 c 0
 522 103 513 95 505 82 c 0
 481 45 426 -18 350 -18 c 0
 174 -18 70 157 70 356 c 0xf4
EndSplineSet
Layer: 2
SplineSet
70 356 m 0,0,1
 70 430 70 430 92 498.5 c 128,-1,2
 114 567 114 567 153 618 c 128,-1,3
 192 669 192 669 248 699.5 c 128,-1,4
 304 730 304 730 368 730 c 0,5,6
 411 730 411 730 442.5 717.5 c 128,-1,7
 474 705 474 705 510 681 c 0,8,9
 534 666 534 666 544 666 c 0,10,11
 558 666 558 666 566 685 c 2,12,-1
 583 722 l 1,13,-1
 616 722 l 1,14,-1
 616 434 l 1,15,-1
 585 434 l 1,16,17
 550 562 550 562 496 630 c 128,-1,18
 442 698 442 698 368 698 c 0,19,20
 307 698 307 698 273.5 653 c 128,-1,21
 240 608 240 608 240 506 c 2,22,-1
 240 206 l 2,23,24
 240 14 240 14 350 14 c 0,25,26
 402 14 402 14 435 58 c 128,-1,27
 468 102 468 102 468 161 c 2,28,-1
 468 298 l 2,29,30
 468 312 468 312 463 317 c 128,-1,31
 458 322 458 322 444 322 c 2,32,-1
 356 322 l 1,33,-1
 356 354 l 1,34,-1
 688 354 l 1,35,-1
 688 322 l 1,36,-1
 640 322 l 2,37,38
 626 322 626 322 621 317 c 128,-1,39
 616 312 616 312 616 298 c 2,40,-1
 616 -13 l 1,41,-1
 584 -13 l 1,42,-1
 560 78 l 2,43,44
 558 88 558 88 551.5 95.5 c 128,-1,45
 545 103 545 103 536 103 c 0,46,47
 518 103 518 103 505 82 c 0,48,49
 494 66 494 66 480.5 50.5 c 128,-1,50
 467 35 467 35 447.5 18.5 c 128,-1,51
 428 2 428 2 402.5 -8 c 128,-1,52
 377 -18 377 -18 350 -18 c 0,53,54
 286 -18 286 -18 232.5 12.5 c 128,-1,55
 179 43 179 43 143.5 94.5 c 128,-1,56
 108 146 108 146 89 213.5 c 128,-1,57
 70 281 70 281 70 356 c 0,0,1
EndSplineSet
AlternateSubs2: "'aalt' Access All Alternates in Latin lookup 0 subtable" uniA77D
Substitution2: "'ss02' Insular Forms for Old English-1" uniA77D
Substitution2: "'salt' Stylistic Alternatives-1" uniA77D
EndChar

StartChar: H
Encoding: 72 72 40
Width: 824
VWidth: 1039
Flags: W
TeX: 72 0
HStem: 0 32<62 155.438 304.562 398 446 539.438 688.562 782> 356 36<304 540> 680 32<62 155.438 304.562 398 444 539.438 688.562 782>
VStem: 156 148<32.0402 356 392 679.96> 540 148<32.0402 356 392 679.96>
AnchorPoint: "Bottom" 421 0 basechar 0
AnchorPoint: "Top" 421 762 basechar 0
LayerCount: 3
Fore
SplineSet
62 0 m 1
 62 32 l 1
 132 32 l 2
 150 32 156 38 156 56 c 2
 156 656 l 2
 156 674 150 680 132 680 c 2
 62 680 l 1
 62 712 l 1
 398 712 l 1
 398 680 l 1
 328 680 l 2
 310 680 304 674 304 656 c 2
 304 392 l 1
 540 392 l 1
 540 656 l 2
 540 674 534 680 516 680 c 2
 444 680 l 1
 444 712 l 1
 782 712 l 1
 782 680 l 1
 712 680 l 2
 694 680 688 674 688 656 c 2
 688 56 l 2
 688 38 694 32 712 32 c 2
 782 32 l 1
 782 0 l 1
 446 0 l 1
 446 32 l 1
 516 32 l 2
 534 32 540 38 540 56 c 2
 540 356 l 1
 304 356 l 1
 304 56 l 2
 304 38 310 32 328 32 c 2
 398 32 l 1
 398 0 l 1
 62 0 l 1
EndSplineSet
Layer: 2
SplineSet
62 0 m 1,0,-1
 62 32 l 1,1,-1
 132 32 l 2,2,3
 146 32 146 32 151 37 c 128,-1,4
 156 42 156 42 156 56 c 2,5,-1
 156 656 l 2,6,7
 156 670 156 670 151 675 c 128,-1,8
 146 680 146 680 132 680 c 2,9,-1
 62 680 l 1,10,-1
 62 712 l 1,11,-1
 398 712 l 1,12,-1
 398 680 l 1,13,-1
 328 680 l 2,14,15
 314 680 314 680 309 675 c 128,-1,16
 304 670 304 670 304 656 c 2,17,-1
 304 392 l 1,18,-1
 540 392 l 1,19,-1
 540 656 l 2,20,21
 540 670 540 670 535 675 c 128,-1,22
 530 680 530 680 516 680 c 2,23,-1
 444 680 l 1,24,-1
 444 712 l 1,25,-1
 782 712 l 1,26,-1
 782 680 l 1,27,-1
 712 680 l 2,28,29
 698 680 698 680 693 675 c 128,-1,30
 688 670 688 670 688 656 c 2,31,-1
 688 56 l 2,32,33
 688 42 688 42 693 37 c 128,-1,34
 698 32 698 32 712 32 c 2,35,-1
 782 32 l 1,36,-1
 782 0 l 1,37,-1
 446 0 l 1,38,-1
 446 32 l 1,39,-1
 516 32 l 2,40,41
 530 32 530 32 535 37 c 128,-1,42
 540 42 540 42 540 56 c 2,43,-1
 540 356 l 1,44,-1
 304 356 l 1,45,-1
 304 56 l 2,46,47
 304 42 304 42 309 37 c 128,-1,48
 314 32 314 32 328 32 c 2,49,-1
 398 32 l 1,50,-1
 398 0 l 1,51,-1
 62 0 l 1,0,-1
EndSplineSet
EndChar

StartChar: I
Encoding: 73 73 41
Width: 440
VWidth: 1039
Flags: W
TeX: 73 0
HStem: 0 32<62 155.438 304.562 398> 680 32<62 155.438 304.562 398>
VStem: 156 148<32.0402 679.96>
AnchorPoint: "Bottom" 230 0 basechar 0
AnchorPoint: "Top" 230 762 basechar 0
LayerCount: 3
Fore
SplineSet
62 0 m 1
 62 32 l 1
 132 32 l 2
 150 32 156 38 156 56 c 2
 156 656 l 2
 156 674 150 680 132 680 c 2
 62 680 l 1
 62 712 l 1
 398 712 l 1
 398 680 l 1
 328 680 l 2
 310 680 304 674 304 656 c 2
 304 56 l 2
 304 38 310 32 328 32 c 2
 398 32 l 1
 398 0 l 1
 62 0 l 1
EndSplineSet
Layer: 2
SplineSet
62 0 m 1,0,-1
 62 32 l 1,1,-1
 132 32 l 2,2,3
 146 32 146 32 151 37 c 128,-1,4
 156 42 156 42 156 56 c 2,5,-1
 156 656 l 2,6,7
 156 670 156 670 151 675 c 128,-1,8
 146 680 146 680 132 680 c 2,9,-1
 62 680 l 1,10,-1
 62 712 l 1,11,-1
 398 712 l 1,12,-1
 398 680 l 1,13,-1
 328 680 l 2,14,15
 314 680 314 680 309 675 c 128,-1,16
 304 670 304 670 304 656 c 2,17,-1
 304 56 l 2,18,19
 304 42 304 42 309 37 c 128,-1,20
 314 32 314 32 328 32 c 2,21,-1
 398 32 l 1,22,-1
 398 0 l 1,23,-1
 62 0 l 1,0,-1
EndSplineSet
EndChar

StartChar: J
Encoding: 74 74 42
Width: 540
VWidth: 1039
Flags: W
TeX: 74 0
HStem: -18 32<140.586 247.722> 680 32<174 277.438 426.562 512>
VStem: 36 68<64.3007 190> 278 148<98.6251 679.96>
AnchorPoint: "Bottom" 236 0 basechar 0
AnchorPoint: "Top" 348 762 basechar 0
LayerCount: 3
Fore
SplineSet
36 154 m 0
 36 226 82 271 126 271 c 0
 170 271 197 238 197 202 c 0
 197 152 164 128 136 118 c 0
 113 110 104 98 104 76 c 0
 104 50 143 14 202 14 c 0
 255 14 278 56 278 130 c 10
 278 656 l 18
 278 674 272 680 254 680 c 10
 174 680 l 25
 174 712 l 25
 512 712 l 25
 512 680 l 25
 450 680 l 18
 432 680 426 674 426 656 c 10
 426 194 l 18
 426 58 316 -18 214 -18 c 0
 118 -18 36 41 36 154 c 0
EndSplineSet
Layer: 2
SplineSet
36 154 m 0,0,1
 36 206 36 206 63.5 238.5 c 128,-1,2
 91 271 91 271 126 271 c 0,3,4
 158 271 158 271 177.5 250.5 c 128,-1,5
 197 230 197 230 197 202 c 0,6,7
 197 168 197 168 179.5 147.5 c 128,-1,8
 162 127 162 127 136 118 c 0,9,10
 119 112 119 112 111.5 102 c 128,-1,11
 104 92 104 92 104 76 c 0,12,13
 104 54 104 54 132 34 c 128,-1,14
 160 14 160 14 202 14 c 0,15,16
 278 14 278 14 278 130 c 2,17,-1
 278 656 l 2,18,19
 278 670 278 670 273 675 c 128,-1,20
 268 680 268 680 254 680 c 2,21,-1
 174 680 l 1,22,-1
 174 712 l 1,23,-1
 512 712 l 1,24,-1
 512 680 l 1,25,-1
 450 680 l 2,26,27
 436 680 436 680 431 675 c 128,-1,28
 426 670 426 670 426 656 c 2,29,-1
 426 194 l 2,30,31
 426 145 426 145 407 103.5 c 128,-1,32
 388 62 388 62 358 36 c 128,-1,33
 328 10 328 10 290.5 -4 c 128,-1,34
 253 -18 253 -18 214 -18 c 0,35,36
 165 -18 165 -18 125.5 1 c 128,-1,37
 86 20 86 20 61 60 c 128,-1,38
 36 100 36 100 36 154 c 0,0,1
EndSplineSet
EndChar

StartChar: K
Encoding: 75 75 43
Width: 770
VWidth: 1039
Flags: W
TeX: 75 0
HStem: 0 32<62 155.438 304.562 390 436 496.364 681.07 750> 680 32<62 155.438 304.562 390 457 514.975 623.375 704>
VStem: 156 148<32.0402 305 360 679.96>
DStem2: 304 360 347 354 0.655373 0.755306<0 23.6492 183.855 352.069> 452 475 347 354 0.46748 -0.884003<57.879 393.832>
AnchorPoint: "Bottom" 414 0 basechar 0
AnchorPoint: "Top" 414 762 basechar 0
LayerCount: 3
Fore
SplineSet
62 0 m 1
 62 32 l 1
 132 32 l 2
 150 32 156 38 156 56 c 2
 156 656 l 2
 156 674 150 680 132 680 c 2
 62 680 l 1
 62 712 l 1
 390 712 l 1
 390 680 l 1
 328 680 l 2
 310 680 304 674 304 656 c 2
 304 360 l 1
 497 584 l 2
 514 604 522 616 522 638 c 0
 522 662 508 680 486 680 c 2
 457 680 l 1
 457 712 l 1
 704 712 l 1
 704 680 l 1
 669 680 l 2
 638 680 606 654 586 630 c 2
 452 475 l 1
 663 76 l 2
 679 45 690 32 723 32 c 2
 750 32 l 1
 750 0 l 1
 436 0 l 1
 436 32 l 1
 476 32 l 2
 488 32 497 42 497 53 c 0
 497 59 495 72 492 78 c 2
 347 354 l 1
 304 305 l 1
 304 56 l 2
 304 38 310 32 328 32 c 2
 390 32 l 1
 390 0 l 1
 62 0 l 1
EndSplineSet
Layer: 2
SplineSet
62 0 m 1,0,-1
 62 32 l 1,1,-1
 132 32 l 2,2,3
 146 32 146 32 151 37 c 128,-1,4
 156 42 156 42 156 56 c 2,5,-1
 156 656 l 2,6,7
 156 670 156 670 151 675 c 128,-1,8
 146 680 146 680 132 680 c 2,9,-1
 62 680 l 1,10,-1
 62 712 l 1,11,-1
 390 712 l 1,12,-1
 390 680 l 1,13,-1
 328 680 l 2,14,15
 314 680 314 680 309 675 c 128,-1,16
 304 670 304 670 304 656 c 2,17,-1
 304 360 l 1,18,-1
 497 584 l 2,19,20
 511 600 511 600 516.5 611 c 128,-1,21
 522 622 522 622 522 638 c 0,22,23
 522 656 522 656 512 668 c 128,-1,24
 502 680 502 680 486 680 c 2,25,-1
 457 680 l 1,26,-1
 457 712 l 1,27,-1
 704 712 l 1,28,-1
 704 680 l 1,29,-1
 669 680 l 2,30,31
 648 680 648 680 625.5 665 c 128,-1,32
 603 650 603 650 586 630 c 2,33,-1
 452 475 l 1,34,-1
 663 76 l 2,35,36
 676 51 676 51 688 41.5 c 128,-1,37
 700 32 700 32 723 32 c 2,38,-1
 750 32 l 1,39,-1
 750 0 l 1,40,-1
 436 0 l 1,41,-1
 436 32 l 1,42,-1
 476 32 l 2,43,44
 485 32 485 32 491 38 c 128,-1,45
 497 44 497 44 497 53 c 0,46,47
 497 68 497 68 492 78 c 2,48,-1
 347 354 l 1,49,-1
 304 305 l 1,50,-1
 304 56 l 2,51,52
 304 42 304 42 309 37 c 128,-1,53
 314 32 314 32 328 32 c 2,54,-1
 390 32 l 1,55,-1
 390 0 l 1,56,-1
 62 0 l 1,0,-1
EndSplineSet
EndChar

StartChar: L
Encoding: 76 76 44
Width: 670
VWidth: 1039
Flags: W
TeX: 76 0
HStem: 0 32<62 154.934 305.066 478.331> 680 32<62 155.438 304.562 398>
VStem: 156 148<32.0593 679.96> 604 32<239.668 308>
AnchorPoint: "Bottom" 372 0 basechar 0
AnchorPoint: "Top" 230 762 basechar 0
LayerCount: 3
Fore
SplineSet
62 0 m 1
 62 32 l 1
 132 32 l 2
 150 32 156 41 156 59 c 2
 156 656 l 2
 156 674 150 680 132 680 c 2
 62 680 l 1
 62 712 l 1
 398 712 l 1
 398 680 l 1
 328 680 l 2
 310 680 304 674 304 656 c 2
 304 59 l 2
 304 41 310 32 328 32 c 2
 429 32 l 2
 511 32 562 151 579 206 c 0
 590 243 604 308 604 308 c 1
 636 308 l 1
 628 0 l 1
 62 0 l 1
EndSplineSet
Layer: 2
SplineSet
62 0 m 1,0,-1
 62 32 l 1,1,-1
 132 32 l 2,2,3
 145 32 145 32 150.5 38.5 c 128,-1,4
 156 45 156 45 156 59 c 2,5,-1
 156 656 l 2,6,7
 156 670 156 670 151 675 c 128,-1,8
 146 680 146 680 132 680 c 2,9,-1
 62 680 l 1,10,-1
 62 712 l 1,11,-1
 398 712 l 1,12,-1
 398 680 l 1,13,-1
 328 680 l 2,14,15
 314 680 314 680 309 675 c 128,-1,16
 304 670 304 670 304 656 c 2,17,-1
 304 59 l 2,18,19
 304 45 304 45 309.5 38.5 c 128,-1,20
 315 32 315 32 328 32 c 2,21,-1
 429 32 l 2,22,23
 452 32 452 32 474 45 c 128,-1,24
 496 58 496 58 512 77 c 128,-1,25
 528 96 528 96 542 121 c 128,-1,26
 556 146 556 146 564.5 166.5 c 128,-1,27
 573 187 573 187 579 206 c 0,28,29
 584 222 584 222 590 248 c 128,-1,30
 596 274 596 274 600 291 c 2,31,-1
 604 308 l 1,32,-1
 636 308 l 1,33,-1
 628 0 l 1,34,-1
 62 0 l 1,0,-1
EndSplineSet
EndChar

StartChar: M
Encoding: 77 77 45
Width: 890
VWidth: 1039
Flags: W
TeX: 77 0
HStem: -12 21G<395.568 447.463> 0 32<48 111.896 232.104 296 522 615.438 764.562 858> 680 32<48 151.438 764.562 858>
VStem: 152 40<65.3984 537> 616 148<32.0402 625>
DStem2: 287 712 199 537 0.348315 -0.937378<133.389 524.931> 470 220 442 -12 0.263502 0.964659<0 429.158>
AnchorPoint: "Bottom" 418 0 basechar 0
AnchorPoint: "Top" 448 762 basechar 0
LayerCount: 3
Fore
SplineSet
48 0 m 25x78
 48 32 l 17
 100 32 152 58 152 122 c 10
 152 656 l 18
 152 674 146 680 128 680 c 10
 48 680 l 25
 48 712 l 25
 287 712 l 25
 470 220 l 25
 604 712 l 25
 858 712 l 25
 858 680 l 25
 788 680 l 18
 770 680 764 674 764 656 c 10
 764 56 l 18
 764 38 770 32 788 32 c 2
 858 32 l 1
 858 0 l 1
 522 0 l 1
 522 32 l 1
 592 32 l 2x78
 610 32 616 38 616 56 c 10
 616 625 l 17
 442 -12 l 25
 403 -12 l 17xb8
 199 537 l 1
 192 537 l 9
 192 122 l 18
 192 58 244 32 296 32 c 1
 296 0 l 25
 48 0 l 25x78
EndSplineSet
Layer: 2
SplineSet
48 0 m 1,0,-1
 48 32 l 1,1,2
 92 32 92 32 122 54.5 c 128,-1,3
 152 77 152 77 152 122 c 2,4,-1
 152 656 l 2,5,6
 152 670 152 670 147 675 c 128,-1,7
 142 680 142 680 128 680 c 2,8,-1
 48 680 l 1,9,-1
 48 712 l 1,10,-1
 287 712 l 1,11,-1
 470 220 l 1,12,-1
 604 712 l 1,13,-1
 858 712 l 1,14,-1
 858 680 l 1,15,-1
 788 680 l 2,16,17
 774 680 774 680 769 675 c 128,-1,18
 764 670 764 670 764 656 c 2,19,-1
 764 56 l 2,20,21
 764 42 764 42 769 37 c 128,-1,22
 774 32 774 32 788 32 c 2,23,-1
 858 32 l 1,24,-1
 858 0 l 1,25,-1
 522 0 l 1,26,-1
 522 32 l 1,27,-1
 592 32 l 2,28,29
 606 32 606 32 611 37 c 128,-1,30
 616 42 616 42 616 56 c 2,31,-1
 616 625 l 1,32,-1
 442 -12 l 1,33,-1
 403 -12 l 1,34,-1
 199 537 l 1,35,-1
 192 537 l 1,36,-1
 192 122 l 2,37,38
 192 77 192 77 222 54.5 c 128,-1,39
 252 32 252 32 296 32 c 1,40,-1
 296 0 l 1,41,-1
 48 0 l 1,0,-1
EndSplineSet
EndChar

StartChar: N
Encoding: 78 78 46
Width: 764
VWidth: 1039
Flags: W
TeX: 78 0
HStem: -18 21G<578.019 630> 0 32<48 116.98 271.02 340> 680 32<48 115.026 464 532.98 687.02 756>
VStem: 174 40<77.9264 517> 590 40<255 634.074>
DStem2: 270 712 218 517 0.573583 -0.819148<0 83.3848 129.908 557.897>
AnchorPoint: "Bottom" 418 0 basechar 0
AnchorPoint: "Top" 418 762 basechar 0
LayerCount: 3
Fore
SplineSet
48 0 m 25x78
 48 32 l 17x78
 120 32 174 74 174 136 c 10
 174 563 l 18
 174 578 172 581 163 594 c 2
 123 654 l 2
 110 673 98 680 66 680 c 10
 48 680 l 25
 48 712 l 25
 270 712 l 25
 590 255 l 25
 590 576 l 18
 590 638 536 680 464 680 c 9
 464 712 l 25
 756 712 l 25
 756 680 l 17
 684 680 630 638 630 576 c 10
 630 -18 l 25
 592 -18 l 17xb8
 218 517 l 1
 214 517 l 9
 214 136 l 18
 214 74 268 32 340 32 c 9
 340 0 l 25
 48 0 l 25x78
EndSplineSet
Layer: 2
SplineSet
48 0 m 1,0,-1
 48 32 l 1,1,2
 102 32 102 32 138 61 c 128,-1,3
 174 90 174 90 174 136 c 2,4,-1
 174 563 l 2,5,6
 174 574 174 574 172 579 c 128,-1,7
 170 584 170 584 163 594 c 2,8,-1
 123 654 l 2,9,10
 113 668 113 668 101.5 674 c 128,-1,11
 90 680 90 680 66 680 c 2,12,-1
 48 680 l 1,13,-1
 48 712 l 1,14,-1
 270 712 l 1,15,-1
 590 255 l 1,16,-1
 590 576 l 2,17,18
 590 622 590 622 554 651 c 128,-1,19
 518 680 518 680 464 680 c 1,20,-1
 464 712 l 1,21,-1
 756 712 l 1,22,-1
 756 680 l 1,23,24
 702 680 702 680 666 651 c 128,-1,25
 630 622 630 622 630 576 c 2,26,-1
 630 -18 l 1,27,-1
 592 -18 l 1,28,-1
 218 517 l 1,29,-1
 214 517 l 1,30,-1
 214 136 l 2,31,32
 214 90 214 90 250 61 c 128,-1,33
 286 32 286 32 340 32 c 1,34,-1
 340 0 l 1,35,-1
 48 0 l 1,0,-1
EndSplineSet
EndChar

StartChar: O
Encoding: 79 79 47
Width: 712
VWidth: 1039
Flags: W
TeX: 79 0
HStem: -18 32<305.509 426.491> 698 32<305.509 426.491>
VStem: 70 170<224.862 487.138> 492 170<224.862 487.138>
AnchorPoint: "Bottom" 366 0 basechar 0
AnchorPoint: "Top" 366 762 basechar 0
LayerCount: 3
Fore
SplineSet
70 356 m 0
 70 548 208 730 366 730 c 0
 524 730 662 548 662 356 c 0
 662 164 524 -18 366 -18 c 0
 208 -18 70 164 70 356 c 0
240 206 m 2
 240 62 290 14 366 14 c 0
 442 14 492 62 492 206 c 2
 492 506 l 2
 492 650 442 698 366 698 c 0
 290 698 240 650 240 506 c 2
 240 206 l 2
EndSplineSet
Layer: 2
SplineSet
70 356 m 128,-1,1
 70 426 70 426 94 495 c 128,-1,2
 118 564 118 564 158 615 c 128,-1,3
 198 666 198 666 253 698 c 128,-1,4
 308 730 308 730 366 730 c 128,-1,5
 424 730 424 730 479 698 c 128,-1,6
 534 666 534 666 574 615 c 128,-1,7
 614 564 614 564 638 495 c 128,-1,8
 662 426 662 426 662 356 c 128,-1,9
 662 286 662 286 638 217 c 128,-1,10
 614 148 614 148 574 97 c 128,-1,11
 534 46 534 46 479 14 c 128,-1,12
 424 -18 424 -18 366 -18 c 128,-1,13
 308 -18 308 -18 253 14 c 128,-1,14
 198 46 198 46 158 97 c 128,-1,15
 118 148 118 148 94 217 c 128,-1,0
 70 286 70 286 70 356 c 128,-1,1
240 206 m 2,16,17
 240 103 240 103 273 58.5 c 128,-1,18
 306 14 306 14 366 14 c 128,-1,19
 426 14 426 14 459 58.5 c 128,-1,20
 492 103 492 103 492 206 c 2,21,-1
 492 506 l 2,22,23
 492 609 492 609 459 653.5 c 128,-1,24
 426 698 426 698 366 698 c 128,-1,25
 306 698 306 698 273 653.5 c 128,-1,26
 240 609 240 609 240 506 c 2,27,-1
 240 206 l 2,16,17
EndSplineSet
EndChar

StartChar: P
Encoding: 80 80 48
Width: 702
VWidth: 1039
Flags: W
TeX: 80 0
HStem: 0 32<62 155.438 304.562 416> 336 32<304 450.45> 680 32<62 155.438 304.562 450.45>
VStem: 156 148<32.0402 336 368 679.96> 498 160<444.687 606.418>
AnchorPoint: "Top" 316 762 basechar 0
LayerCount: 3
Fore
SplineSet
62 0 m 1
 62 32 l 1
 132 32 l 2
 150 32 156 38 156 56 c 2
 156 656 l 2
 156 674 150 680 132 680 c 2
 62 680 l 1
 62 712 l 1
 418 712 l 2
 560 712 658 636 658 526 c 0
 658 416 560 336 418 336 c 2
 304 336 l 1
 304 56 l 2
 304 38 310 32 328 32 c 10
 416 32 l 25
 416 0 l 25
 62 0 l 1
304 368 m 1
 403 368 l 2
 478 368 498 438 498 526 c 0
 498 614 478 680 403 680 c 2
 328 680 l 2
 310 680 304 674 304 656 c 2
 304 368 l 1
EndSplineSet
Layer: 2
SplineSet
62 0 m 1,0,-1
 62 32 l 1,1,-1
 132 32 l 2,2,3
 146 32 146 32 151 37 c 128,-1,4
 156 42 156 42 156 56 c 2,5,-1
 156 656 l 2,6,7
 156 670 156 670 151 675 c 128,-1,8
 146 680 146 680 132 680 c 2,9,-1
 62 680 l 1,10,-1
 62 712 l 1,11,-1
 418 712 l 2,12,13
 524 712 524 712 591 660 c 128,-1,14
 658 608 658 608 658 526 c 0,15,16
 658 443 658 443 591 389.5 c 128,-1,17
 524 336 524 336 418 336 c 2,18,-1
 304 336 l 1,19,-1
 304 56 l 2,20,21
 304 42 304 42 309 37 c 128,-1,22
 314 32 314 32 328 32 c 2,23,-1
 416 32 l 1,24,-1
 416 0 l 1,25,-1
 62 0 l 1,0,-1
304 368 m 1,26,-1
 403 368 l 2,27,28
 430 368 430 368 449 380 c 128,-1,29
 468 392 468 392 478.5 414.5 c 128,-1,30
 489 437 489 437 493.5 464 c 128,-1,31
 498 491 498 491 498 526 c 0,32,33
 498 599 498 599 477 639.5 c 128,-1,34
 456 680 456 680 403 680 c 2,35,-1
 328 680 l 2,36,37
 314 680 314 680 309 675 c 128,-1,38
 304 670 304 670 304 656 c 2,39,-1
 304 368 l 1,26,-1
EndSplineSet
EndChar

StartChar: Q
Encoding: 81 81 49
Width: 712
VWidth: 1039
Flags: W
TeX: 81 0
HStem: -238 128<504.337 598.692> -18 32<318.939 418.396> 133 33<317.542 396.972> 698 32<305.509 426.491>
VStem: 70 170<226.099 487.138> 274 28<55.9753 114.476> 492 170<222.708 487.138> 634 32<-69.0974 56>
LayerCount: 3
Fore
SplineSet
70 356 m 0xfd
 70 548 208 730 366 730 c 0
 524 730 662 548 662 356 c 0xfe
 662 210 582 68 471 9 c 1
 476 -64 502 -110 555 -110 c 0
 611 -110 634 -55 634 8 c 0
 634 24 633 38 631 56 c 1
 661 56 l 1
 664 37 666 6 666 -21 c 0
 666 -62 664 -118 642 -164 c 0
 621 -208 581 -238 532 -238 c 0
 475 -238 415 -192 415 -110 c 0
 415 -94 415 -48 419 -11 c 1
 402 -16 382 -18 367 -18 c 0
 205 -18 70 167 70 356 c 0xfd
240 206 m 2
 240 130 255 82 275 55 c 1
 277 56 l 1
 275 64 274 69 274 80 c 0
 274 121 304 166 362 166 c 0
 420 166 456 122 464 71 c 1
 467 71 l 1
 485 107 492 149 492 206 c 2
 492 506 l 2
 492 650 442 698 366 698 c 0
 290 698 240 650 240 506 c 2
 240 206 l 2
302 75 m 0
 302 42 315 25 332 18 c 0
 338 15 354 14 366 14 c 0
 384 14 404 18 421 25 c 1
 421 78 415 133 351 133 c 0
 322 133 302 103 302 75 c 0
EndSplineSet
Layer: 2
SplineSet
70 356 m 0,0,1
 70 426 70 426 94 495 c 128,-1,2
 118 564 118 564 158 615 c 128,-1,3
 198 666 198 666 253 698 c 128,-1,4
 308 730 308 730 366 730 c 128,-1,5
 424 730 424 730 479 698 c 128,-1,6
 534 666 534 666 574 615 c 128,-1,7
 614 564 614 564 638 495 c 128,-1,8
 662 426 662 426 662 356 c 0,9,10
 662 247 662 247 608 150.5 c 128,-1,11
 554 54 554 54 471 9 c 1,12,13
 479 -110 479 -110 555 -110 c 0,14,15
 594 -110 594 -110 614 -76.5 c 128,-1,16
 634 -43 634 -43 634 8 c 0,17,18
 634 29 634 29 631 56 c 1,19,-1
 661 56 l 1,20,21
 666 24 666 24 666 -21 c 0,22,23
 666 -114 666 -114 642 -164 c 0,24,25
 626 -198 626 -198 597 -218 c 128,-1,26
 568 -238 568 -238 532 -238 c 0,27,28
 486 -238 486 -238 450.5 -203 c 128,-1,29
 415 -168 415 -168 415 -110 c 0,30,31
 415 -48 415 -48 419 -11 c 1,32,33
 395 -18 395 -18 367 -18 c 0,34,35
 288 -18 288 -18 219 36 c 128,-1,36
 150 90 150 90 110 176 c 128,-1,37
 70 262 70 262 70 356 c 0,0,1
240 206 m 2,38,39
 240 102 240 102 275 55 c 1,40,-1
 277 56 l 1,41,42
 274 68 274 68 274 80 c 0,43,44
 274 114 274 114 297.5 140 c 128,-1,45
 321 166 321 166 362 166 c 0,46,47
 404 166 404 166 431 139 c 128,-1,48
 458 112 458 112 464 71 c 1,49,-1
 467 71 l 1,50,51
 492 121 492 121 492 206 c 2,52,-1
 492 506 l 2,53,54
 492 609 492 609 459 653.5 c 128,-1,55
 426 698 426 698 366 698 c 128,-1,56
 306 698 306 698 273 653.5 c 128,-1,57
 240 609 240 609 240 506 c 2,58,-1
 240 206 l 2,38,39
302 75 m 0,59,60
 302 30 302 30 332 18 c 0,61,62
 340 14 340 14 366 14 c 0,63,64
 394 14 394 14 421 25 c 1,65,66
 421 44 421 44 420 57 c 128,-1,67
 419 70 419 70 414.5 85.5 c 128,-1,68
 410 101 410 101 403 110.5 c 128,-1,69
 396 120 396 120 383 126.5 c 128,-1,70
 370 133 370 133 351 133 c 0,71,72
 330 133 330 133 316 115 c 128,-1,73
 302 97 302 97 302 75 c 0,59,60
EndSplineSet
EndChar

StartChar: R
Encoding: 82 82 50
Width: 730
VWidth: 1039
Flags: W
TeX: 82 0
HStem: -24 56<559.54 660.646> 0 32<62 155.438 304.562 416> 364 32<304 412.69> 680 32<62 155.438 304.562 424.733>
VStem: 156 148<32.0402 364 396 679.96> 456 148<36.6751 283.539> 466 160<459.629 614.788> 682 32<64.5591 180>
AnchorPoint: "Bottom" 400 0 basechar 0
AnchorPoint: "Top" 332 762 basechar 0
LayerCount: 3
Fore
SplineSet
304 396 m 1x3b
 371 396 l 2
 446 396 466 460 466 544 c 0
 466 628 446 680 371 680 c 2
 328 680 l 2
 310 680 304 674 304 656 c 2
 304 396 l 1x3b
62 0 m 1x7d
 62 32 l 1
 132 32 l 2
 150 32 156 38 156 56 c 2
 156 656 l 2
 156 674 150 680 132 680 c 2
 62 680 l 1
 62 712 l 1
 386 712 l 2
 528 712 626 646 626 536 c 0x7b
 626 440 546 389 442 377 c 1
 442 370 l 1
 536 353 604 310 604 185 c 2
 604 74 l 2
 604 44 614 32 632 32 c 0
 670 32 682 109 682 180 c 1
 714 180 l 1
 714 64 691 -24 595 -24 c 0xbd
 513 -24 456 24 456 126 c 2
 456 250 l 2
 456 308 430 364 360 364 c 2
 304 364 l 1
 304 56 l 2
 304 38 310 32 328 32 c 2
 416 32 l 1
 416 0 l 1
 62 0 l 1x7d
EndSplineSet
Layer: 2
SplineSet
304 396 m 1,0,-1
 371 396 l 2,1,2
 398 396 398 396 417 407 c 128,-1,3
 436 418 436 418 446.5 439 c 128,-1,4
 457 460 457 460 461.5 485 c 128,-1,5
 466 510 466 510 466 544 c 0,6,7
 466 612 466 612 445 646 c 128,-1,8
 424 680 424 680 371 680 c 2,9,-1
 328 680 l 2,10,11
 314 680 314 680 309 675 c 128,-1,12
 304 670 304 670 304 656 c 2,13,-1
 304 396 l 1,0,-1
62 0 m 1,14,-1
 62 32 l 1,15,-1
 132 32 l 2,16,17
 146 32 146 32 151 37 c 128,-1,18
 156 42 156 42 156 56 c 2,19,-1
 156 656 l 2,20,21
 156 670 156 670 151 675 c 128,-1,22
 146 680 146 680 132 680 c 2,23,-1
 62 680 l 1,24,-1
 62 712 l 1,25,-1
 386 712 l 2,26,27
 494 712 494 712 560 665 c 128,-1,28
 626 618 626 618 626 536 c 0,29,30
 626 467 626 467 575 426.5 c 128,-1,31
 524 386 524 386 442 377 c 1,32,-1
 442 370 l 1,33,34
 480 363 480 363 507.5 351 c 128,-1,35
 535 339 535 339 557.5 318.5 c 128,-1,36
 580 298 580 298 592 264 c 128,-1,37
 604 230 604 230 604 185 c 2,38,-1
 604 74 l 2,39,40
 604 32 604 32 632 32 c 0,41,42
 658 32 658 32 670 75 c 128,-1,43
 682 118 682 118 682 180 c 1,44,-1
 714 180 l 1,45,46
 714 143 714 143 711 114 c 128,-1,47
 708 85 708 85 700 58.5 c 128,-1,48
 692 32 692 32 679 14 c 128,-1,49
 666 -4 666 -4 644.5 -14 c 128,-1,50
 623 -24 623 -24 595 -24 c 0,51,52
 531 -24 531 -24 493.5 14 c 128,-1,53
 456 52 456 52 456 126 c 2,54,-1
 456 250 l 2,55,56
 456 298 456 298 432.5 331 c 128,-1,57
 409 364 409 364 360 364 c 2,58,-1
 304 364 l 1,59,-1
 304 56 l 2,60,61
 304 42 304 42 309 37 c 128,-1,62
 314 32 314 32 328 32 c 2,63,-1
 416 32 l 1,64,-1
 416 0 l 1,65,-1
 62 0 l 1,14,-1
EndSplineSet
EndChar

StartChar: S
Encoding: 83 83 51
Width: 620
VWidth: 1039
Flags: W
TeX: 83 0
HStem: -18 32<290.799 430.895> 698 32<210.469 343.014>
VStem: 92 84<501.906 635.568> 96 31<-10 2.8 231.106 306> 490 80<95.5957 221.5> 494 32<685 712> 504 32<452 496.103>
DStem2: 265 499 204 356 0.83978 -0.542927<-83.2331 340.292>
AnchorPoint: "Bottom" 334 0 basechar 0
AnchorPoint: "Top" 298 762 basechar 0
LayerCount: 3
Fore
SplineSet
90 306 m 25xd8
 122 306 l 17
 150 159 239 14 353 14 c 0
 473 14 490 86 490 128 c 0xd8
 490 165 458 192 418 218 c 10
 204 356 l 18
 154 388 92 446 92 538 c 0
 92 676 188 730 288 730 c 0
 354 730 410 694 430 680 c 0
 443 670 456 662 466 662 c 0
 479 662 486 672 488 685 c 2
 494 712 l 9
 526 712 l 25xe4
 536 452 l 25
 504 452 l 17
 467 590 378 698 280 698 c 0
 209 698 176 670 176 614 c 0xe2
 176 568 219 529 265 499 c 10
 480 360 l 18
 535 324 570 255 570 188 c 0
 570 89 500 -18 347 -18 c 0
 283 -18 237 4 210 26 c 0
 184 46 171 56 158 56 c 0
 144 56 135 44 132 22 c 2
 127 -10 l 9
 96 -10 l 25
 90 306 l 25xd8
EndSplineSet
Layer: 2
SplineSet
90 306 m 1,0,-1
 122 306 l 1,1,2
 132 250 132 250 154 198 c 128,-1,3
 176 146 176 146 205 105 c 128,-1,4
 234 64 234 64 273 39 c 128,-1,5
 312 14 312 14 353 14 c 0,6,7
 388 14 388 14 413.5 22 c 128,-1,8
 439 30 439 30 453.5 42 c 128,-1,9
 468 54 468 54 476.5 70 c 128,-1,10
 485 86 485 86 487.5 100 c 128,-1,11
 490 114 490 114 490 128 c 0,12,13
 490 154 490 154 471 175 c 128,-1,14
 452 196 452 196 418 218 c 2,15,-1
 204 356 l 2,16,17
 92 428 92 428 92 538 c 0,18,19
 92 588 92 588 108 626 c 128,-1,20
 124 664 124 664 152.5 686 c 128,-1,21
 181 708 181 708 215 719 c 128,-1,22
 249 730 249 730 288 730 c 0,23,24
 358 730 358 730 430 680 c 0,25,26
 454 662 454 662 466 662 c 0,27,28
 484 662 484 662 488 685 c 2,29,-1
 494 712 l 1,30,-1
 526 712 l 1,31,-1
 536 452 l 1,32,-1
 504 452 l 1,33,34
 476 558 476 558 414 628 c 128,-1,35
 352 698 352 698 280 698 c 0,36,37
 176 698 176 698 176 614 c 0,38,39
 176 557 176 557 265 499 c 2,40,-1
 480 360 l 2,41,42
 521 333 521 333 545.5 285.5 c 128,-1,43
 570 238 570 238 570 188 c 0,44,45
 570 150 570 150 556 114 c 128,-1,46
 542 78 542 78 516 48 c 128,-1,47
 490 18 490 18 446 0 c 128,-1,48
 402 -18 402 -18 347 -18 c 0,49,50
 264 -18 264 -18 210 26 c 0,51,52
 188 44 188 44 177.5 50 c 128,-1,53
 167 56 167 56 158 56 c 0,54,55
 136 56 136 56 132 22 c 2,56,-1
 127 -10 l 1,57,-1
 96 -10 l 1,58,-1
 90 306 l 1,0,-1
EndSplineSet
EndChar

StartChar: T
Encoding: 84 84 52
Width: 716
VWidth: 1039
Flags: W
TeX: 84 0
HStem: 0 32<190 293.438 442.562 546> 680 32<209.047 289.438 446.562 526.953>
VStem: 60 32<414 489.256> 294 148<32.0402 677.781> 644 32<414 489.256>
CounterMasks: 1 38
AnchorPoint: "Bottom" 368 0 basechar 0
AnchorPoint: "Top" 368 762 basechar 0
LayerCount: 3
Fore
SplineSet
60 414 m 1
 68 712 l 9
 668 712 l 17
 676 414 l 1
 644 414 l 1
 644 414 640 448 623 508 c 0
 600 590 547 680 479 680 c 0
 457 680 442 668 442 646 c 2
 442 56 l 2
 442 38 448 32 466 32 c 2
 546 32 l 1
 546 0 l 1
 190 0 l 1
 190 32 l 1
 270 32 l 2
 288 32 294 38 294 56 c 2
 294 646 l 2
 294 668 279 680 257 680 c 0
 189 680 136 590 113 508 c 0
 96 448 92 414 92 414 c 1
 60 414 l 1
EndSplineSet
Layer: 2
SplineSet
60 414 m 1,0,-1
 68 712 l 1,1,-1
 668 712 l 1,2,-1
 676 414 l 1,3,-1
 644 414 l 1,4,5
 640 448 640 448 623 508 c 0,6,7
 610 552 610 552 590.5 589.5 c 128,-1,8
 571 627 571 627 541 653.5 c 128,-1,9
 511 680 511 680 479 680 c 0,10,11
 462 680 462 680 452 671 c 128,-1,12
 442 662 442 662 442 646 c 2,13,-1
 442 56 l 2,14,15
 442 42 442 42 447 37 c 128,-1,16
 452 32 452 32 466 32 c 2,17,-1
 546 32 l 1,18,-1
 546 0 l 1,19,-1
 190 0 l 1,20,-1
 190 32 l 1,21,-1
 270 32 l 2,22,23
 284 32 284 32 289 37 c 128,-1,24
 294 42 294 42 294 56 c 2,25,-1
 294 646 l 2,26,27
 294 662 294 662 284 671 c 128,-1,28
 274 680 274 680 257 680 c 0,29,30
 225 680 225 680 195 653.5 c 128,-1,31
 165 627 165 627 145.5 589.5 c 128,-1,32
 126 552 126 552 113 508 c 0,33,34
 106 482 106 482 100.5 458 c 128,-1,35
 95 434 95 434 94 424 c 2,36,-1
 92 414 l 1,37,-1
 60 414 l 1,0,-1
EndSplineSet
EndChar

StartChar: U
Encoding: 85 85 53
Width: 794
VWidth: 1039
Flags: W
TeX: 85 0
HStem: -18 40<366.728 524.542> 680 32<68 155.438 304.562 392 514 577.896 698.104 762>
VStem: 156 148<126.121 679.96> 618 40<114.914 646.602>
AnchorPoint: "Bottom" 430 0 basechar 0
AnchorPoint: "Top" 430 762 basechar 0
LayerCount: 3
Fore
SplineSet
68 680 m 1
 68 712 l 1
 392 712 l 1
 392 680 l 1
 328 680 l 2
 310 680 304 674 304 656 c 2
 304 198 l 2
 304 75 350 22 447 22 c 0
 547 22 618 102 618 198 c 10
 618 590 l 18
 618 654 566 680 514 680 c 1
 514 712 l 25
 762 712 l 25
 762 680 l 17
 710 680 658 654 658 590 c 10
 658 208 l 18
 658 83 570 -18 419 -18 c 0
 229 -18 156 108 156 237 c 2
 156 656 l 2
 156 674 150 680 132 680 c 2
 68 680 l 1
EndSplineSet
Layer: 2
SplineSet
68 680 m 1,0,-1
 68 712 l 1,1,-1
 392 712 l 1,2,-1
 392 680 l 1,3,-1
 328 680 l 2,4,5
 314 680 314 680 309 675 c 128,-1,6
 304 670 304 670 304 656 c 2,7,-1
 304 198 l 2,8,9
 304 106 304 106 339 64 c 128,-1,10
 374 22 374 22 447 22 c 0,11,12
 521 22 521 22 569.5 73.5 c 128,-1,13
 618 125 618 125 618 198 c 2,14,-1
 618 590 l 2,15,16
 618 635 618 635 588 657.5 c 128,-1,17
 558 680 558 680 514 680 c 1,18,-1
 514 712 l 1,19,-1
 762 712 l 1,20,-1
 762 680 l 1,21,22
 718 680 718 680 688 657.5 c 128,-1,23
 658 635 658 635 658 590 c 2,24,-1
 658 208 l 2,25,26
 658 111 658 111 593.5 46.5 c 128,-1,27
 529 -18 529 -18 419 -18 c 0,28,29
 364 -18 364 -18 319 -4 c 128,-1,30
 274 10 274 10 244 34 c 128,-1,31
 214 58 214 58 194 91 c 128,-1,32
 174 124 174 124 165 160.5 c 128,-1,33
 156 197 156 197 156 237 c 2,34,-1
 156 656 l 2,35,36
 156 670 156 670 151 675 c 128,-1,37
 146 680 146 680 132 680 c 2,38,-1
 68 680 l 1,0,-1
EndSplineSet
EndChar

StartChar: V
Encoding: 86 86 54
Width: 772
VWidth: 1039
Flags: W
TeX: 86 0
HStem: -18 21G<376.938 432.491> 680 32<46 132.762 311.33 393 480 568.834 670.432 750>
DStem2: 461 212 384 -18 0.332974 -0.942936<-468.066 0> 461 212 426 -18 0.308696 0.951161<0 425.939>
AnchorPoint: "Bottom" 392 0 basechar 0
AnchorPoint: "Top" 416 762 basechar 0
LayerCount: 3
Fore
SplineSet
46 680 m 1
 46 712 l 1
 393 712 l 1
 393 680 l 1
 343 680 l 2
 324 680 309 669 309 655 c 0
 309 649 310 641 313 633 c 2
 461 212 l 1
 576 569 l 2
 579 578 586 604 586 620 c 0
 586 644 571 680 530 680 c 2
 480 680 l 1
 480 712 l 1
 750 712 l 1
 750 680 l 1
 719 680 l 2
 668 680 639 639 623 589 c 2
 426 -18 l 1
 384 -18 l 1
 158 622 l 2
 143 666 123 680 79 680 c 2
 46 680 l 1
EndSplineSet
Layer: 2
SplineSet
46 680 m 1,0,-1
 46 712 l 1,1,-1
 393 712 l 1,2,-1
 393 680 l 1,3,-1
 343 680 l 2,4,5
 328 680 328 680 318.5 673 c 128,-1,6
 309 666 309 666 309 655 c 128,-1,7
 309 644 309 644 313 633 c 2,8,-1
 461 212 l 1,9,-1
 576 569 l 2,10,11
 586 599 586 599 586 620 c 0,12,13
 586 642 586 642 572 661 c 128,-1,14
 558 680 558 680 530 680 c 2,15,-1
 480 680 l 1,16,-1
 480 712 l 1,17,-1
 750 712 l 1,18,-1
 750 680 l 1,19,-1
 719 680 l 2,20,21
 652 680 652 680 623 589 c 2,22,-1
 426 -18 l 1,23,-1
 384 -18 l 1,24,-1
 158 622 l 2,25,26
 147 655 147 655 129.5 667.5 c 128,-1,27
 112 680 112 680 79 680 c 2,28,-1
 46 680 l 1,0,-1
EndSplineSet
EndChar

StartChar: W
Encoding: 87 87 55
Width: 1076
VWidth: 1039
Flags: W
TeX: 87 0
HStem: -18 21G<359.428 413.85 713.518 767.568> 680 32<44 125.601 313.799 369 416 486.762 666.952 744 788 876.584 978.432 1058>
DStem2: 314 620 158 615 0.312173 -0.950025<-25.0404 405.094> 440 235 408 -18 0.280728 0.959787<0 275.391> 666 629 534 555 0.309086 -0.951034<-21.5809 29.5772 100.096 410.157> 793 239 762 -18 0.268217 0.963359<0 394.519>
AnchorPoint: "Bottom" 572 0 basechar 0
AnchorPoint: "Top" 572 762 basechar 0
LayerCount: 3
Fore
SplineSet
44 680 m 1
 44 712 l 1
 369 712 l 1
 369 680 l 1
 340 680 l 2
 321 680 309 664 309 645 c 0
 309 639 311 628 314 620 c 2
 440 235 l 1
 534 555 l 1
 512 622 l 2
 497 666 477 680 433 680 c 2
 416 680 l 1
 416 712 l 1
 744 712 l 1
 744 680 l 1
 695 680 l 2
 676 680 663 665 663 651 c 0
 663 645 664 637 666 629 c 2
 793 239 l 1
 884 568 l 2
 887 577 891 606 891 622 c 0
 891 646 879 680 838 680 c 2
 788 680 l 1
 788 712 l 1
 1058 712 l 1
 1058 680 l 1
 1027 680 l 2
 976 680 947 639 931 589 c 2
 762 -18 l 1
 720 -18 l 1
 556 488 l 1
 408 -18 l 1
 366 -18 l 1
 158 615 l 2
 144 657 121 680 63 680 c 2
 44 680 l 1
EndSplineSet
Layer: 2
SplineSet
44 680 m 1,0,-1
 44 712 l 1,1,-1
 369 712 l 1,2,-1
 369 680 l 1,3,-1
 340 680 l 2,4,5
 326 680 326 680 317.5 670 c 128,-1,6
 309 660 309 660 309 645 c 0,7,8
 309 634 309 634 314 620 c 2,9,-1
 440 235 l 1,10,-1
 534 555 l 1,11,-1
 512 622 l 2,12,13
 501 655 501 655 483.5 667.5 c 128,-1,14
 466 680 466 680 433 680 c 2,15,-1
 416 680 l 1,16,-1
 416 712 l 1,17,-1
 744 712 l 1,18,-1
 744 680 l 1,19,-1
 695 680 l 2,20,21
 682 680 682 680 672.5 671 c 128,-1,22
 663 662 663 662 663 651 c 0,23,24
 663 641 663 641 666 629 c 2,25,-1
 793 239 l 1,26,-1
 884 568 l 2,27,28
 891 589 891 589 891 622 c 0,29,30
 891 644 891 644 878.5 662 c 128,-1,31
 866 680 866 680 838 680 c 2,32,-1
 788 680 l 1,33,-1
 788 712 l 1,34,-1
 1058 712 l 1,35,-1
 1058 680 l 1,36,-1
 1027 680 l 2,37,38
 960 680 960 680 931 589 c 2,39,-1
 762 -18 l 1,40,-1
 720 -18 l 1,41,-1
 556 488 l 1,42,-1
 408 -18 l 1,43,-1
 366 -18 l 1,44,-1
 158 615 l 2,45,46
 147 648 147 648 125.5 664 c 128,-1,47
 104 680 104 680 63 680 c 2,48,-1
 44 680 l 1,0,-1
EndSplineSet
EndChar

StartChar: X
Encoding: 88 88 56
Width: 750
VWidth: 1039
Flags: W
TeX: 88 0
HStem: 0 32<52 136.156 239.56 312 398 457.831 661.946 730> 680 32<62 134.961 332.359 376 446 510.565 613.153 700>
DStem2: 186 99 257 139 0.551173 0.834391<6.87344 246.408 435.165 631.453> 426 462 333 322 0.475073 -0.879946<-212.381 0 42.0595 79.0107 121.95 363.466>
AnchorPoint: "Bottom" 358 0 basechar 0
AnchorPoint: "Top" 394 762 basechar 0
LayerCount: 3
Fore
SplineSet
52 0 m 1
 52 32 l 1
 83 32 l 2
 132 32 163 65 186 99 c 2
 333 322 l 1
 167 628 l 2
 150 659 125 680 77 680 c 2
 62 680 l 1
 62 712 l 1
 376 712 l 1
 376 680 l 1
 355 680 l 2
 344 680 330 671 330 652 c 0
 330 642 335 630 338 624 c 2
 426 462 l 1
 504 581 l 2
 516 599 520 618 520 636 c 0
 520 657 506 680 476 680 c 2
 446 680 l 1
 446 712 l 1
 700 712 l 1
 700 680 l 1
 670 680 l 2
 630 680 605 666 582 631 c 2
 446 425 l 1
 629 85 l 2
 650 46 683 32 710 32 c 2
 730 32 l 1
 730 0 l 1
 398 0 l 1
 398 32 l 1
 431 32 l 2
 451 32 462 46 462 68 c 0
 462 76 458 90 450 104 c 2
 353 284 l 1
 257 139 l 2
 242 116 232 94 232 76 c 0
 232 54 243 32 268 32 c 2
 312 32 l 1
 312 0 l 1
 52 0 l 1
EndSplineSet
Layer: 2
SplineSet
52 0 m 1,0,-1
 52 32 l 1,1,-1
 83 32 l 2,2,3
 140 32 140 32 186 99 c 2,4,-1
 333 322 l 1,5,-1
 167 628 l 2,6,7
 138 680 138 680 77 680 c 2,8,-1
 62 680 l 1,9,-1
 62 712 l 1,10,-1
 376 712 l 1,11,-1
 376 680 l 1,12,-1
 355 680 l 2,13,14
 346 680 346 680 338 672.5 c 128,-1,15
 330 665 330 665 330 652 c 0,16,17
 330 640 330 640 338 624 c 2,18,-1
 426 462 l 1,19,-1
 504 581 l 2,20,21
 520 605 520 605 520 636 c 0,22,23
 520 654 520 654 508.5 667 c 128,-1,24
 497 680 497 680 476 680 c 2,25,-1
 446 680 l 1,26,-1
 446 712 l 1,27,-1
 700 712 l 1,28,-1
 700 680 l 1,29,-1
 670 680 l 2,30,31
 640 680 640 680 620 669 c 128,-1,32
 600 658 600 658 582 631 c 2,33,-1
 446 425 l 1,34,-1
 629 85 l 2,35,36
 644 58 644 58 666 45 c 128,-1,37
 688 32 688 32 710 32 c 2,38,-1
 730 32 l 1,39,-1
 730 0 l 1,40,-1
 398 0 l 1,41,-1
 398 32 l 1,42,-1
 431 32 l 2,43,44
 446 32 446 32 454 42 c 128,-1,45
 462 52 462 52 462 68 c 0,46,47
 462 83 462 83 450 104 c 2,48,-1
 353 284 l 1,49,-1
 257 139 l 2,50,51
 232 100 232 100 232 76 c 0,52,53
 232 58 232 58 241 45 c 128,-1,54
 250 32 250 32 268 32 c 2,55,-1
 312 32 l 1,56,-1
 312 0 l 1,57,-1
 52 0 l 1,0,-1
EndSplineSet
EndChar

StartChar: Y
Encoding: 89 89 57
Width: 736
VWidth: 1039
Flags: W
TeX: 89 0
HStem: 0 32<222 309.438 458.562 546> 680 32<46 122.239 307.586 360 466 532.575 635.495 714>
VStem: 310 148<32.0402 269>
DStem2: 442 333 310 269 0.420312 -0.90738<-343.484 0> 442 333 458 278 0.379618 0.925143<0 304.087>
AnchorPoint: "Bottom" 384 0 basechar 0
AnchorPoint: "Top" 404 762 basechar 0
LayerCount: 3
Fore
SplineSet
46 680 m 1
 46 712 l 1
 360 712 l 1
 360 680 l 1
 332 680 l 2
 312 680 304 662 304 648 c 0
 304 640 306 628 310 620 c 2
 442 333 l 25
 534 562 l 18
 541 578 548 602 548 619 c 0
 548 647 534 680 494 680 c 2
 466 680 l 1
 466 712 l 1
 714 712 l 1
 714 680 l 1
 684 680 l 2
 635 680 606 641 593 607 c 2
 458 278 l 9
 458 56 l 18
 458 38 464 32 482 32 c 10
 546 32 l 25
 546 0 l 25
 222 0 l 25
 222 32 l 25
 286 32 l 18
 304 32 310 38 310 56 c 10
 310 269 l 17
 140 636 l 2
 124 671 108 680 81 680 c 2
 46 680 l 1
EndSplineSet
Layer: 2
SplineSet
46 680 m 1,0,-1
 46 712 l 1,1,-1
 360 712 l 1,2,-1
 360 680 l 1,3,-1
 332 680 l 2,4,5
 318 680 318 680 311 670 c 128,-1,6
 304 660 304 660 304 648 c 0,7,8
 304 632 304 632 310 620 c 2,9,-1
 442 333 l 1,10,-1
 534 562 l 2,11,12
 548 594 548 594 548 619 c 128,-1,13
 548 644 548 644 535 662 c 128,-1,14
 522 680 522 680 494 680 c 2,15,-1
 466 680 l 1,16,-1
 466 712 l 1,17,-1
 714 712 l 1,18,-1
 714 680 l 1,19,-1
 684 680 l 2,20,21
 650 680 650 680 627 658.5 c 128,-1,22
 604 637 604 637 593 607 c 2,23,-1
 458 278 l 1,24,-1
 458 56 l 2,25,26
 458 42 458 42 463 37 c 128,-1,27
 468 32 468 32 482 32 c 2,28,-1
 546 32 l 1,29,-1
 546 0 l 1,30,-1
 222 0 l 1,31,-1
 222 32 l 1,32,-1
 286 32 l 2,33,34
 300 32 300 32 305 37 c 128,-1,35
 310 42 310 42 310 56 c 2,36,-1
 310 269 l 1,37,-1
 140 636 l 2,38,39
 128 662 128 662 115 671 c 128,-1,40
 102 680 102 680 81 680 c 2,41,-1
 46 680 l 1,0,-1
EndSplineSet
EndChar

StartChar: Z
Encoding: 90 90 58
Width: 652
VWidth: 1039
Flags: W
TeX: 90 0
HStem: 0 32<237 432.009> 680 32<243.469 420>
VStem: 88 32<456 522.07> 574 32<217.165 282>
DStem2: 68 32 237 32 0.477331 0.878723<80.669 737.433>
AnchorPoint: "Bottom" 346 0 basechar 0
AnchorPoint: "Top" 346 762 basechar 0
LayerCount: 3
Fore
SplineSet
68 0 m 9
 68 32 l 17
 420 680 l 1
 294 680 l 2
 244 680 176 623 143 542 c 0
 126 499 120 457 120 456 c 1
 88 456 l 1
 100 712 l 9
 588 712 l 25
 588 678 l 17
 237 32 l 1
 374 32 l 2
 452 32 512 115 536 162 c 0
 564 218 574 282 574 282 c 1
 606 282 l 1
 590 0 l 1
 68 0 l 9
EndSplineSet
Layer: 2
SplineSet
68 0 m 1,0,-1
 68 32 l 1,1,-1
 420 680 l 1,2,-1
 294 680 l 2,3,4
 256 680 256 680 211.5 641 c 128,-1,5
 167 602 167 602 143 542 c 0,6,7
 136 523 136 523 130 501.5 c 128,-1,8
 124 480 124 480 122 469 c 128,-1,9
 120 458 120 458 120 456 c 1,10,-1
 88 456 l 1,11,-1
 100 712 l 1,12,-1
 588 712 l 1,13,-1
 588 678 l 1,14,-1
 237 32 l 1,15,-1
 374 32 l 2,16,17
 402 32 402 32 428.5 45 c 128,-1,18
 455 58 455 58 475.5 79.5 c 128,-1,19
 496 101 496 101 511 121.5 c 128,-1,20
 526 142 526 142 536 162 c 0,21,22
 548 187 548 187 558 217 c 128,-1,23
 568 247 568 247 571 264 c 2,24,-1
 574 282 l 1,25,-1
 606 282 l 1,26,-1
 590 0 l 1,27,-1
 68 0 l 1,0,-1
EndSplineSet
EndChar

StartChar: bracketleft
Encoding: 91 91 59
Width: 380
Flags: W
TeX: 98 0
HStem: -180 28<193.5 310> 684 28<193.5 310>
VStem: 80 112<-151.947 683.947>
LayerCount: 3
Fore
SplineSet
80 -180 m 25
 80 712 l 25
 310 712 l 25
 310 684 l 25
 216 684 l 18
 200 684 192 676 192 660 c 10
 192 -128 l 18
 192 -144 200 -152 216 -152 c 10
 310 -152 l 25
 310 -180 l 25
 80 -180 l 25
EndSplineSet
Layer: 2
SplineSet
80 -180 m 1,0,-1
 80 712 l 1,1,-1
 310 712 l 1,2,-1
 310 684 l 1,3,-1
 216 684 l 2,4,5
 192 684 192 684 192 660 c 2,6,-1
 192 -128 l 2,7,8
 192 -152 192 -152 216 -152 c 2,9,-1
 310 -152 l 1,10,-1
 310 -180 l 1,11,-1
 80 -180 l 1,0,-1
EndSplineSet
EndChar

StartChar: backslash
Encoding: 92 92 60
Width: 450
Flags: W
TeX: 98 0
HStem: 710 20G<50 124.078>
DStem2: 118 730 50 730 0.290751 -0.956799<0 950.13>
LayerCount: 3
Fore
SplineSet
50 730 m 25
 118 730 l 25
 400 -198 l 25
 332 -198 l 25
 50 730 l 25
EndSplineSet
Layer: 2
SplineSet
50 730 m 1,0,-1
 118 730 l 1,1,-1
 400 -198 l 1,2,-1
 332 -198 l 1,3,-1
 50 730 l 1,0,-1
EndSplineSet
EndChar

StartChar: bracketright
Encoding: 93 93 61
Width: 380
Flags: W
TeX: 98 0
HStem: -180 28<70 186.5> 684 28<70 186.5>
VStem: 188 112<-151.947 683.947>
LayerCount: 3
Fore
SplineSet
70 -152 m 25
 164 -152 l 18
 180 -152 188 -144 188 -128 c 10
 188 660 l 18
 188 676 180 684 164 684 c 10
 70 684 l 25
 70 712 l 25
 300 712 l 25
 300 -180 l 25
 70 -180 l 25
 70 -152 l 25
EndSplineSet
Layer: 2
SplineSet
70 -152 m 1,0,-1
 164 -152 l 2,1,2
 188 -152 188 -152 188 -128 c 2,3,-1
 188 660 l 2,4,5
 188 684 188 684 164 684 c 2,6,-1
 70 684 l 1,7,-1
 70 712 l 1,8,-1
 300 712 l 1,9,-1
 300 -180 l 1,10,-1
 70 -180 l 1,11,-1
 70 -152 l 1,0,-1
EndSplineSet
EndChar

StartChar: asciicircum
Encoding: 94 94 62
Width: 580
Flags: W
TeX: 97 0
HStem: 622 108<226 354>
DStem2: 54 372 132 372 0.533815 0.845601<41.6376 337.381> 300 730 290 622 0.533815 -0.845601<85.9868 381.73>
LayerCount: 3
Fore
SplineSet
54 372 m 25
 280 730 l 17
 300 730 l 1
 526 372 l 9
 448 372 l 25
 290 622 l 25
 132 372 l 25
 54 372 l 25
EndSplineSet
Layer: 2
SplineSet
54 372 m 1,0,-1
 280 730 l 1,1,-1
 300 730 l 1,2,-1
 526 372 l 1,3,-1
 448 372 l 1,4,-1
 290 622 l 1,5,-1
 132 372 l 1,6,-1
 54 372 l 1,0,-1
EndSplineSet
EndChar

StartChar: underscore
Encoding: 95 95 63
Width: 520
Flags: W
TeX: 117 0
HStem: -168 64<0 520>
LayerCount: 3
Fore
SplineSet
0 -104 m 25
 520 -104 l 25
 520 -168 l 25
 0 -168 l 25
 0 -104 l 25
EndSplineSet
Layer: 2
SplineSet
0 -104 m 1,0,-1
 520 -104 l 1,1,-1
 520 -168 l 1,2,-1
 0 -168 l 1,3,-1
 0 -104 l 1,0,-1
EndSplineSet
EndChar

StartChar: grave
Encoding: 96 96 64
AltUni2: 0002cb.ffffffff.0
Width: 440
VWidth: 959
Flags: W
TeX: 103 0
HStem: 524 188
VStem: 84 180
LayerCount: 3
Fore
SplineSet
84 672 m 0
 84 696 102 712 126 712 c 0
 144 712 159 705 175 680 c 10
 264 542 l 25
 244 524 l 25
 112 624 l 18
 95 637 84 654 84 672 c 0
EndSplineSet
Layer: 2
SplineSet
84 672 m 0,0,1
 84 690 84 690 96 701 c 128,-1,2
 108 712 108 712 126 712 c 0,3,4
 154 712 154 712 175 680 c 2,5,-1
 264 542 l 1,6,-1
 244 524 l 1,7,-1
 112 624 l 2,8,9
 84 646 84 646 84 672 c 0,0,1
EndSplineSet
EndChar

StartChar: a
Encoding: 97 97 65
Width: 508
VWidth: 959
Flags: W
TeX: 97 0
HStem: -12 48<360.5 447.309> -12 40<147 252.876> 462 24<166.119 252.6>
VStem: 46 122<44.6141 177.371> 69 75<334.5 423.451> 288 116<43.2701 270 297 409.22> 460 28<55.131 135>
DStem2: 214 271 232 250 0.94346 0.331486<-32.4074 69.4846>
AnchorPoint: "Bottom" 240 0 basechar 0
AnchorPoint: "Top" 232 508 basechar 0
LayerCount: 3
Fore
SplineSet
168 115 m 0x76
 168 41 205 28 227 28 c 0
 253 28 274 44 288 72 c 9
 288 270 l 17
 232 250 l 2
 187 234 168 189 168 115 c 0x76
46 106 m 0
 46 204 142 246 214 271 c 10
 288 297 l 25
 288 365 l 18
 288 438 252 462 213 462 c 0
 179 462 144 446 144 415 c 0
 144 409 147 395 160 386 c 0
 178 375 188 364 188 341 c 0
 188 306 157 290 132 290 c 0
 101 290 69 311 69 358 c 0
 69 439 153 486 224 486 c 0
 306 486 404 447 404 325 c 10
 404 72 l 18
 404 47 411 36 424 36 c 0xae
 450 36 460 90 460 135 c 9
 488 135 l 17
 488 99 485 57 466 28 c 0x6e
 452 6 425 -12 389 -12 c 0xae
 332 -12 310 6 292 42 c 1
 290 42 l 1
 268 12 232 -12 178 -12 c 0
 116 -12 46 13 46 106 c 0
EndSplineSet
Layer: 2
SplineSet
168 115 m 0,0,1
 168 66 168 66 186 47 c 128,-1,2
 204 28 204 28 227 28 c 0,3,4
 266 28 266 28 288 72 c 1,5,-1
 288 270 l 1,6,-1
 232 250 l 2,7,8
 168 227 168 227 168 115 c 0,0,1
46 106 m 0,9,10
 46 134 46 134 57 158 c 128,-1,11
 68 182 68 182 84 199 c 128,-1,12
 100 216 100 216 124 230.5 c 128,-1,13
 148 245 148 245 168 253.5 c 128,-1,14
 188 262 188 262 214 271 c 2,15,-1
 288 297 l 1,16,-1
 288 365 l 2,17,18
 288 416 288 416 267 439 c 128,-1,19
 246 462 246 462 213 462 c 0,20,21
 186 462 186 462 165 449.5 c 128,-1,22
 144 437 144 437 144 415 c 0,23,24
 144 397 144 397 160 386 c 0,25,26
 174 377 174 377 181 367.5 c 128,-1,27
 188 358 188 358 188 341 c 0,28,29
 188 316 188 316 171 303 c 128,-1,30
 154 290 154 290 132 290 c 0,31,32
 106 290 106 290 87.5 307.5 c 128,-1,33
 69 325 69 325 69 358 c 0,34,35
 69 396 69 396 93.5 426.5 c 128,-1,36
 118 457 118 457 153 471.5 c 128,-1,37
 188 486 188 486 224 486 c 0,38,39
 250 486 250 486 274 481 c 128,-1,40
 298 476 298 476 322 464 c 128,-1,41
 346 452 346 452 364 434 c 128,-1,42
 382 416 382 416 393 388 c 128,-1,43
 404 360 404 360 404 325 c 2,44,-1
 404 72 l 2,45,46
 404 36 404 36 424 36 c 0,47,48
 442 36 442 36 451 66 c 128,-1,49
 460 96 460 96 460 135 c 1,50,-1
 488 135 l 1,51,52
 488 62 488 62 466 28 c 0,53,54
 455 10 455 10 434.5 -1 c 128,-1,55
 414 -12 414 -12 389 -12 c 0,56,57
 348 -12 348 -12 327 1 c 128,-1,58
 306 14 306 14 292 42 c 1,59,-1
 290 42 l 1,60,61
 250 -12 250 -12 178 -12 c 0,62,63
 158 -12 158 -12 140 -9 c 128,-1,64
 122 -6 122 -6 104.5 2.5 c 128,-1,65
 87 11 87 11 74.5 24 c 128,-1,66
 62 37 62 37 54 58 c 128,-1,67
 46 79 46 79 46 106 c 0,9,10
EndSplineSet
EndChar

StartChar: b
Encoding: 98 98 66
Width: 528
Flags: W
TeX: -98 0
HStem: -12 32<254.592 315.691> 454 32<256.144 315.241> 688 24<12 83.8047>
VStem: 84 116<93.2166 380.452 417 687.997> 352 128<122.136 356.696>
AnchorPoint: "Bottom" 281 -442 basechar 0
LayerCount: 3
Fore
SplineSet
12 688 m 1
 12 712 l 1
 200 712 l 1
 200 417 l 1
 206 415 l 1
 226 456 259 486 304 486 c 0
 411 486 480 363 480 237 c 0
 480 111 407 -12 300 -12 c 0
 246 -12 216 23 196 53 c 0
 180 78 172 86 157 86 c 0
 146 86 136 76 128 58 c 2
 100 0 l 1
 84 0 l 1
 84 672 l 2
 84 684 80 688 68 688 c 2
 12 688 l 1
200 234 m 0
 200 114 240 20 286 20 c 0
 334 20 352 109 352 237 c 0
 352 365 334 454 286 454 c 0
 254 454 200 390 200 234 c 0
EndSplineSet
Layer: 2
SplineSet
12 688 m 1,0,-1
 12 712 l 1,1,-1
 200 712 l 1,2,-1
 200 417 l 1,3,-1
 206 415 l 1,4,5
 222 448 222 448 247 467 c 128,-1,6
 272 486 272 486 304 486 c 0,7,8
 356 486 356 486 397 450 c 128,-1,9
 438 414 438 414 459 357 c 128,-1,10
 480 300 480 300 480 237 c 128,-1,11
 480 174 480 174 458 117 c 128,-1,12
 436 60 436 60 394 24 c 128,-1,13
 352 -12 352 -12 300 -12 c 0,14,15
 264 -12 264 -12 239.5 6 c 128,-1,16
 215 24 215 24 196 53 c 0,17,18
 184 72 184 72 176 79 c 128,-1,19
 168 86 168 86 157 86 c 0,20,21
 140 86 140 86 128 58 c 2,22,-1
 100 0 l 1,23,-1
 84 0 l 1,24,-1
 84 672 l 2,25,26
 84 681 84 681 80.5 684.5 c 128,-1,27
 77 688 77 688 68 688 c 2,28,-1
 12 688 l 1,0,-1
200 234 m 0,29,30
 200 176 200 176 212 126 c 128,-1,31
 224 76 224 76 243.5 48 c 128,-1,32
 263 20 263 20 286 20 c 0,33,34
 352 20 352 20 352 237 c 128,-1,35
 352 454 352 454 286 454 c 0,36,37
 273 454 273 454 258.5 441 c 128,-1,38
 244 428 244 428 231 403 c 128,-1,39
 218 378 218 378 209 334 c 128,-1,40
 200 290 200 290 200 234 c 0,29,30
EndSplineSet
EndChar

StartChar: c
Encoding: 99 99 67
Width: 468
Flags: W
TeX: 99 0
HStem: -12 30<231.532 328.713> 462 24<233.794 309.932>
VStem: 48 128<123.604 349.124> 332 72<327 424.447> 396 26<107.693 162>
AnchorPoint: "Bottom" 254 0 basechar 0
AnchorPoint: "Top" 248 508 basechar 0
LayerCount: 3
Fore
SplineSet
48 237 m 0xe8
 48 374 133 486 259 486 c 0
 360 486 404 413 404 351 c 0
 404 303 370 262 329 262 c 0
 300 262 276 280 276 312 c 0
 276 339 298 357 308 365 c 0
 320 375 332 389 332 406 c 0xf0
 332 428 318 462 267 462 c 0
 201 462 176 370 176 237 c 0
 176 181 176 138 187 99 c 0
 199 50 236 18 281 18 c 0
 352 18 389 94 396 162 c 9
 422 162 l 17
 415 88 375 -12 261 -12 c 0
 133 -12 48 100 48 237 c 0xe8
EndSplineSet
Layer: 2
SplineSet
48 237 m 0,0,1
 48 306 48 306 74 362 c 128,-1,2
 100 418 100 418 149 452 c 128,-1,3
 198 486 198 486 259 486 c 0,4,5
 295 486 295 486 324 474 c 128,-1,6
 353 462 353 462 369.5 442 c 128,-1,7
 386 422 386 422 395 398.5 c 128,-1,8
 404 375 404 375 404 351 c 0,9,10
 404 315 404 315 382 288.5 c 128,-1,11
 360 262 360 262 329 262 c 0,12,13
 306 262 306 262 291 275.5 c 128,-1,14
 276 289 276 289 276 312 c 0,15,16
 276 340 276 340 308 365 c 0,17,18
 332 385 332 385 332 406 c 128,-1,19
 332 427 332 427 317 444.5 c 128,-1,20
 302 462 302 462 267 462 c 0,21,22
 176 462 176 462 176 237 c 0,23,24
 176 201 176 201 176.5 183.5 c 128,-1,25
 177 166 177 166 179.5 142 c 128,-1,26
 182 118 182 118 187 99 c 0,27,28
 196 62 196 62 222 40 c 128,-1,29
 248 18 248 18 281 18 c 0,30,31
 306 18 306 18 327.5 31 c 128,-1,32
 349 44 349 44 362.5 65 c 128,-1,33
 376 86 376 86 385 111 c 128,-1,34
 394 136 394 136 396 162 c 1,35,-1
 422 162 l 1,36,37
 420 138 420 138 414 115 c 128,-1,38
 408 92 408 92 395 69 c 128,-1,39
 382 46 382 46 365 28 c 128,-1,40
 348 10 348 10 321 -1 c 128,-1,41
 294 -12 294 -12 261 -12 c 0,42,43
 167 -12 167 -12 107.5 60 c 128,-1,44
 48 132 48 132 48 237 c 0,0,1
EndSplineSet
EndChar

StartChar: d
Encoding: 100 100 68
Width: 538
Flags: W
TeX: 100 0
HStem: -12 32<212.309 272.842> 0 24<444.195 516> 454 32<212.759 271.856> 688 24<256 327.805>
VStem: 48 128<122.136 356.696> 328 116<24 58 93.2166 380.452 417 687.997>
LayerCount: 3
Fore
SplineSet
176 237 m 0xbc
 176 109 194 20 242 20 c 0
 288 20 328 114 328 234 c 0
 328 390 274 454 242 454 c 0
 194 454 176 365 176 237 c 0xbc
48 237 m 0
 48 363 117 486 224 486 c 0
 269 486 302 456 322 415 c 1
 328 417 l 1
 328 672 l 2
 328 684 324 688 312 688 c 2
 256 688 l 1
 256 712 l 1
 444 712 l 1
 444 40 l 2
 444 28 448 24 460 24 c 2
 516 24 l 1
 516 0 l 1
 328 0 l 1x7c
 328 58 l 1
 322 58 l 1
 307 26 275 -12 228 -12 c 0
 121 -12 48 111 48 237 c 0
EndSplineSet
Layer: 2
SplineSet
176 237 m 128,-1,1
 176 20 176 20 242 20 c 0,2,3
 265 20 265 20 284.5 48 c 128,-1,4
 304 76 304 76 316 126 c 128,-1,5
 328 176 328 176 328 234 c 0,6,7
 328 290 328 290 319 334 c 128,-1,8
 310 378 310 378 297 403 c 128,-1,9
 284 428 284 428 269.5 441 c 128,-1,10
 255 454 255 454 242 454 c 0,11,0
 176 454 176 454 176 237 c 128,-1,1
48 237 m 128,-1,13
 48 300 48 300 69 357 c 128,-1,14
 90 414 90 414 131 450 c 128,-1,15
 172 486 172 486 224 486 c 0,16,17
 256 486 256 486 281 467 c 128,-1,18
 306 448 306 448 322 415 c 1,19,-1
 328 417 l 1,20,-1
 328 672 l 2,21,22
 328 681 328 681 324.5 684.5 c 128,-1,23
 321 688 321 688 312 688 c 2,24,-1
 256 688 l 1,25,-1
 256 712 l 1,26,-1
 444 712 l 1,27,-1
 444 40 l 2,28,29
 444 31 444 31 447.5 27.5 c 128,-1,30
 451 24 451 24 460 24 c 2,31,-1
 516 24 l 1,32,-1
 516 0 l 1,33,-1
 328 0 l 1,34,-1
 328 58 l 1,35,-1
 322 58 l 1,36,37
 308 30 308 30 284 9 c 128,-1,38
 260 -12 260 -12 228 -12 c 0,39,40
 176 -12 176 -12 134 24 c 128,-1,41
 92 60 92 60 70 117 c 128,-1,12
 48 174 48 174 48 237 c 128,-1,13
EndSplineSet
EndChar

StartChar: e
Encoding: 101 101 69
Width: 472
VWidth: 959
Flags: W
TeX: 101 0
HStem: -12 30<231.532 328.713> 228 28<176 304> 462 24<212.856 268.759>
VStem: 48 128<123.871 228 256 347.777> 304 116<256 373.637> 396 26<107.693 162>
AnchorPoint: "Bottom" 252 0 basechar 0
AnchorPoint: "Top" 240 508 basechar 0
LayerCount: 3
Fore
SplineSet
48 237 m 0xf4
 48 381 139 486 250 486 c 0
 332 486 394 422 413 328 c 0
 420 296 420 240 420 228 c 1xf8
 176 228 l 1
 176 177 176 138 187 99 c 0
 199 50 236 18 281 18 c 0
 352 18 389 94 396 162 c 9
 422 162 l 17
 415 88 375 -12 261 -12 c 0
 133 -12 48 100 48 237 c 0xf4
176 256 m 1
 304 256 l 1
 304 386 292 462 240 462 c 0
 188 462 176 386 176 256 c 1
EndSplineSet
Layer: 2
SplineSet
48 237 m 0,0,1
 48 344 48 344 107 415 c 128,-1,2
 166 486 166 486 250 486 c 0,3,4
 311 486 311 486 354.5 443 c 128,-1,5
 398 400 398 400 413 328 c 0,6,7
 420 296 420 296 420 228 c 1,8,-1
 176 228 l 1,9,10
 176 196 176 196 176.5 179 c 128,-1,11
 177 162 177 162 179.5 140 c 128,-1,12
 182 118 182 118 187 99 c 0,13,14
 196 62 196 62 222 40 c 128,-1,15
 248 18 248 18 281 18 c 0,16,17
 306 18 306 18 327.5 31 c 128,-1,18
 349 44 349 44 362.5 65 c 128,-1,19
 376 86 376 86 385 111 c 128,-1,20
 394 136 394 136 396 162 c 1,21,-1
 422 162 l 1,22,23
 420 138 420 138 414 115 c 128,-1,24
 408 92 408 92 395 69 c 128,-1,25
 382 46 382 46 365 28 c 128,-1,26
 348 10 348 10 321 -1 c 128,-1,27
 294 -12 294 -12 261 -12 c 0,28,29
 167 -12 167 -12 107.5 60 c 128,-1,30
 48 132 48 132 48 237 c 0,0,1
176 256 m 1,31,-1
 304 256 l 1,32,33
 304 362 304 362 290.5 412 c 128,-1,34
 277 462 277 462 240 462 c 128,-1,35
 203 462 203 462 189.5 412 c 128,-1,36
 176 362 176 362 176 256 c 1,31,-1
EndSplineSet
EndChar

StartChar: f
Encoding: 102 102 70
Width: 350
Flags: W
TeX: 102 0
HStem: 0 24<30 101.805 218.195 290> 446 28<30 102 218 290> 696 24<252.694 312.578>
VStem: 102 116<24.0029 446 474 618.149> 318 88<583 673.675>
AnchorPoint: "Top" 258 752 basechar 0
AnchorPoint: "Bottom" 158 0 basechar 0
LayerCount: 3
Fore
SplineSet
30 0 m 1
 30 24 l 1
 86 24 l 2
 98 24 102 28 102 40 c 2
 102 446 l 1
 30 446 l 1
 30 474 l 1
 102 474 l 1
 102 522 l 2
 102 655 203 720 285 720 c 0
 360 720 406 669 406 603 c 0
 406 563 374 529 332 529 c 0
 304 529 273 548 273 584 c 0
 273 612 291 629 301 638 c 0
 312 648 318 658 318 670 c 0
 318 691 296 696 281 696 c 0
 254 696 218 671 218 564 c 2
 218 474 l 1
 290 474 l 1
 290 446 l 1
 218 446 l 1
 218 40 l 2
 218 28 222 24 234 24 c 2
 290 24 l 1
 290 0 l 1
 30 0 l 1
EndSplineSet
Layer: 2
SplineSet
30 0 m 1,0,-1
 30 24 l 1,1,-1
 86 24 l 2,2,3
 95 24 95 24 98.5 27.5 c 128,-1,4
 102 31 102 31 102 40 c 2,5,-1
 102 446 l 1,6,-1
 30 446 l 1,7,-1
 30 474 l 1,8,-1
 102 474 l 1,9,-1
 102 522 l 2,10,11
 102 570 102 570 119 609 c 128,-1,12
 136 648 136 648 163 671.5 c 128,-1,13
 190 695 190 695 222 707.5 c 128,-1,14
 254 720 254 720 285 720 c 0,15,16
 340 720 340 720 373 687 c 128,-1,17
 406 654 406 654 406 603 c 0,18,19
 406 572 406 572 384.5 550.5 c 128,-1,20
 363 529 363 529 332 529 c 0,21,22
 309 529 309 529 291 543.5 c 128,-1,23
 273 558 273 558 273 584 c 0,24,25
 273 613 273 613 301 638 c 0,26,27
 318 654 318 654 318 670 c 0,28,29
 318 684 318 684 307 690 c 128,-1,30
 296 696 296 696 281 696 c 0,31,32
 256 696 256 696 237 666 c 128,-1,33
 218 636 218 636 218 564 c 2,34,-1
 218 474 l 1,35,-1
 290 474 l 1,36,-1
 290 446 l 1,37,-1
 218 446 l 1,38,-1
 218 40 l 2,39,40
 218 31 218 31 221.5 27.5 c 128,-1,41
 225 24 225 24 234 24 c 2,42,-1
 290 24 l 1,43,-1
 290 0 l 1,44,-1
 30 0 l 1,0,-1
EndSplineSet
EndChar

StartChar: g
Encoding: 103 103 71
Width: 554
Flags: W
TeX: 103 0
HStem: -238 32<150.244 343.14> -27 112<129.992 390.13> 173 25<221.785 288.38> 462 24<223.128 288.175 432.321 476.714>
VStem: 42 36<-158.076 -71.2042> 58 59<44.5 137.44> 72 122<253.598 404.11> 316 122<253.628 404.736> 422 67<-133.402 -3> 478 64<409.937 460.979>
AnchorPoint: "Top" 256 508 basechar 0
LayerCount: 3
Fore
SplineSet
42 -114 m 0xf880
 42 -71 76 -30 136 -16 c 1
 136 -13 l 1
 100 -10 58 20 58 69 c 0xf4
 58 134 98 172 170 186 c 1
 170 190 l 1
 128 208 72 252 72 330 c 0xf2
 72 424 159 486 254 486 c 0
 325 486 369 456 393 434 c 1
 396 434 l 1
 415 466 440 486 470 486 c 0
 515 486 542 454 542 420 c 0
 542 380 517 346 486 346 c 0
 467 346 446 358 446 381 c 0
 446 395 454 407 462 417 c 0
 469 424 478 437 478 445 c 0
 478 453 473 461 457 461 c 0
 441 461 424 451 406 419 c 1
 431 392 438 356 438 322 c 0
 438 253 368 173 252 173 c 0
 188 173 117 168 117 120 c 0xf540
 117 94 138 85 166 85 c 2
 324 85 l 2
 411 85 489 45 489 -51 c 0
 489 -149 406 -238 264 -238 c 0
 147 -238 42 -194 42 -114 c 0xf880
194 330 m 0xf3
 194 239 211 198 256 198 c 0
 300 198 316 239 316 330 c 0
 316 421 300 462 256 462 c 0
 211 462 194 421 194 330 c 0xf3
78 -115 m 0xf880
 78 -178 168 -206 249 -206 c 0
 331 -206 422 -173 422 -98 c 0
 422 -43 349 -27 273 -27 c 0
 199 -27 78 -38 78 -115 c 0xf880
EndSplineSet
Layer: 2
SplineSet
42 -114 m 0,0,1
 42 -80 42 -80 67 -53 c 128,-1,2
 92 -26 92 -26 136 -16 c 1,3,-1
 136 -13 l 1,4,5
 106 -10 106 -10 82 12 c 128,-1,6
 58 34 58 34 58 69 c 0,7,8
 58 164 58 164 170 186 c 1,9,-1
 170 190 l 1,10,11
 152 198 152 198 136.5 209 c 128,-1,12
 121 220 121 220 105.5 237 c 128,-1,13
 90 254 90 254 81 278 c 128,-1,14
 72 302 72 302 72 330 c 0,15,16
 72 376 72 376 98 412 c 128,-1,17
 124 448 124 448 165 467 c 128,-1,18
 206 486 206 486 254 486 c 0,19,20
 336 486 336 486 393 434 c 1,21,-1
 396 434 l 1,22,23
 427 486 427 486 470 486 c 0,24,25
 502 486 502 486 522 466.5 c 128,-1,26
 542 447 542 447 542 420 c 0,27,28
 542 390 542 390 525.5 368 c 128,-1,29
 509 346 509 346 486 346 c 0,30,31
 470 346 470 346 458 355.5 c 128,-1,32
 446 365 446 365 446 381 c 128,-1,33
 446 397 446 397 462 417 c 0,34,35
 478 433 478 433 478 445 c 0,36,37
 478 461 478 461 457 461 c 0,38,39
 430 461 430 461 406 419 c 1,40,41
 438 384 438 384 438 322 c 0,42,43
 438 266 438 266 386 219.5 c 128,-1,44
 334 173 334 173 252 173 c 0,45,46
 224 173 224 173 203.5 171.5 c 128,-1,47
 183 170 183 170 161.5 165 c 128,-1,48
 140 160 140 160 128.5 148.5 c 128,-1,49
 117 137 117 137 117 120 c 0,50,51
 117 85 117 85 166 85 c 2,52,-1
 324 85 l 2,53,54
 358 85 358 85 387 77 c 128,-1,55
 416 69 416 69 439 53.5 c 128,-1,56
 462 38 462 38 475.5 11 c 128,-1,57
 489 -16 489 -16 489 -51 c 0,58,59
 489 -128 489 -128 427.5 -183 c 128,-1,60
 366 -238 366 -238 264 -238 c 0,61,62
 204 -238 204 -238 154.5 -224 c 128,-1,63
 105 -210 105 -210 73.5 -181 c 128,-1,64
 42 -152 42 -152 42 -114 c 0,0,1
194 330 m 128,-1,66
 194 261 194 261 208 229.5 c 128,-1,67
 222 198 222 198 256 198 c 0,68,69
 288 198 288 198 302 229 c 128,-1,70
 316 260 316 260 316 330 c 128,-1,71
 316 400 316 400 302 431 c 128,-1,72
 288 462 288 462 256 462 c 0,73,74
 222 462 222 462 208 430.5 c 128,-1,65
 194 399 194 399 194 330 c 128,-1,66
78 -115 m 0,75,76
 78 -145 78 -145 104.5 -166.5 c 128,-1,77
 131 -188 131 -188 168.5 -197 c 128,-1,78
 206 -206 206 -206 249 -206 c 128,-1,79
 292 -206 292 -206 330 -195 c 128,-1,80
 368 -184 368 -184 395 -159 c 128,-1,81
 422 -134 422 -134 422 -98 c 0,82,83
 422 -78 422 -78 410 -64 c 128,-1,84
 398 -50 398 -50 376 -42 c 128,-1,85
 354 -34 354 -34 329 -30.5 c 128,-1,86
 304 -27 304 -27 273 -27 c 0,87,88
 240 -27 240 -27 210.5 -30.5 c 128,-1,89
 181 -34 181 -34 148.5 -42 c 128,-1,90
 116 -50 116 -50 97 -69 c 128,-1,91
 78 -88 78 -88 78 -115 c 0,75,76
EndSplineSet
AlternateSubs2: "'aalt' Access All Alternates in Latin lookup 0 subtable" uni1D79
Substitution2: "'ss02' Insular Forms for Old English-1" uni1D79
Substitution2: "'salt' Stylistic Alternatives-1" uni1D79
EndChar

StartChar: h
Encoding: 104 104 72
Width: 560
Flags: W
TeX: 104 0
HStem: 0 24<26 97.8047 214.195 262 310 357.805 474.195 528> 454 32<287.37 344.545> 688 24<26 97.8047>
VStem: 98 116<24.0029 369.143 385 687.997> 358 116<24.0029 426.77>
AnchorPoint: "Top" 270 716 basechar 0
AnchorPoint: "Bottom" 272 0 basechar 0
LayerCount: 3
Fore
SplineSet
26 0 m 1
 26 24 l 1
 82 24 l 2
 94 24 98 28 98 40 c 2
 98 672 l 2
 98 684 94 688 82 688 c 2
 26 688 l 1
 26 712 l 1
 214 712 l 1
 214 385 l 1
 219 384 l 1
 244 442 285 486 343 486 c 0
 377 486 399 479 420 464 c 0
 454 439 474 392 474 348 c 2
 474 40 l 2
 474 28 478 24 490 24 c 2
 528 24 l 1
 528 0 l 1
 310 0 l 1
 310 24 l 1
 342 24 l 2
 354 24 358 28 358 40 c 2
 358 377 l 2
 358 418 349 454 312 454 c 0
 271 454 214 363 214 254 c 2
 214 40 l 2
 214 28 218 24 230 24 c 2
 262 24 l 1
 262 0 l 1
 26 0 l 1
EndSplineSet
Layer: 2
SplineSet
26 0 m 1,0,-1
 26 24 l 1,1,-1
 82 24 l 2,2,3
 91 24 91 24 94.5 27.5 c 128,-1,4
 98 31 98 31 98 40 c 2,5,-1
 98 672 l 2,6,7
 98 681 98 681 94.5 684.5 c 128,-1,8
 91 688 91 688 82 688 c 2,9,-1
 26 688 l 1,10,-1
 26 712 l 1,11,-1
 214 712 l 1,12,-1
 214 385 l 1,13,-1
 219 384 l 1,14,15
 239 430 239 430 270.5 458 c 128,-1,16
 302 486 302 486 343 486 c 0,17,18
 389 486 389 486 420 464 c 0,19,20
 445 446 445 446 459.5 414 c 128,-1,21
 474 382 474 382 474 348 c 2,22,-1
 474 40 l 2,23,24
 474 31 474 31 477.5 27.5 c 128,-1,25
 481 24 481 24 490 24 c 2,26,-1
 528 24 l 1,27,-1
 528 0 l 1,28,-1
 310 0 l 1,29,-1
 310 24 l 1,30,-1
 342 24 l 2,31,32
 351 24 351 24 354.5 27.5 c 128,-1,33
 358 31 358 31 358 40 c 2,34,-1
 358 377 l 2,35,36
 358 454 358 454 312 454 c 0,37,38
 292 454 292 454 269 427.5 c 128,-1,39
 246 401 246 401 230 353.5 c 128,-1,40
 214 306 214 306 214 254 c 2,41,-1
 214 40 l 2,42,43
 214 31 214 31 217.5 27.5 c 128,-1,44
 221 24 221 24 230 24 c 2,45,-1
 262 24 l 1,46,-1
 262 0 l 1,47,-1
 26 0 l 1,0,-1
EndSplineSet
EndChar

StartChar: k
Encoding: 107 107 75
Width: 560
Flags: W
TeX: 107 0
HStem: 0 24<26 97.8047 214.24 268 309 349.786 496.988 540> 449 25<306 359.973 436.292 497> 688 24<26 97.8867>
VStem: 98 116<24.0029 171 213 687.997>
DStem2: 214 213 214 171 0.626034 0.779796<0 35.4972 145.756 255.452> 326 310 257 224 0.524848 -0.851196<36.9883 237.684>
AnchorPoint: "Bottom" 280 0 basechar 0
LayerCount: 3
Fore
SplineSet
26 0 m 1
 26 24 l 1
 82 24 l 2
 94 24 98 28 98 40 c 2
 98 672 l 2
 98 684 96 688 82 688 c 2
 26 688 l 1
 26 712 l 1
 214 712 l 1
 214 213 l 1
 344 376 l 2
 357 392 364 405 364 421 c 0
 364 440 350 449 336 449 c 2
 306 449 l 1
 306 474 l 1
 497 474 l 1
 497 449 l 1
 474 449 l 2
 438 449 414 421 385 384 c 2
 326 310 l 1
 482 57 l 2
 493 39 503 24 519 24 c 2
 540 24 l 1
 540 0 l 1
 309 0 l 1
 309 24 l 1
 327 24 l 2
 337 24 352 29 352 46 c 0
 352 63 348 76 338 92 c 2
 257 224 l 1
 214 171 l 1
 214 40 l 2
 214 28 219 24 232 24 c 2
 268 24 l 1
 268 0 l 1
 26 0 l 1
EndSplineSet
Layer: 2
SplineSet
26 0 m 1,0,-1
 26 24 l 1,1,-1
 82 24 l 2,2,3
 91 24 91 24 94.5 27.5 c 128,-1,4
 98 31 98 31 98 40 c 2,5,-1
 98 672 l 2,6,7
 98 682 98 682 95 685 c 128,-1,8
 92 688 92 688 82 688 c 2,9,-1
 26 688 l 1,10,-1
 26 712 l 1,11,-1
 214 712 l 1,12,-1
 214 213 l 1,13,-1
 344 376 l 2,14,15
 364 400 364 400 364 421 c 0,16,17
 364 434 364 434 356 441.5 c 128,-1,18
 348 449 348 449 336 449 c 2,19,-1
 306 449 l 1,20,-1
 306 474 l 1,21,-1
 497 474 l 1,22,-1
 497 449 l 1,23,-1
 474 449 l 2,24,25
 450 449 450 449 431 433.5 c 128,-1,26
 412 418 412 418 385 384 c 2,27,-1
 326 310 l 1,28,-1
 482 57 l 2,29,30
 492 40 492 40 500 32 c 128,-1,31
 508 24 508 24 519 24 c 2,32,-1
 540 24 l 1,33,-1
 540 0 l 1,34,-1
 309 0 l 1,35,-1
 309 24 l 1,36,-1
 327 24 l 2,37,38
 336 24 336 24 344 29 c 128,-1,39
 352 34 352 34 352 46 c 0,40,41
 352 70 352 70 338 92 c 2,42,-1
 257 224 l 1,43,-1
 214 171 l 1,44,-1
 214 40 l 2,45,46
 214 31 214 31 218 27.5 c 128,-1,47
 222 24 222 24 232 24 c 2,48,-1
 268 24 l 1,49,-1
 268 0 l 1,50,-1
 26 0 l 1,0,-1
EndSplineSet
EndChar

StartChar: l
Encoding: 108 108 76
Width: 308
Flags: W
TeX: 108 0
HStem: 0 24<26 97.8047 214.195 286> 688 24<26 97.8047>
VStem: 98 116<24.0029 687.997>
AnchorPoint: "Bottom" 156 0 basechar 0
AnchorPoint: "Top" 156 716 basechar 0
LayerCount: 3
Fore
SplineSet
26 0 m 1
 26 24 l 1
 82 24 l 2
 94 24 98 28 98 40 c 2
 98 672 l 2
 98 684 94 688 82 688 c 2
 26 688 l 1
 26 712 l 1
 214 712 l 1
 214 40 l 2
 214 28 218 24 230 24 c 2
 286 24 l 1
 286 0 l 1
 26 0 l 1
EndSplineSet
Layer: 2
SplineSet
26 0 m 1,0,-1
 26 24 l 1,1,-1
 82 24 l 2,2,3
 91 24 91 24 94.5 27.5 c 128,-1,4
 98 31 98 31 98 40 c 2,5,-1
 98 672 l 2,6,7
 98 681 98 681 94.5 684.5 c 128,-1,8
 91 688 91 688 82 688 c 2,9,-1
 26 688 l 1,10,-1
 26 712 l 1,11,-1
 214 712 l 1,12,-1
 214 40 l 2,13,14
 214 31 214 31 217.5 27.5 c 128,-1,15
 221 24 221 24 230 24 c 2,16,-1
 286 24 l 1,17,-1
 286 0 l 1,18,-1
 26 0 l 1,0,-1
EndSplineSet
EndChar

StartChar: m
Encoding: 109 109 77
Width: 800
Flags: W
TeX: 109 0
HStem: 0 24<40 93.8047 210.195 258 298 345.805 462.195 510 550 597.805 714.195 768> 450 24<40 93.8047> 454 32<285.401 386.254 533.051 584.545>
VStem: 94 116<24.0029 369.143 375 449.997> 346 116<24.0029 376.861> 598 116<24.0029 426.77>
CounterMasks: 1 1c
AnchorPoint: "Top" 404 508 basechar 0
AnchorPoint: "Bottom" 404 0 basechar 0
LayerCount: 3
Fore
SplineSet
40 0 m 1xbc
 40 24 l 1
 78 24 l 2
 90 24 94 28 94 40 c 2
 94 434 l 2
 94 446 90 450 78 450 c 2
 40 450 l 1
 40 474 l 1
 210 474 l 1xdc
 210 375 l 1
 215 374 l 1
 243 443 284 486 340 486 c 0
 433 486 451 422 460 376 c 1
 465 376 l 17
 489 442 532 486 583 486 c 0
 617 486 639 479 660 464 c 0
 694 439 714 392 714 348 c 2
 714 40 l 2
 714 28 718 24 730 24 c 2
 768 24 l 1
 768 0 l 1
 550 0 l 1
 550 24 l 1
 582 24 l 2
 594 24 598 28 598 40 c 2
 598 377 l 2
 598 418 589 454 552 454 c 0
 511 454 462 363 462 254 c 2
 462 40 l 2
 462 28 466 24 478 24 c 2
 510 24 l 1
 510 0 l 1
 298 0 l 1
 298 24 l 1
 330 24 l 2
 342 24 346 28 346 40 c 2
 346 395 l 2
 346 427 344 454 308 454 c 0
 266 454 210 363 210 254 c 2
 210 40 l 2
 210 28 214 24 226 24 c 2
 258 24 l 1
 258 0 l 1
 40 0 l 1xbc
EndSplineSet
Layer: 2
SplineSet
40 0 m 1,0,-1
 40 24 l 1,1,-1
 78 24 l 2,2,3
 87 24 87 24 90.5 27.5 c 128,-1,4
 94 31 94 31 94 40 c 2,5,-1
 94 434 l 2,6,7
 94 443 94 443 90.5 446.5 c 128,-1,8
 87 450 87 450 78 450 c 2,9,-1
 40 450 l 1,10,-1
 40 474 l 1,11,-1
 210 474 l 1,12,-1
 210 375 l 1,13,-1
 215 374 l 1,14,15
 260 486 260 486 340 486 c 0,16,17
 366 486 366 486 387 478.5 c 128,-1,18
 408 471 408 471 420 460.5 c 128,-1,19
 432 450 432 450 441 434 c 128,-1,20
 450 418 450 418 453 405.5 c 128,-1,21
 456 393 456 393 460 376 c 1,22,-1
 465 376 l 1,23,24
 484 426 484 426 515 456 c 128,-1,25
 546 486 546 486 583 486 c 0,26,27
 629 486 629 486 660 464 c 0,28,29
 685 446 685 446 699.5 414 c 128,-1,30
 714 382 714 382 714 348 c 2,31,-1
 714 40 l 2,32,33
 714 31 714 31 717.5 27.5 c 128,-1,34
 721 24 721 24 730 24 c 2,35,-1
 768 24 l 1,36,-1
 768 0 l 1,37,-1
 550 0 l 1,38,-1
 550 24 l 1,39,-1
 582 24 l 2,40,41
 591 24 591 24 594.5 27.5 c 128,-1,42
 598 31 598 31 598 40 c 2,43,-1
 598 377 l 2,44,45
 598 454 598 454 552 454 c 0,46,47
 520 454 520 454 491 393.5 c 128,-1,48
 462 333 462 333 462 254 c 2,49,-1
 462 40 l 2,50,51
 462 31 462 31 465.5 27.5 c 128,-1,52
 469 24 469 24 478 24 c 2,53,-1
 510 24 l 1,54,-1
 510 0 l 1,55,-1
 298 0 l 1,56,-1
 298 24 l 1,57,-1
 330 24 l 2,58,59
 339 24 339 24 342.5 27.5 c 128,-1,60
 346 31 346 31 346 40 c 2,61,-1
 346 395 l 2,62,63
 346 410 346 410 345 418.5 c 128,-1,64
 344 427 344 427 340.5 436.5 c 128,-1,65
 337 446 337 446 329 450 c 128,-1,66
 321 454 321 454 308 454 c 0,67,68
 287 454 287 454 264.5 427 c 128,-1,69
 242 400 242 400 226 353 c 128,-1,70
 210 306 210 306 210 254 c 2,71,-1
 210 40 l 2,72,73
 210 31 210 31 213.5 27.5 c 128,-1,74
 217 24 217 24 226 24 c 2,75,-1
 258 24 l 1,76,-1
 258 0 l 1,77,-1
 40 0 l 1,0,-1
EndSplineSet
EndChar

StartChar: n
Encoding: 110 110 78
Width: 556
Flags: W
TeX: 110 0
HStem: 0 24<40 93.8047 210.195 258 306 353.805 470.195 524> 450 24<40 93.8047> 454 32<283.37 340.545>
VStem: 94 116<24.0029 369.143 385 449.997> 354 116<24.0029 426.77>
AnchorPoint: "Bottom" 268 0 basechar 0
AnchorPoint: "Top" 278 508 basechar 0
LayerCount: 3
Fore
SplineSet
40 0 m 1xb8
 40 24 l 1
 78 24 l 2
 90 24 94 28 94 40 c 2
 94 434 l 2
 94 446 90 450 78 450 c 2
 40 450 l 1
 40 474 l 1
 210 474 l 1xd8
 210 385 l 1
 215 384 l 1
 240 442 281 486 339 486 c 0
 373 486 395 479 416 464 c 0
 450 439 470 392 470 348 c 2
 470 40 l 2
 470 28 474 24 486 24 c 2
 524 24 l 1
 524 0 l 1
 306 0 l 1
 306 24 l 1
 338 24 l 2
 350 24 354 28 354 40 c 2
 354 377 l 2
 354 418 345 454 308 454 c 0
 267 454 210 363 210 254 c 2
 210 40 l 2
 210 28 214 24 226 24 c 2
 258 24 l 1
 258 0 l 1
 40 0 l 1xb8
EndSplineSet
Layer: 2
SplineSet
40 0 m 1,0,-1
 40 24 l 1,1,-1
 78 24 l 2,2,3
 87 24 87 24 90.5 27.5 c 128,-1,4
 94 31 94 31 94 40 c 2,5,-1
 94 434 l 2,6,7
 94 443 94 443 90.5 446.5 c 128,-1,8
 87 450 87 450 78 450 c 2,9,-1
 40 450 l 1,10,-1
 40 474 l 1,11,-1
 210 474 l 1,12,-1
 210 385 l 1,13,-1
 215 384 l 1,14,15
 235 430 235 430 266.5 458 c 128,-1,16
 298 486 298 486 339 486 c 0,17,18
 385 486 385 486 416 464 c 0,19,20
 441 446 441 446 455.5 414 c 128,-1,21
 470 382 470 382 470 348 c 2,22,-1
 470 40 l 2,23,24
 470 31 470 31 473.5 27.5 c 128,-1,25
 477 24 477 24 486 24 c 2,26,-1
 524 24 l 1,27,-1
 524 0 l 1,28,-1
 306 0 l 1,29,-1
 306 24 l 1,30,-1
 338 24 l 2,31,32
 347 24 347 24 350.5 27.5 c 128,-1,33
 354 31 354 31 354 40 c 2,34,-1
 354 377 l 2,35,36
 354 454 354 454 308 454 c 0,37,38
 288 454 288 454 265 427.5 c 128,-1,39
 242 401 242 401 226 353.5 c 128,-1,40
 210 306 210 306 210 254 c 2,41,-1
 210 40 l 2,42,43
 210 31 210 31 213.5 27.5 c 128,-1,44
 217 24 217 24 226 24 c 2,45,-1
 258 24 l 1,46,-1
 258 0 l 1,47,-1
 40 0 l 1,0,-1
EndSplineSet
EndChar

StartChar: o
Encoding: 111 111 79
Width: 504
Flags: W
TeX: 111 0
HStem: -12 24<217.876 286.124> 462 24<217.876 286.124>
VStem: 48 128<126.793 347.207> 328 128<126.793 347.207>
AnchorPoint: "Bottom" 252 0 basechar 0
AnchorPoint: "Top" 252 508 basechar 0
LayerCount: 3
Fore
SplineSet
176 237 m 0
 176 85 192 12 252 12 c 0
 312 12 328 85 328 237 c 0
 328 389 312 462 252 462 c 0
 192 462 176 389 176 237 c 0
48 237 m 0
 48 381 144 486 252 486 c 0
 360 486 456 381 456 237 c 0
 456 93 360 -12 252 -12 c 0
 144 -12 48 93 48 237 c 0
EndSplineSet
Layer: 2
SplineSet
176 237 m 128,-1,1
 176 118 176 118 192 65 c 128,-1,2
 208 12 208 12 252 12 c 128,-1,3
 296 12 296 12 312 65 c 128,-1,4
 328 118 328 118 328 237 c 128,-1,5
 328 356 328 356 312 409 c 128,-1,6
 296 462 296 462 252 462 c 128,-1,7
 208 462 208 462 192 409 c 128,-1,0
 176 356 176 356 176 237 c 128,-1,1
48 237 m 128,-1,9
 48 290 48 290 65 336.5 c 128,-1,10
 82 383 82 383 110 415.5 c 128,-1,11
 138 448 138 448 175 467 c 128,-1,12
 212 486 212 486 252 486 c 128,-1,13
 292 486 292 486 329 467 c 128,-1,14
 366 448 366 448 394 415.5 c 128,-1,15
 422 383 422 383 439 336.5 c 128,-1,16
 456 290 456 290 456 237 c 128,-1,17
 456 184 456 184 439 137.5 c 128,-1,18
 422 91 422 91 394 58.5 c 128,-1,19
 366 26 366 26 329 7 c 128,-1,20
 292 -12 292 -12 252 -12 c 128,-1,21
 212 -12 212 -12 175 7 c 128,-1,22
 138 26 138 26 110 58.5 c 128,-1,23
 82 91 82 91 65 137.5 c 128,-1,8
 48 184 48 184 48 237 c 128,-1,9
EndSplineSet
EndChar

StartChar: p
Encoding: 112 112 80
Width: 544
Flags: W
TeX: -112 0
HStem: -228 24<28 99.8047 216.195 288> -12 32<272.144 331.241> 450 24<28 99.8047> 454 32<271.158 331.691>
VStem: 100 116<-203.997 57 93.5485 380.783 416 449.997> 368 128<117.304 351.864>
AnchorPoint: "Top" 272 508 basechar 0
LayerCount: 3
Fore
SplineSet
216 240 m 0xdc
 216 84 270 20 302 20 c 0
 350 20 368 109 368 237 c 0
 368 365 350 454 302 454 c 0
 256 454 216 360 216 240 c 0xdc
28 -204 m 1
 84 -204 l 2
 96 -204 100 -200 100 -188 c 2
 100 434 l 2
 100 446 96 450 84 450 c 2
 28 450 l 1
 28 474 l 1
 216 474 l 1xec
 216 416 l 1
 222 416 l 1
 237 448 269 486 316 486 c 0
 423 486 496 363 496 237 c 0
 496 111 427 -12 320 -12 c 0
 275 -12 242 18 222 59 c 1
 216 57 l 1
 216 -188 l 2
 216 -200 220 -204 232 -204 c 2
 288 -204 l 1
 288 -228 l 1
 28 -228 l 1
 28 -204 l 1
EndSplineSet
Layer: 2
SplineSet
216 240 m 0,0,1
 216 184 216 184 225 140 c 128,-1,2
 234 96 234 96 247 71 c 128,-1,3
 260 46 260 46 274.5 33 c 128,-1,4
 289 20 289 20 302 20 c 0,5,6
 368 20 368 20 368 237 c 128,-1,7
 368 454 368 454 302 454 c 0,8,9
 279 454 279 454 259.5 426 c 128,-1,10
 240 398 240 398 228 348 c 128,-1,11
 216 298 216 298 216 240 c 0,0,1
28 -204 m 1,12,-1
 84 -204 l 2,13,14
 93 -204 93 -204 96.5 -200.5 c 128,-1,15
 100 -197 100 -197 100 -188 c 2,16,-1
 100 434 l 2,17,18
 100 443 100 443 96.5 446.5 c 128,-1,19
 93 450 93 450 84 450 c 2,20,-1
 28 450 l 1,21,-1
 28 474 l 1,22,-1
 216 474 l 1,23,-1
 216 416 l 1,24,-1
 222 416 l 1,25,26
 236 444 236 444 260 465 c 128,-1,27
 284 486 284 486 316 486 c 0,28,29
 368 486 368 486 410 450 c 128,-1,30
 452 414 452 414 474 357 c 128,-1,31
 496 300 496 300 496 237 c 128,-1,32
 496 174 496 174 475 117 c 128,-1,33
 454 60 454 60 413 24 c 128,-1,34
 372 -12 372 -12 320 -12 c 0,35,36
 288 -12 288 -12 263 7 c 128,-1,37
 238 26 238 26 222 59 c 1,38,-1
 216 57 l 1,39,-1
 216 -188 l 2,40,41
 216 -197 216 -197 219.5 -200.5 c 128,-1,42
 223 -204 223 -204 232 -204 c 2,43,-1
 288 -204 l 1,44,-1
 288 -228 l 1,45,-1
 28 -228 l 1,46,-1
 28 -204 l 1,12,-1
EndSplineSet
EndChar

StartChar: q
Encoding: 113 113 81
Width: 524
Flags: W
TeX: 113 0
HStem: -228 24<256 327.805 444.195 498> -12 32<212.759 271.856> 454 32<212.309 273.408>
VStem: 48 128<117.304 351.864> 328 116<-203.997 57 93.5485 380.783>
AnchorPoint: "Top" 224 508 basechar 0
LayerCount: 3
Fore
SplineSet
48 237 m 0
 48 363 121 486 228 486 c 0
 282 486 312 451 332 421 c 0
 348 396 356 388 371 388 c 0
 382 388 392 398 400 416 c 2
 428 474 l 1
 444 474 l 1
 444 -188 l 2
 444 -200 448 -204 460 -204 c 2
 498 -204 l 1
 498 -228 l 1
 256 -228 l 1
 256 -204 l 1
 312 -204 l 2
 324 -204 328 -200 328 -188 c 2
 328 57 l 1
 322 59 l 1
 302 18 269 -12 224 -12 c 0
 117 -12 48 111 48 237 c 0
176 237 m 0
 176 109 194 20 242 20 c 0
 274 20 328 84 328 240 c 0
 328 360 288 454 242 454 c 0
 194 454 176 365 176 237 c 0
EndSplineSet
Layer: 2
SplineSet
48 237 m 128,-1,1
 48 300 48 300 70 357 c 128,-1,2
 92 414 92 414 134 450 c 128,-1,3
 176 486 176 486 228 486 c 0,4,5
 264 486 264 486 288.5 468 c 128,-1,6
 313 450 313 450 332 421 c 0,7,8
 344 402 344 402 352 395 c 128,-1,9
 360 388 360 388 371 388 c 0,10,11
 388 388 388 388 400 416 c 2,12,-1
 428 474 l 1,13,-1
 444 474 l 1,14,-1
 444 -188 l 2,15,16
 444 -197 444 -197 447.5 -200.5 c 128,-1,17
 451 -204 451 -204 460 -204 c 2,18,-1
 498 -204 l 1,19,-1
 498 -228 l 1,20,-1
 256 -228 l 1,21,-1
 256 -204 l 1,22,-1
 312 -204 l 2,23,24
 321 -204 321 -204 324.5 -200.5 c 128,-1,25
 328 -197 328 -197 328 -188 c 2,26,-1
 328 57 l 1,27,-1
 322 59 l 1,28,29
 306 26 306 26 281 7 c 128,-1,30
 256 -12 256 -12 224 -12 c 0,31,32
 172 -12 172 -12 131 24 c 128,-1,33
 90 60 90 60 69 117 c 128,-1,0
 48 174 48 174 48 237 c 128,-1,1
176 237 m 128,-1,35
 176 20 176 20 242 20 c 0,36,37
 255 20 255 20 269.5 33 c 128,-1,38
 284 46 284 46 297 71 c 128,-1,39
 310 96 310 96 319 140 c 128,-1,40
 328 184 328 184 328 240 c 0,41,42
 328 298 328 298 316 348 c 128,-1,43
 304 398 304 398 284.5 426 c 128,-1,44
 265 454 265 454 242 454 c 0,45,34
 176 454 176 454 176 237 c 128,-1,35
EndSplineSet
EndChar

StartChar: r
Encoding: 114 114 82
Width: 434
Flags: W
TeX: 114 0
HStem: 0 24<40 93.8047 210.195 258> 446 40<275.561 341.499> 450 24<40 93.8047>
VStem: 94 116<24.0029 365.78 375 449.997> 308 100<370 445.979>
AnchorPoint: "Bottom" 152 0 basechar 0
AnchorPoint: "Top" 238 508 basechar 0
LayerCount: 3
Fore
SplineSet
40 0 m 1xd8
 40 24 l 1
 78 24 l 2
 90 24 94 28 94 40 c 2
 94 434 l 2
 94 446 90 450 78 450 c 2
 40 450 l 1
 40 474 l 1
 210 474 l 1xb8
 210 375 l 1
 215 374 l 1
 234 430 275 486 326 486 c 0
 375 486 408 446 408 394 c 0
 408 346 377 304 335 304 c 0
 299 304 270 329 270 361 c 0
 270 381 282 399 294 413 c 0
 301 421 308 429 308 436 c 0
 308 441 305 446 297 446 c 0
 256 446 210 350 210 241 c 2
 210 40 l 2
 210 28 214 24 226 24 c 2
 258 24 l 1
 258 0 l 1
 40 0 l 1xd8
EndSplineSet
Layer: 2
SplineSet
40 0 m 1,0,-1
 40 24 l 1,1,-1
 78 24 l 2,2,3
 87 24 87 24 90.5 27.5 c 128,-1,4
 94 31 94 31 94 40 c 2,5,-1
 94 434 l 2,6,7
 94 443 94 443 90.5 446.5 c 128,-1,8
 87 450 87 450 78 450 c 2,9,-1
 40 450 l 1,10,-1
 40 474 l 1,11,-1
 210 474 l 1,12,-1
 210 375 l 1,13,-1
 215 374 l 1,14,15
 230 420 230 420 260 453 c 128,-1,16
 290 486 290 486 326 486 c 128,-1,17
 362 486 362 486 385 460 c 128,-1,18
 408 434 408 434 408 394 c 0,19,20
 408 358 408 358 387 331 c 128,-1,21
 366 304 366 304 335 304 c 0,22,23
 308 304 308 304 289 320.5 c 128,-1,24
 270 337 270 337 270 361 c 128,-1,25
 270 385 270 385 294 413 c 0,26,27
 308 429 308 429 308 436 c 0,28,29
 308 446 308 446 297 446 c 0,30,31
 276 446 276 446 256 418 c 128,-1,32
 236 390 236 390 223 342 c 128,-1,33
 210 294 210 294 210 241 c 2,34,-1
 210 40 l 2,35,36
 210 31 210 31 213.5 27.5 c 128,-1,37
 217 24 217 24 226 24 c 2,38,-1
 258 24 l 1,39,-1
 258 0 l 1,40,-1
 40 0 l 1,0,-1
EndSplineSet
EndChar

StartChar: s
Encoding: 115 115 83
Width: 430
Flags: W
TeX: 115 0
HStem: -12 24<206.447 306.882> 462 24<146.41 234.5>
VStem: 58 68<304.696 427.489> 334 64<44.8873 163.5> 344 18<456 476>
AnchorPoint: "Bottom" 232 0 basechar 0
AnchorPoint: "Top" 212 508 basechar 0
LayerCount: 3
Fore
SplineSet
58 -12 m 25xf0
 58 186 l 25
 80 186 l 17
 125 107 l 2
 154 56 196 12 261 12 c 0
 315 12 334 46 334 72 c 0xf0
 334 112 308 130 209 178 c 0
 154 205 58 254 58 350 c 0
 58 435 120 486 192 486 c 0
 235 486 270 466 292 452 c 0
 306 443 315 440 322 440 c 0
 332 440 336 448 338 456 c 2
 344 476 l 9
 362 476 l 25
 362 316 l 25xe8
 340 316 l 17
 321 354 l 2
 284 428 234 462 188 462 c 0
 156 462 126 448 126 407 c 0
 126 360 175 325 232 298 c 0
 352 240 398 205 398 122 c 0
 398 36 336 -12 260 -12 c 0
 211 -12 173 10 156 20 c 0
 144 28 130 36 120 36 c 0
 102 36 88 24 83 9 c 2
 76 -12 l 9
 58 -12 l 25xf0
EndSplineSet
Layer: 2
SplineSet
58 -12 m 1,0,-1
 58 186 l 1,1,-1
 80 186 l 1,2,-1
 125 107 l 2,3,4
 179 12 179 12 261 12 c 0,5,6
 298 12 298 12 316 30.5 c 128,-1,7
 334 49 334 49 334 72 c 0,8,9
 334 101 334 101 310 121 c 128,-1,10
 286 141 286 141 209 178 c 0,11,12
 186 189 186 189 171 197.5 c 128,-1,13
 156 206 156 206 132.5 223 c 128,-1,14
 109 240 109 240 94.5 256 c 128,-1,15
 80 272 80 272 69 297 c 128,-1,16
 58 322 58 322 58 350 c 0,17,18
 58 412 58 412 97 449 c 128,-1,19
 136 486 136 486 192 486 c 0,20,21
 238 486 238 486 292 452 c 0,22,23
 310 440 310 440 322 440 c 128,-1,24
 334 440 334 440 338 456 c 2,25,-1
 344 476 l 1,26,-1
 362 476 l 1,27,-1
 362 316 l 1,28,-1
 340 316 l 1,29,-1
 321 354 l 2,30,31
 294 408 294 408 259 435 c 128,-1,32
 224 462 224 462 188 462 c 0,33,34
 161 462 161 462 143.5 449 c 128,-1,35
 126 436 126 436 126 407 c 0,36,37
 126 348 126 348 232 298 c 0,38,39
 328 252 328 252 363 217 c 128,-1,40
 398 182 398 182 398 122 c 0,41,42
 398 60 398 60 359 24 c 128,-1,43
 320 -12 320 -12 260 -12 c 0,44,45
 210 -12 210 -12 156 20 c 0,46,47
 132 36 132 36 120 36 c 0,48,49
 107 36 107 36 97 28 c 128,-1,50
 87 20 87 20 83 9 c 2,51,-1
 76 -12 l 1,52,-1
 58 -12 l 1,0,-1
EndSplineSet
EndChar

StartChar: t
Encoding: 116 116 84
Width: 364
Flags: W
TeX: 116 0
HStem: -12 44<206.485 280.74> 446 28<20 66.5371 196 298>
VStem: 80 116<38.625 446> 148 48<540.81 666> 312 28<91.7488 218>
AnchorPoint: "Top" 168 702 basechar 0
AnchorPoint: "Bottom" 198 0 basechar 0
LayerCount: 3
Fore
SplineSet
20 446 m 1xe8
 20 474 l 1
 97 484 148 540 148 630 c 2
 148 666 l 1
 196 666 l 1
 196 474 l 1xd8
 298 474 l 1
 298 446 l 1
 196 446 l 1
 196 105 l 2
 196 71 201 32 242 32 c 0
 307 32 312 158 312 218 c 1
 340 218 l 1
 340 150 332 76 309 39 c 0
 289 7 256 -12 212 -12 c 0
 128 -12 80 34 80 112 c 2
 80 446 l 1
 20 446 l 1xe8
EndSplineSet
Layer: 2
SplineSet
20 446 m 1,0,-1
 20 474 l 1,1,2
 79 482 79 482 113.5 523 c 128,-1,3
 148 564 148 564 148 630 c 2,4,-1
 148 666 l 1,5,-1
 196 666 l 1,6,-1
 196 474 l 1,7,-1
 298 474 l 1,8,-1
 298 446 l 1,9,-1
 196 446 l 1,10,-1
 196 105 l 2,11,12
 196 90 196 90 197.5 79 c 128,-1,13
 199 68 199 68 203.5 56 c 128,-1,14
 208 44 208 44 218 38 c 128,-1,15
 228 32 228 32 242 32 c 0,16,17
 312 32 312 32 312 218 c 1,18,-1
 340 218 l 1,19,20
 340 89 340 89 309 39 c 0,21,22
 277 -12 277 -12 212 -12 c 0,23,24
 149 -12 149 -12 114.5 21 c 128,-1,25
 80 54 80 54 80 112 c 2,26,-1
 80 446 l 1,27,-1
 20 446 l 1,0,-1
EndSplineSet
EndChar

StartChar: u
Encoding: 117 117 85
Width: 550
Flags: W
TeX: -117 0
HStem: -12 32<217.455 274.63> 0 24<464.195 518> 450 24<24 87.8047 284 347.805>
VStem: 88 116<47.2296 449.997> 348 116<24 89 104.857 450>
AnchorPoint: "Bottom" 276 0 basechar 0
AnchorPoint: "Top" 256 508 basechar 0
LayerCount: 3
Fore
SplineSet
24 450 m 1xb8
 24 474 l 1
 204 474 l 9
 204 97 l 2
 204 56 213 20 250 20 c 0xb8
 291 20 348 111 348 220 c 2
 348 434 l 2
 348 446 344 450 332 450 c 2
 284 450 l 1
 284 474 l 1
 464 474 l 1
 464 40 l 2
 464 28 468 24 480 24 c 2
 518 24 l 1
 518 0 l 1
 348 0 l 1x78
 348 89 l 1
 343 90 l 1
 318 32 277 -12 219 -12 c 0
 185 -12 163 -5 142 10 c 0
 108 35 88 82 88 126 c 2
 88 434 l 2
 88 446 84 450 72 450 c 2
 24 450 l 1xb8
EndSplineSet
Layer: 2
SplineSet
24 450 m 1,0,-1
 24 474 l 1,1,-1
 204 474 l 1,2,-1
 204 97 l 2,3,4
 204 20 204 20 250 20 c 0,5,6
 270 20 270 20 293 46.5 c 128,-1,7
 316 73 316 73 332 120.5 c 128,-1,8
 348 168 348 168 348 220 c 2,9,-1
 348 434 l 2,10,11
 348 443 348 443 344.5 446.5 c 128,-1,12
 341 450 341 450 332 450 c 2,13,-1
 284 450 l 1,14,-1
 284 474 l 1,15,-1
 464 474 l 1,16,-1
 464 40 l 2,17,18
 464 31 464 31 467.5 27.5 c 128,-1,19
 471 24 471 24 480 24 c 2,20,-1
 518 24 l 1,21,-1
 518 0 l 1,22,-1
 348 0 l 1,23,-1
 348 89 l 1,24,-1
 343 90 l 1,25,26
 323 44 323 44 291.5 16 c 128,-1,27
 260 -12 260 -12 219 -12 c 0,28,29
 173 -12 173 -12 142 10 c 0,30,31
 117 28 117 28 102.5 60 c 128,-1,32
 88 92 88 92 88 126 c 2,33,-1
 88 434 l 2,34,35
 88 443 88 443 84.5 446.5 c 128,-1,36
 81 450 81 450 72 450 c 2,37,-1
 24 450 l 1,0,-1
EndSplineSet
EndChar

StartChar: v
Encoding: 118 118 86
Width: 530
Flags: W
TeX: 118 0
HStem: -12 21G<238.723 285.2> 450 24<18 72.8396 213.669 263 330 380.793 450.931 500>
DStem2: 305 149 246 -12 0.34193 -0.939726<-290.64 0> 305 149 278 -12 0.338719 0.940887<0 275.88>
AnchorPoint: "Bottom" 266 0 basechar 0
AnchorPoint: "Top" 280 508 basechar 0
LayerCount: 3
Fore
SplineSet
18 450 m 1
 18 474 l 1
 263 474 l 1
 263 450 l 1
 234 450 l 2
 223 450 210 441 210 424 c 0
 210 418 212 408 216 396 c 10
 305 149 l 25
 384 368 l 2
 389 384 391 396 391 412 c 0
 391 430 377 450 356 450 c 2
 330 450 l 1
 330 474 l 1
 500 474 l 1
 500 450 l 1
 478 450 l 2
 456 450 437 430 422 388 c 10
 278 -12 l 25
 246 -12 l 9
 99 392 l 2
 85 431 72 450 35 450 c 2
 18 450 l 1
EndSplineSet
Layer: 2
SplineSet
18 450 m 1,0,-1
 18 474 l 1,1,-1
 263 474 l 1,2,-1
 263 450 l 1,3,-1
 234 450 l 2,4,5
 225 450 225 450 217.5 443 c 128,-1,6
 210 436 210 436 210 424 c 0,7,8
 210 414 210 414 216 396 c 2,9,-1
 305 149 l 1,10,-1
 384 368 l 2,11,12
 391 390 391 390 391 412 c 0,13,14
 391 426 391 426 381 438 c 128,-1,15
 371 450 371 450 356 450 c 2,16,-1
 330 450 l 1,17,-1
 330 474 l 1,18,-1
 500 474 l 1,19,-1
 500 450 l 1,20,-1
 478 450 l 2,21,22
 444 450 444 450 422 388 c 2,23,-1
 278 -12 l 1,24,-1
 246 -12 l 1,25,-1
 99 392 l 2,26,27
 88 424 88 424 74.5 437 c 128,-1,28
 61 450 61 450 35 450 c 2,29,-1
 18 450 l 1,0,-1
EndSplineSet
EndChar

StartChar: w
Encoding: 119 119 87
Width: 776
Flags: W
TeX: 119 0
HStem: -12 21G<238.772 285.21 491.417 537.2> 450 24<18 73.2695 212.66 249 294 338.578 477.669 527 582 633.375 702.931 752>
DStem2: 306 145 246 -12 0.339873 -0.940471<-294.752 0> 306 145 278 -12 0.339137 0.940737<0 181.904> 480 396 379 349 0.314818 -0.949152<-28.195 12.8136 57.0854 251.084> 560 158 530 -12 0.338719 0.940887<0 268.277>
AnchorPoint: "Bottom" 408 0 basechar 0
AnchorPoint: "Top" 408 508 basechar 0
LayerCount: 3
Fore
SplineSet
18 450 m 1
 18 474 l 1
 249 474 l 1
 249 450 l 1
 230 450 l 2
 219 450 210 441 210 424 c 0
 210 418 212 408 216 396 c 2
 306 145 l 1
 379 349 l 1
 364 392 l 2
 350 431 336 450 307 450 c 2
 294 450 l 1
 294 474 l 1
 527 474 l 1
 527 450 l 1
 498 450 l 2
 487 450 474 441 474 424 c 0
 474 418 476 408 480 396 c 2
 560 158 l 1
 636 369 l 2
 641 385 643 398 643 414 c 0
 643 431 629 450 608 450 c 2
 582 450 l 1
 582 474 l 1
 752 474 l 1
 752 450 l 1
 730 450 l 2
 708 450 689 430 674 388 c 2
 530 -12 l 1
 498 -12 l 1
 393 307 l 1
 278 -12 l 1
 246 -12 l 1
 100 392 l 2
 86 431 72 450 35 450 c 2
 18 450 l 1
EndSplineSet
Layer: 2
SplineSet
18 450 m 1,0,-1
 18 474 l 1,1,-1
 249 474 l 1,2,-1
 249 450 l 1,3,-1
 230 450 l 2,4,5
 222 450 222 450 216 443 c 128,-1,6
 210 436 210 436 210 424 c 0,7,8
 210 414 210 414 216 396 c 2,9,-1
 306 145 l 1,10,-1
 379 349 l 1,11,-1
 364 392 l 2,12,13
 353 423 353 423 340.5 436.5 c 128,-1,14
 328 450 328 450 307 450 c 2,15,-1
 294 450 l 1,16,-1
 294 474 l 1,17,-1
 527 474 l 1,18,-1
 527 450 l 1,19,-1
 498 450 l 2,20,21
 489 450 489 450 481.5 443 c 128,-1,22
 474 436 474 436 474 424 c 0,23,24
 474 414 474 414 480 396 c 2,25,-1
 560 158 l 1,26,-1
 636 369 l 2,27,28
 643 392 643 392 643 414 c 0,29,30
 643 428 643 428 633 439 c 128,-1,31
 623 450 623 450 608 450 c 2,32,-1
 582 450 l 1,33,-1
 582 474 l 1,34,-1
 752 474 l 1,35,-1
 752 450 l 1,36,-1
 730 450 l 2,37,38
 696 450 696 450 674 388 c 2,39,-1
 530 -12 l 1,40,-1
 498 -12 l 1,41,-1
 393 307 l 1,42,-1
 278 -12 l 1,43,-1
 246 -12 l 1,44,-1
 100 392 l 2,45,46
 89 424 89 424 75.5 437 c 128,-1,47
 62 450 62 450 35 450 c 2,48,-1
 18 450 l 1,0,-1
EndSplineSet
EndChar

StartChar: x
Encoding: 120 120 88
Width: 520
Flags: W
TeX: 120 0
HStem: 0 24<24 90.0737 171.581 228 273 301.786 455.366 500> 450 24<24 71.8792 221.885 253 293 357.634 418.128 470>
DStem2: 132 84 178 99 0.570445 0.821336<-2.5532 133.429 270.756 413.034> 287 306 216 204 0.516347 -0.85638<-138.791 0 31.3838 50.6901 82.0739 231.611>
AnchorPoint: "Bottom" 264 0 basechar 0
AnchorPoint: "Top" 276 508 basechar 0
LayerCount: 3
Fore
SplineSet
24 0 m 1
 24 24 l 1
 62 24 l 2
 90 24 117 62 132 84 c 2
 216 204 l 1
 89 414 l 2
 78 433 67 450 46 450 c 2
 24 450 l 1
 24 474 l 1
 253 474 l 1
 253 450 l 1
 239 450 l 2
 233 450 220 446 220 428 c 0
 220 421 222 413 228 404 c 2
 287 306 l 1
 348 395 l 2
 356 407 360 419 360 429 c 0
 360 444 344 450 333 450 c 2
 293 450 l 1
 293 474 l 1
 470 474 l 1
 470 450 l 1
 443 450 l 2
 422 450 403 423 382 393 c 2
 303 279 l 1
 433 64 l 2
 442 49 458 24 484 24 c 2
 500 24 l 1
 500 0 l 1
 273 0 l 1
 273 24 l 1
 288 24 l 2
 297 24 303 32 303 45 c 0
 303 49 302 61 293 75 c 2
 232 177 l 1
 178 99 l 2
 171 89 166 73 166 56 c 0
 166 37 178 24 191 24 c 2
 228 24 l 1
 228 0 l 1
 24 0 l 1
EndSplineSet
Layer: 2
SplineSet
24 0 m 1,0,-1
 24 24 l 1,1,-1
 62 24 l 2,2,3
 91 24 91 24 132 84 c 2,4,-1
 216 204 l 1,5,-1
 89 414 l 2,6,7
 82 426 82 426 77 432.5 c 128,-1,8
 72 439 72 439 64 444.5 c 128,-1,9
 56 450 56 450 46 450 c 2,10,-1
 24 450 l 1,11,-1
 24 474 l 1,12,-1
 253 474 l 1,13,-1
 253 450 l 1,14,-1
 239 450 l 2,15,16
 232 450 232 450 226 445 c 128,-1,17
 220 440 220 440 220 428 c 128,-1,18
 220 416 220 416 228 404 c 2,19,-1
 287 306 l 1,20,-1
 348 395 l 2,21,22
 360 413 360 413 360 429 c 0,23,24
 360 439 360 439 351.5 444.5 c 128,-1,25
 343 450 343 450 333 450 c 2,26,-1
 293 450 l 1,27,-1
 293 474 l 1,28,-1
 470 474 l 1,29,-1
 470 450 l 1,30,-1
 443 450 l 2,31,32
 433 450 433 450 421.5 441 c 128,-1,33
 410 432 410 432 403 422 c 128,-1,34
 396 412 396 412 382 393 c 2,35,-1
 303 279 l 1,36,-1
 433 64 l 2,37,38
 457 24 457 24 484 24 c 2,39,-1
 500 24 l 1,40,-1
 500 0 l 1,41,-1
 273 0 l 1,42,-1
 273 24 l 1,43,-1
 288 24 l 2,44,45
 295 24 295 24 299 30 c 128,-1,46
 303 36 303 36 303 45 c 0,47,48
 303 60 303 60 293 75 c 2,49,-1
 232 177 l 1,50,-1
 178 99 l 2,51,52
 166 82 166 82 166 56 c 0,53,54
 166 42 166 42 173.5 33 c 128,-1,55
 181 24 181 24 191 24 c 2,56,-1
 228 24 l 1,57,-1
 228 0 l 1,58,-1
 24 0 l 1,0,-1
EndSplineSet
EndChar

StartChar: y
Encoding: 121 121 89
Width: 524
Flags: W
TeX: 121 0
HStem: -238 32<123 198.127> 450 24<12 62 207.669 257 329 377.887 442.658 494>
VStem: 60 96<-205.151 -125.458>
DStem2: 229 -132 260 -117 0.288218 0.957565<-63.8607 114.843 293.574 565.449> 314 149 262 -22 0.385565 -0.922681<-295.887 0>
AnchorPoint: "Bottom" 388 0 basechar 0
AnchorPoint: "Top" 270 508 basechar 0
LayerCount: 3
Fore
SplineSet
12 450 m 1
 12 474 l 1
 257 474 l 1
 257 450 l 1
 228 450 l 2
 217 450 204 441 204 424 c 0
 204 418 206 408 211 396 c 2
 314 149 l 1
 379 368 l 2
 383 384 386 396 386 412 c 0
 386 430 376 450 355 450 c 2
 329 450 l 1
 329 474 l 1
 494 474 l 1
 494 450 l 1
 472 450 l 2
 450 450 425 431 412 388 c 2
 260 -117 l 2
 243 -175 212 -238 151 -238 c 0
 95 -238 60 -200 60 -147 c 0
 60 -104 90 -64 134 -64 c 0
 167 -64 189 -87 189 -114 c 0
 189 -132 179 -148 170 -156 c 0
 163 -162 156 -170 156 -182 c 0
 156 -192 162 -206 179 -206 c 0
 205 -206 220 -161 229 -132 c 2
 262 -22 l 1
 89 392 l 2
 73 430 63 450 27 450 c 2
 12 450 l 1
EndSplineSet
Layer: 2
SplineSet
12 450 m 1,0,-1
 12 474 l 1,1,-1
 257 474 l 1,2,-1
 257 450 l 1,3,-1
 228 450 l 2,4,5
 219 450 219 450 211.5 443 c 128,-1,6
 204 436 204 436 204 424 c 0,7,8
 204 413 204 413 211 396 c 2,9,-1
 314 149 l 1,10,-1
 379 368 l 2,11,12
 386 396 386 396 386 412 c 0,13,14
 386 427 386 427 378 438.5 c 128,-1,15
 370 450 370 450 355 450 c 2,16,-1
 329 450 l 1,17,-1
 329 474 l 1,18,-1
 494 474 l 1,19,-1
 494 450 l 1,20,-1
 472 450 l 2,21,22
 454 450 454 450 437.5 434 c 128,-1,23
 421 418 421 418 412 388 c 2,24,-1
 260 -117 l 2,25,26
 224 -238 224 -238 151 -238 c 0,27,28
 110 -238 110 -238 85 -213 c 128,-1,29
 60 -188 60 -188 60 -147 c 0,30,31
 60 -114 60 -114 81 -89 c 128,-1,32
 102 -64 102 -64 134 -64 c 0,33,34
 158 -64 158 -64 173.5 -78.5 c 128,-1,35
 189 -93 189 -93 189 -114 c 0,36,37
 189 -139 189 -139 170 -156 c 0,38,39
 156 -168 156 -168 156 -182 c 0,40,41
 156 -191 156 -191 162 -198.5 c 128,-1,42
 168 -206 168 -206 179 -206 c 0,43,44
 191 -206 191 -206 201.5 -192 c 128,-1,45
 212 -178 212 -178 217.5 -165 c 128,-1,46
 223 -152 223 -152 229 -132 c 2,47,-1
 262 -22 l 1,48,-1
 89 392 l 2,49,50
 75 424 75 424 63.5 437 c 128,-1,51
 52 450 52 450 27 450 c 2,52,-1
 12 450 l 1,0,-1
EndSplineSet
EndChar

StartChar: z
Encoding: 122 122 90
Width: 460
Flags: W
TeX: 122 0
HStem: 0 24<160 291.114> 450 24<163.216 282>
VStem: 60 24<298 346.584> 388 24<142.098 208>
DStem2: 32 26 160 24 0.508594 0.861006<63.3781 492.215>
AnchorPoint: "Bottom" 224 0 basechar 0
AnchorPoint: "Top" 238 508 basechar 0
LayerCount: 3
Fore
SplineSet
32 0 m 25
 32 26 l 25
 282 450 l 25
 214 450 l 18
 169 450 139 427 120 398 c 0
 91 353 84 298 84 298 c 1
 60 298 l 1
 66 474 l 9
 414 474 l 25
 414 454 l 25
 160 24 l 25
 246 24 l 18
 295 24 344 67 366 116 c 0
 386 158 388 208 388 208 c 1
 412 208 l 1
 406 0 l 9
 32 0 l 25
EndSplineSet
Layer: 2
SplineSet
32 0 m 1,0,-1
 32 26 l 1,1,-1
 282 450 l 1,2,-1
 214 450 l 2,3,4
 154 450 154 450 120 398 c 0,5,6
 107 378 107 378 98 353 c 128,-1,7
 89 328 89 328 86 313 c 2,8,-1
 84 298 l 1,9,-1
 60 298 l 1,10,-1
 66 474 l 1,11,-1
 414 474 l 1,12,-1
 414 454 l 1,13,-1
 160 24 l 1,14,-1
 246 24 l 2,15,16
 282 24 282 24 315.5 51 c 128,-1,17
 349 78 349 78 366 116 c 0,18,19
 375 134 375 134 380.5 157 c 128,-1,20
 386 180 386 180 387 194 c 2,21,-1
 388 208 l 1,22,-1
 412 208 l 1,23,-1
 406 0 l 1,24,-1
 32 0 l 1,0,-1
EndSplineSet
EndChar

StartChar: braceleft
Encoding: 123 123 91
Width: 420
Flags: W
TeX: 98 0
HStem: -198 28<304.693 348> 253 26<42 111.112> 702 28<304.693 348>
VStem: 140 112<-104.843 206.211 325.789 636.843>
CounterMasks: 1 e0
LayerCount: 3
Fore
SplineSet
42 253 m 9
 42 279 l 17
 100 279 140 288 140 360 c 2
 140 562 l 2
 140 668 232 708 346 730 c 9
 354 702 l 17
 286 688 252 671 252 604 c 2
 252 410 l 2
 252 316 198 281 137 267 c 1
 137 265 l 1
 198 251 252 216 252 122 c 2
 252 -72 l 2
 252 -139 286 -156 354 -170 c 9
 346 -198 l 17
 232 -176 140 -136 140 -30 c 2
 140 172 l 2
 140 244 100 253 42 253 c 9
EndSplineSet
Layer: 2
SplineSet
42 253 m 1,0,-1
 42 279 l 1,1,2
 66 279 66 279 82 281.5 c 128,-1,3
 98 284 98 284 112 292 c 128,-1,4
 126 300 126 300 133 317 c 128,-1,5
 140 334 140 334 140 360 c 2,6,-1
 140 562 l 2,7,8
 140 600 140 600 155.5 629 c 128,-1,9
 171 658 171 658 200.5 677.5 c 128,-1,10
 230 697 230 697 265 709 c 128,-1,11
 300 721 300 721 346 730 c 1,12,-1
 354 702 l 1,13,14
 298 690 298 690 275 671 c 128,-1,15
 252 652 252 652 252 604 c 2,16,-1
 252 410 l 2,17,18
 252 345 252 345 221 312 c 128,-1,19
 190 279 190 279 137 267 c 1,20,-1
 137 265 l 1,21,22
 190 253 190 253 221 220 c 128,-1,23
 252 187 252 187 252 122 c 2,24,-1
 252 -72 l 2,25,26
 252 -120 252 -120 275 -139 c 128,-1,27
 298 -158 298 -158 354 -170 c 1,28,-1
 346 -198 l 1,29,30
 300 -189 300 -189 265 -177 c 128,-1,31
 230 -165 230 -165 200.5 -145.5 c 128,-1,32
 171 -126 171 -126 155.5 -97 c 128,-1,33
 140 -68 140 -68 140 -30 c 2,34,-1
 140 172 l 2,35,36
 140 198 140 198 133 215 c 128,-1,37
 126 232 126 232 112 240 c 128,-1,38
 98 248 98 248 82 250.5 c 128,-1,39
 66 253 66 253 42 253 c 1,0,-1
EndSplineSet
EndChar

StartChar: bar
Encoding: 124 124 92
Width: 284
Flags: W
TeX: 98 0
HStem: 710 20G<108 176>
VStem: 108 68<-198 730>
LayerCount: 3
Fore
SplineSet
108 -198 m 25
 108 730 l 25
 176 730 l 25
 176 -198 l 25
 108 -198 l 25
EndSplineSet
Layer: 2
SplineSet
108 -198 m 1,0,-1
 108 730 l 1,1,-1
 176 730 l 1,2,-1
 176 -198 l 1,3,-1
 108 -198 l 1,0,-1
EndSplineSet
EndChar

StartChar: braceright
Encoding: 125 125 93
Width: 420
Flags: W
TeX: 98 0
HStem: -198 28<72 115.307> 253 26<308.888 378> 702 28<72 115.307>
VStem: 168 112<-104.843 206.211 325.789 636.843>
CounterMasks: 1 e0
LayerCount: 3
Fore
SplineSet
66 -170 m 17
 134 -156 168 -139 168 -72 c 2
 168 122 l 2
 168 216 222 251 283 265 c 1
 283 267 l 1
 222 281 168 316 168 410 c 2
 168 604 l 2
 168 671 134 688 66 702 c 9
 74 730 l 17
 188 708 280 668 280 562 c 2
 280 360 l 2
 280 288 320 279 378 279 c 9
 378 253 l 17
 320 253 280 244 280 172 c 2
 280 -30 l 2
 280 -136 188 -176 74 -198 c 9
 66 -170 l 17
EndSplineSet
Layer: 2
SplineSet
66 -170 m 1,0,1
 122 -158 122 -158 145 -139 c 128,-1,2
 168 -120 168 -120 168 -72 c 2,3,-1
 168 122 l 2,4,5
 168 187 168 187 199 220 c 128,-1,6
 230 253 230 253 283 265 c 1,7,-1
 283 267 l 1,8,9
 230 279 230 279 199 312 c 128,-1,10
 168 345 168 345 168 410 c 2,11,-1
 168 604 l 2,12,13
 168 652 168 652 145 671 c 128,-1,14
 122 690 122 690 66 702 c 1,15,-1
 74 730 l 1,16,17
 120 721 120 721 155 709 c 128,-1,18
 190 697 190 697 219.5 677.5 c 128,-1,19
 249 658 249 658 264.5 629 c 128,-1,20
 280 600 280 600 280 562 c 2,21,-1
 280 360 l 2,22,23
 280 334 280 334 287 317 c 128,-1,24
 294 300 294 300 308 292 c 128,-1,25
 322 284 322 284 338 281.5 c 128,-1,26
 354 279 354 279 378 279 c 1,27,-1
 378 253 l 1,28,29
 354 253 354 253 338 250.5 c 128,-1,30
 322 248 322 248 308 240 c 128,-1,31
 294 232 294 232 287 215 c 128,-1,32
 280 198 280 198 280 172 c 2,33,-1
 280 -30 l 2,34,35
 280 -68 280 -68 264.5 -97 c 128,-1,36
 249 -126 249 -126 219.5 -145.5 c 128,-1,37
 190 -165 190 -165 155 -177 c 128,-1,38
 120 -189 120 -189 74 -198 c 1,39,-1
 66 -170 l 1,0,1
EndSplineSet
EndChar

StartChar: asciitilde
Encoding: 126 126 94
Width: 660
Flags: W
TeX: 97 0
HStem: 164 80<448.675 568.99> 282 80<93.0102 213.325>
VStem: 48 36<196.831 275.319> 578 36<250.681 329.169>
LayerCount: 3
Fore
SplineSet
48 249 m 0
 48 304 87 362 164 362 c 0
 227 362 300 330 370 299 c 0
 434 270 495 244 538 244 c 0
 558 244 578 257 578 286 c 0
 578 316 561 333 536 346 c 9
 550 367 l 17
 592 348 614 315 614 277 c 0
 614 222 575 164 498 164 c 0
 435 164 362 196 292 227 c 0
 228 256 167 282 124 282 c 0
 104 282 84 269 84 240 c 0
 84 210 101 193 126 180 c 9
 112 159 l 17
 70 178 48 211 48 249 c 0
EndSplineSet
Layer: 2
SplineSet
48 249 m 0,0,1
 48 294 48 294 79 328 c 128,-1,2
 110 362 110 362 164 362 c 0,3,4
 194 362 194 362 232 351.5 c 128,-1,5
 270 341 270 341 297 330.5 c 128,-1,6
 324 320 324 320 370 299 c 0,7,8
 429 272 429 272 469 258 c 128,-1,9
 509 244 509 244 538 244 c 0,10,11
 554 244 554 244 566 255 c 128,-1,12
 578 266 578 266 578 286 c 0,13,14
 578 324 578 324 536 346 c 1,15,-1
 550 367 l 1,16,17
 581 353 581 353 597.5 329.5 c 128,-1,18
 614 306 614 306 614 277 c 0,19,20
 614 232 614 232 583 198 c 128,-1,21
 552 164 552 164 498 164 c 0,22,23
 468 164 468 164 430 174.5 c 128,-1,24
 392 185 392 185 365 195.5 c 128,-1,25
 338 206 338 206 292 227 c 0,26,27
 233 254 233 254 193 268 c 128,-1,28
 153 282 153 282 124 282 c 0,29,30
 108 282 108 282 96 271 c 128,-1,31
 84 260 84 260 84 240 c 0,32,33
 84 202 84 202 126 180 c 1,34,-1
 112 159 l 1,35,36
 81 173 81 173 64.5 196.5 c 128,-1,37
 48 220 48 220 48 249 c 0,0,1
EndSplineSet
EndChar

StartChar: exclamdown
Encoding: 161 161 96
Width: 280
Flags: W
TeX: 101 0
HStem: -238 21G<117 163> 348 156<85.4422 194.558>
VStem: 58 164<-209.813 -4.9082 375.587 476.413> 128 24<223.562 287>
LayerCount: 3
Fore
SplineSet
222 -140 m 0xe0
 222 -204 186 -238 140 -238 c 0
 94 -238 58 -204 58 -140 c 0xe0
 58 -92 71 -38 85 15 c 0
 96 58 108 110 112 142 c 10
 128 287 l 25
 152 287 l 25xd0
 168 142 l 18
 171 110 184 58 195 15 c 0
 209 -38 222 -92 222 -140 c 0xe0
218 426 m 0
 218 381 185 348 140 348 c 0
 95 348 62 381 62 426 c 0
 62 471 95 504 140 504 c 0
 185 504 218 471 218 426 c 0
EndSplineSet
Layer: 2
SplineSet
222 -140 m 0,0,1
 222 -186 222 -186 199 -212 c 128,-1,2
 176 -238 176 -238 140 -238 c 128,-1,3
 104 -238 104 -238 81 -212 c 128,-1,4
 58 -186 58 -186 58 -140 c 0,5,6
 58 -87 58 -87 85 15 c 0,7,8
 107 100 107 100 112 142 c 2,9,-1
 128 287 l 1,10,-1
 152 287 l 1,11,-1
 168 142 l 2,12,13
 171 108 171 108 195 15 c 0,14,15
 222 -87 222 -87 222 -140 c 0,0,1
218 426 m 128,-1,17
 218 392 218 392 196 370 c 128,-1,18
 174 348 174 348 140 348 c 128,-1,19
 106 348 106 348 84 370 c 128,-1,20
 62 392 62 392 62 426 c 128,-1,21
 62 460 62 460 84 482 c 128,-1,22
 106 504 106 504 140 504 c 128,-1,23
 174 504 174 504 196 482 c 128,-1,16
 218 460 218 460 218 426 c 128,-1,17
EndSplineSet
EndChar

StartChar: cent
Encoding: 162 162 97
Width: 580
VWidth: 959
Flags: W
TeX: 99 0
HStem: -11 29<334 381.516> 461 24<334 364.02>
VStem: 102 128<124.036 349.898> 294 40<-120 -8.6938 28 456 482.828 594> 390 68<335 424.861> 450 26<107.693 162>
LayerCount: 3
Fore
SplineSet
102 237 m 0xf4
 102 367 179 474 294 485 c 1
 294 594 l 1
 334 594 l 1
 334 485 l 1
 420 476 458 409 458 351 c 0
 458 319 439 280 398 280 c 0
 369 280 350 299 350 329 c 0
 350 349 364 365 373 375 c 0
 382 385 390 396 390 406 c 0xf8
 390 426 375 456 334 461 c 1
 334 18 l 1
 406 18 443 94 450 162 c 1
 476 162 l 1
 469 92 434 -1 334 -11 c 1
 334 -120 l 1
 294 -120 l 1
 294 -11 l 1
 178 1 102 108 102 237 c 0xf4
230 237 m 0
 230 181 230 138 241 99 c 0
 249 66 268 41 294 28 c 1
 294 456 l 1
 248 433 230 350 230 237 c 0
EndSplineSet
Layer: 2
SplineSet
102 237 m 128,-1,1
 102 336 102 336 155.5 406.5 c 128,-1,2
 209 477 209 477 294 485 c 1,3,-1
 294 594 l 1,4,-1
 334 594 l 1,5,-1
 334 485 l 1,6,7
 394 478 394 478 426 439 c 128,-1,8
 458 400 458 400 458 351 c 0,9,10
 458 324 458 324 442 302 c 128,-1,11
 426 280 426 280 398 280 c 0,12,13
 376 280 376 280 363 293 c 128,-1,14
 350 306 350 306 350 329 c 0,15,16
 350 350 350 350 373 375 c 0,17,18
 390 394 390 394 390 406 c 0,19,20
 390 424 390 424 376 441 c 128,-1,21
 362 458 362 458 334 461 c 1,22,-1
 334 18 l 1,23,24
 360 18 360 18 381.5 31 c 128,-1,25
 403 44 403 44 416.5 65 c 128,-1,26
 430 86 430 86 439 111 c 128,-1,27
 448 136 448 136 450 162 c 1,28,-1
 476 162 l 1,29,30
 473 133 473 133 464.5 106.5 c 128,-1,31
 456 80 456 80 440 54 c 128,-1,32
 424 28 424 28 397 10 c 128,-1,33
 370 -8 370 -8 334 -11 c 1,34,-1
 334 -120 l 1,35,-1
 294 -120 l 1,36,-1
 294 -11 l 1,37,38
 208 -2 208 -2 155 68 c 128,-1,0
 102 138 102 138 102 237 c 128,-1,1
230 237 m 0,39,40
 230 201 230 201 230.5 183.5 c 128,-1,41
 231 166 231 166 233.5 142 c 128,-1,42
 236 118 236 118 241 99 c 0,43,44
 254 48 254 48 294 28 c 1,45,-1
 294 456 l 1,46,47
 230 424 230 424 230 237 c 0,39,40
EndSplineSet
EndChar

StartChar: sterling
Encoding: 163 163 98
Width: 720
VWidth: 1080
Flags: W
TeX: 115 0
HStem: -18 98<361.682 535.795> -12 24<112.838 211.733> 110 40<103.359 215.113> 348 36<398 517.582> 382 36<141.468 241> 702 26<440.031 540.532>
VStem: 64 28<28.6305 93.6795> 236 148<416.903 590.212> 296 106<156.5 288.889> 568 86<567 654.907>
LayerCount: 3
Fore
SplineSet
64 65 m 0x66c0
 64 116 116 150 156 150 c 0
 202 150 239 137 290 117 c 1
 294 132 296 148 296 165 c 0x66c0
 296 206 286 254 271 299 c 0
 262 324 254 351 248 380 c 1
 237 381 226 382 215 382 c 0
 177 382 163 374 139 360 c 1
 123 390 l 1
 139 404 161 418 205 418 c 0
 217 418 229 417 241 416 c 1
 238 437 236 460 236 484 c 0
 236 642 351 728 482 728 c 0
 595 728 654 650 654 589 c 0
 654 545 619 504 577 504 c 0
 550 504 517 524 517 557 c 0
 517 587 533 600 548 612 c 0
 566 628 568 639 568 653 c 0
 568 672 544 702 482 702 c 0
 408 702 384 615 384 536 c 0x6f40
 384 490 389 438 394 389 c 1
 413 386 432 384 449 384 c 0
 487 384 505 394 525 406 c 1
 541 376 l 1
 528 363 503 348 459 348 c 0
 439 348 418 350 398 353 c 1
 400 329 402 298 402 274 c 0
 402 214 380 151 344 100 c 1
 396 86 438 80 492 80 c 0
 558 80 617 123 651 181 c 1
 676 170 l 1
 645 90 571 -18 445 -18 c 0xb6c0
 395 -18 339 12 293 42 c 1
 254 9 209 -12 162 -12 c 0
 112 -12 64 8 64 65 c 0x66c0
92 59 m 0
 92 21 134 12 162 12 c 0
 197 12 235 30 262 63 c 1
 223 88 185 110 150 110 c 0
 116 110 92 90 92 59 c 0
EndSplineSet
Layer: 2
SplineSet
64 65 m 0,0,1
 64 101 64 101 94 125.5 c 128,-1,2
 124 150 124 150 156 150 c 128,-1,3
 188 150 188 150 217 142 c 128,-1,4
 246 134 246 134 290 117 c 1,5,6
 296 140 296 140 296 165 c 0,7,8
 296 224 296 224 271 299 c 0,9,10
 256 340 256 340 248 380 c 1,11,12
 226 382 226 382 215 382 c 0,13,14
 197 382 197 382 183.5 379 c 128,-1,15
 170 376 170 376 162 372 c 128,-1,16
 154 368 154 368 139 360 c 1,17,-1
 123 390 l 1,18,19
 155 418 155 418 205 418 c 0,20,21
 217 418 217 418 241 416 c 1,22,23
 236 451 236 451 236 484 c 0,24,25
 236 560 236 560 270.5 616.5 c 128,-1,26
 305 673 305 673 360 700.5 c 128,-1,27
 415 728 415 728 482 728 c 0,28,29
 522 728 522 728 556 715 c 128,-1,30
 590 702 590 702 611 681 c 128,-1,31
 632 660 632 660 643 636 c 128,-1,32
 654 612 654 612 654 589 c 0,33,34
 654 556 654 556 631 530 c 128,-1,35
 608 504 608 504 577 504 c 0,36,37
 555 504 555 504 536 519 c 128,-1,38
 517 534 517 534 517 557 c 0,39,40
 517 571 517 571 522.5 582.5 c 128,-1,41
 528 594 528 594 533 599 c 128,-1,42
 538 604 538 604 548 612 c 0,43,44
 560 623 560 623 564 632 c 128,-1,45
 568 641 568 641 568 653 c 0,46,47
 568 670 568 670 546 686 c 128,-1,48
 524 702 524 702 482 702 c 0,49,50
 456 702 456 702 436 687.5 c 128,-1,51
 416 673 416 673 405 648.5 c 128,-1,52
 394 624 394 624 389 596 c 128,-1,53
 384 568 384 568 384 536 c 0,54,55
 384 487 384 487 394 389 c 1,56,57
 426 384 426 384 449 384 c 0,58,59
 474 384 474 384 490 389.5 c 128,-1,60
 506 395 506 395 525 406 c 1,61,-1
 541 376 l 1,62,63
 513 348 513 348 459 348 c 0,64,65
 432 348 432 348 398 353 c 1,66,67
 402 305 402 305 402 274 c 0,68,69
 402 182 402 182 344 100 c 1,70,71
 418 80 418 80 492 80 c 0,72,73
 540 80 540 80 582 108 c 128,-1,74
 624 136 624 136 651 181 c 1,75,-1
 676 170 l 1,76,77
 666 144 666 144 652 119.5 c 128,-1,78
 638 95 638 95 617 69.5 c 128,-1,79
 596 44 596 44 572 25 c 128,-1,80
 548 6 548 6 514.5 -6 c 128,-1,81
 481 -18 481 -18 445 -18 c 0,82,83
 385 -18 385 -18 293 42 c 1,84,85
 229 -12 229 -12 162 -12 c 0,86,87
 120 -12 120 -12 92 6.5 c 128,-1,88
 64 25 64 25 64 65 c 0,0,1
92 59 m 0,89,90
 92 42 92 42 104 30.5 c 128,-1,91
 116 19 116 19 131 15.5 c 128,-1,92
 146 12 146 12 162 12 c 0,93,94
 189 12 189 12 215.5 25 c 128,-1,95
 242 38 242 38 262 63 c 1,96,97
 226 86 226 86 200 98 c 128,-1,98
 174 110 174 110 150 110 c 0,99,100
 124 110 124 110 108 96 c 128,-1,101
 92 82 92 82 92 59 c 0,89,90
EndSplineSet
EndChar

StartChar: currency
Encoding: 164 164 99
Width: 580
Flags: W
TeX: 99 0
HStem: 110 64<202.747 377.253> 512 64<202.901 377.099>
VStem: 58 64<254.125 429.448> 458 64<254.125 429.448>
DStem2: 80 595 38 553 0.707107 -0.707107<0 99.546 553.849 653.367> 38 133 80 91 0.707107 0.707107<0 99.5179 553.821 653.367>
LayerCount: 3
Fore
SplineSet
122 342 m 0
 122 242 190 174 290 174 c 0
 390 174 458 242 458 342 c 0
 458 442 390 512 290 512 c 0
 190 512 122 442 122 342 c 0
38 133 m 1
 106 201 l 1
 76 240 58 289 58 342 c 0
 58 395 76 445 106 485 c 1
 38 553 l 1
 80 595 l 1
 148 527 l 1
 187 558 237 576 290 576 c 0
 343 576 393 558 432 527 c 1
 500 595 l 1
 542 553 l 1
 474 485 l 1
 504 445 522 395 522 342 c 0
 522 289 504 240 474 201 c 1
 542 133 l 1
 500 91 l 1
 432 159 l 1
 393 128 344 110 290 110 c 0
 236 110 187 128 148 159 c 1
 80 91 l 1
 38 133 l 1
EndSplineSet
Layer: 2
SplineSet
122 342 m 128,-1,1
 122 267 122 267 168.5 220.5 c 128,-1,2
 215 174 215 174 290 174 c 128,-1,3
 365 174 365 174 411.5 220.5 c 128,-1,4
 458 267 458 267 458 342 c 128,-1,5
 458 417 458 417 411.5 464.5 c 128,-1,6
 365 512 365 512 290 512 c 128,-1,7
 215 512 215 512 168.5 464.5 c 128,-1,0
 122 417 122 417 122 342 c 128,-1,1
38 133 m 1,8,-1
 106 201 l 1,9,10
 58 264 58 264 58 342 c 0,11,12
 58 421 58 421 106 485 c 1,13,-1
 38 553 l 1,14,-1
 80 595 l 1,15,-1
 148 527 l 1,16,17
 210 576 210 576 290 576 c 128,-1,18
 370 576 370 576 432 527 c 1,19,-1
 500 595 l 1,20,-1
 542 553 l 1,21,-1
 474 485 l 1,22,23
 522 421 522 421 522 342 c 0,24,25
 522 264 522 264 474 201 c 1,26,-1
 542 133 l 1,27,-1
 500 91 l 1,28,-1
 432 159 l 1,29,30
 370 110 370 110 290 110 c 128,-1,31
 210 110 210 110 148 159 c 1,32,-1
 80 91 l 1,33,-1
 38 133 l 1,8,-1
EndSplineSet
EndChar

StartChar: yen
Encoding: 165 165 100
Width: 580
VWidth: 1080
Flags: W
TeX: 121 0
HStem: 0 32<116 211.156 360.844 456> 228 32<72 212 360 500> 326 32<72 203 360 500> 680 32<18 66.2859 239.984 282 385 434.909 514.061 562>
VStem: 212 148<32.0527 228 260 326>
DStem2: 246 632 80 641 0.398608 -0.917122<-24.5413 234.151> 346 402 360 358 0.428086 0.903738<0 253.609>
LayerCount: 3
Fore
SplineSet
18 680 m 1
 18 712 l 1
 282 712 l 1
 282 680 l 1
 258 680 l 2
 246 680 239 669 239 656 c 0
 239 650 241 642 246 632 c 2
 346 402 l 1
 430 582 l 2
 436 595 442 620 442 638 c 0
 442 650 435 680 410 680 c 2
 385 680 l 1
 385 712 l 1
 562 712 l 1
 562 680 l 1
 546 680 l 2
 514 680 492 637 477 605 c 2
 360 358 l 1
 500 358 l 1
 500 326 l 1
 360 326 l 1
 360 260 l 1
 500 260 l 1
 500 228 l 1
 360 228 l 1
 360 56 l 2
 360 40 368 32 384 32 c 2
 456 32 l 1
 456 0 l 1
 116 0 l 1
 116 32 l 1
 188 32 l 2
 204 32 212 40 212 56 c 2
 212 228 l 1
 72 228 l 1
 72 260 l 1
 212 260 l 1
 212 326 l 1
 72 326 l 1
 72 358 l 1
 203 358 l 1
 80 641 l 2
 70 663 58 680 36 680 c 2
 18 680 l 1
EndSplineSet
Layer: 2
SplineSet
18 680 m 1,0,-1
 18 712 l 1,1,-1
 282 712 l 1,2,-1
 282 680 l 1,3,-1
 258 680 l 2,4,5
 250 680 250 680 244.5 673 c 128,-1,6
 239 666 239 666 239 656 c 128,-1,7
 239 646 239 646 246 632 c 2,8,-1
 346 402 l 1,9,-1
 430 582 l 2,10,11
 442 608 442 608 442 638 c 0,12,13
 442 652 442 652 434 666 c 128,-1,14
 426 680 426 680 410 680 c 2,15,-1
 385 680 l 1,16,-1
 385 712 l 1,17,-1
 562 712 l 1,18,-1
 562 680 l 1,19,-1
 546 680 l 2,20,21
 531 680 531 680 516.5 667 c 128,-1,22
 502 654 502 654 494.5 640 c 128,-1,23
 487 626 487 626 477 605 c 2,24,-1
 360 358 l 1,25,-1
 500 358 l 1,26,-1
 500 326 l 1,27,-1
 360 326 l 1,28,-1
 360 260 l 1,29,-1
 500 260 l 1,30,-1
 500 228 l 1,31,-1
 360 228 l 1,32,-1
 360 56 l 2,33,34
 360 32 360 32 384 32 c 2,35,-1
 456 32 l 1,36,-1
 456 0 l 1,37,-1
 116 0 l 1,38,-1
 116 32 l 1,39,-1
 188 32 l 2,40,41
 212 32 212 32 212 56 c 2,42,-1
 212 228 l 1,43,-1
 72 228 l 1,44,-1
 72 260 l 1,45,-1
 212 260 l 1,46,-1
 212 326 l 1,47,-1
 72 326 l 1,48,-1
 72 358 l 1,49,-1
 203 358 l 1,50,-1
 80 641 l 2,51,52
 62 680 62 680 36 680 c 2,53,-1
 18 680 l 1,0,-1
EndSplineSet
EndChar

StartChar: brokenbar
Encoding: 166 166 101
Width: 284
Flags: W
TeX: 98 0
HStem: -168 21G<108 176> 710 20G<108 176>
VStem: 108 68<-168 192 370 730>
LayerCount: 3
Fore
SplineSet
108 -168 m 17
 108 192 l 1
 176 192 l 1
 176 -168 l 9
 108 -168 l 17
108 370 m 1
 108 730 l 9
 176 730 l 17
 176 370 l 1
 108 370 l 1
EndSplineSet
Layer: 2
SplineSet
108 -168 m 1,0,-1
 108 192 l 1,1,-1
 176 192 l 1,2,-1
 176 -168 l 1,3,-1
 108 -168 l 1,0,-1
108 370 m 1,4,-1
 108 730 l 1,5,-1
 176 730 l 1,6,-1
 176 370 l 1,7,-1
 108 370 l 1,4,-1
EndSplineSet
EndChar

StartChar: section
Encoding: 167 167 102
Width: 640
Flags: W
TeX: 115 0
HStem: -198 28<200.22 323.359> 696 28<230.641 353.78>
VStem: 50 56<236.5 357.294> 92 80<-130.106 -34.5 515.068 628.413> 382 80<-102.413 10.9321 560.5 656.106> 448 56<168.706 289.5>
DStem2: 142 270 156 121 0.901523 -0.432731<-21.328 306.281> 247 476 212 352 0.901523 -0.432731<-62.3294 267.478>
LayerCount: 3
Fore
SplineSet
50 274 m 0xe8
 50 338 86 390 127 419 c 1
 104 451 92 491 92 543 c 0
 92 650 181 724 291 724 c 0
 405 724 462 654 462 590 c 0
 462 531 422 494 374 494 c 0
 336 494 311 518 311 552 c 0
 311 582 327 597 348 609 c 0
 363 618 382 634 382 650 c 0xd8
 382 682 325 696 289 696 c 0
 227 696 172 658 172 586 c 0
 172 526 201 498 247 476 c 2
 398 405 l 2
 464 374 504 327 504 252 c 0xd4
 504 188 468 136 427 107 c 1
 450 75 462 35 462 -17 c 0
 462 -124 373 -198 263 -198 c 0
 149 -198 92 -128 92 -64 c 0
 92 -5 132 32 180 32 c 0
 218 32 243 8 243 -26 c 0
 243 -56 227 -71 206 -83 c 0
 191 -92 172 -108 172 -124 c 0xd8
 172 -156 229 -170 265 -170 c 0
 327 -170 382 -132 382 -60 c 0
 382 0 353 28 307 50 c 2
 156 121 l 2
 90 152 50 199 50 274 c 0xe8
106 337 m 0xe4
 106 307 118 282 142 270 c 2
 342 174 l 2
 371 160 394 144 413 124 c 1
 440 145 448 163 448 189 c 0
 448 219 436 244 412 256 c 2
 212 352 l 2
 183 366 160 382 141 402 c 1
 114 381 106 363 106 337 c 0xe4
EndSplineSet
Layer: 2
SplineSet
50 274 m 0,0,1
 50 320 50 320 72 358 c 128,-1,2
 94 396 94 396 127 419 c 1,3,4
 92 468 92 468 92 543 c 0,5,6
 92 622 92 622 149.5 673 c 128,-1,7
 207 724 207 724 291 724 c 0,8,9
 371 724 371 724 416.5 683.5 c 128,-1,10
 462 643 462 643 462 590 c 0,11,12
 462 547 462 547 436.5 520.5 c 128,-1,13
 411 494 411 494 374 494 c 0,14,15
 346 494 346 494 328.5 510 c 128,-1,16
 311 526 311 526 311 552 c 0,17,18
 311 588 311 588 348 609 c 0,19,20
 382 630 382 630 382 650 c 0,21,22
 382 665 382 665 366 676 c 128,-1,23
 350 687 350 687 329.5 691.5 c 128,-1,24
 309 696 309 696 289 696 c 0,25,26
 240 696 240 696 206 667 c 128,-1,27
 172 638 172 638 172 586 c 0,28,29
 172 544 172 544 191 519 c 128,-1,30
 210 494 210 494 247 476 c 2,31,-1
 398 405 l 2,32,33
 504 355 504 355 504 252 c 0,34,35
 504 206 504 206 482 168 c 128,-1,36
 460 130 460 130 427 107 c 1,37,38
 462 58 462 58 462 -17 c 0,39,40
 462 -96 462 -96 404.5 -147 c 128,-1,41
 347 -198 347 -198 263 -198 c 0,42,43
 183 -198 183 -198 137.5 -157.5 c 128,-1,44
 92 -117 92 -117 92 -64 c 0,45,46
 92 -21 92 -21 117.5 5.5 c 128,-1,47
 143 32 143 32 180 32 c 0,48,49
 208 32 208 32 225.5 16 c 128,-1,50
 243 0 243 0 243 -26 c 0,51,52
 243 -62 243 -62 206 -83 c 0,53,54
 172 -104 172 -104 172 -124 c 0,55,56
 172 -139 172 -139 188 -150 c 128,-1,57
 204 -161 204 -161 224.5 -165.5 c 128,-1,58
 245 -170 245 -170 265 -170 c 0,59,60
 314 -170 314 -170 348 -141 c 128,-1,61
 382 -112 382 -112 382 -60 c 0,62,63
 382 -18 382 -18 363 7 c 128,-1,64
 344 32 344 32 307 50 c 2,65,-1
 156 121 l 2,66,67
 50 171 50 171 50 274 c 0,0,1
106 337 m 0,68,69
 106 288 106 288 142 270 c 2,70,-1
 342 174 l 2,71,72
 386 153 386 153 413 124 c 1,73,74
 432 140 432 140 440 154.5 c 128,-1,75
 448 169 448 169 448 189 c 0,76,77
 448 238 448 238 412 256 c 2,78,-1
 212 352 l 2,79,80
 168 373 168 373 141 402 c 1,81,82
 122 386 122 386 114 371.5 c 128,-1,83
 106 357 106 357 106 337 c 0,68,69
EndSplineSet
EndChar

StartChar: dieresis
Encoding: 168 168 103
Width: 440
Flags: W
TeX: 78 0
HStem: 554 128<77.3863 174.614 265.386 362.614>
VStem: 62 128<569.386 666.614> 250 128<569.386 666.614>
LayerCount: 3
Fore
SplineSet
250 618 m 0
 250 654 278 682 314 682 c 0
 350 682 378 654 378 618 c 0
 378 582 350 554 314 554 c 0
 278 554 250 582 250 618 c 0
62 618 m 0
 62 654 90 682 126 682 c 0
 162 682 190 654 190 618 c 0
 190 582 162 554 126 554 c 0
 90 554 62 582 62 618 c 0
EndSplineSet
Layer: 2
SplineSet
250 618 m 128,-1,1
 250 645 250 645 268.5 663.5 c 128,-1,2
 287 682 287 682 314 682 c 128,-1,3
 341 682 341 682 359.5 663.5 c 128,-1,4
 378 645 378 645 378 618 c 128,-1,5
 378 591 378 591 359.5 572.5 c 128,-1,6
 341 554 341 554 314 554 c 128,-1,7
 287 554 287 554 268.5 572.5 c 128,-1,0
 250 591 250 591 250 618 c 128,-1,1
62 618 m 128,-1,9
 62 645 62 645 80.5 663.5 c 128,-1,10
 99 682 99 682 126 682 c 128,-1,11
 153 682 153 682 171.5 663.5 c 128,-1,12
 190 645 190 645 190 618 c 128,-1,13
 190 591 190 591 171.5 572.5 c 128,-1,14
 153 554 153 554 126 554 c 128,-1,15
 99 554 99 554 80.5 572.5 c 128,-1,8
 62 591 62 591 62 618 c 128,-1,9
EndSplineSet
EndChar

StartChar: copyright
Encoding: 169 169 104
Width: 820
Flags: W
TeX: 99 0
HStem: -18 36<310.354 509.646> 110 28<385.703 477.344> 566 28<379.74 458.971> 694 36<310.354 509.646>
VStem: 48 40<242.922 469.078> 220 128<236.418 470.086> 538 24<390 442.354> 550 26<235.447 300> 732 40<242.922 469.078>
LayerCount: 3
Fore
SplineSet
88 356 m 0xfc80
 88 172 226 18 410 18 c 0
 594 18 732 172 732 356 c 0
 732 540 594 694 410 694 c 0
 226 694 88 540 88 356 c 0xfc80
48 356 m 0
 48 562 204 730 410 730 c 0
 616 730 772 562 772 356 c 0
 772 150 616 -18 410 -18 c 0
 204 -18 48 150 48 356 c 0
220 351 m 0
 220 481 287 594 401 594 c 0
 436 594 463 583 489 564 c 0
 498 558 508 552 513 552 c 0
 521 552 525 557 528 565 c 2
 537 588 l 9
 562 588 l 25
 562 390 l 25
 538 390 l 17xfe80
 520 499 474 566 415 566 c 0
 382 566 348 538 348 447 c 2
 348 256 l 2
 348 165 388 138 422 138 c 0
 478 138 508 170 526 205 c 0
 540 234 546 270 550 300 c 1
 576 300 l 1xfd80
 574 264 565 223 549 192 c 0
 523 142 476 110 411 110 c 0
 283 110 220 230 220 351 c 0
EndSplineSet
Layer: 2
SplineSet
88 356 m 128,-1,1
 88 265 88 265 130 187.5 c 128,-1,2
 172 110 172 110 246 64 c 128,-1,3
 320 18 320 18 410 18 c 128,-1,4
 500 18 500 18 574 64 c 128,-1,5
 648 110 648 110 690 187.5 c 128,-1,6
 732 265 732 265 732 356 c 128,-1,7
 732 447 732 447 690 524.5 c 128,-1,8
 648 602 648 602 574 648 c 128,-1,9
 500 694 500 694 410 694 c 128,-1,10
 320 694 320 694 246 648 c 128,-1,11
 172 602 172 602 130 524.5 c 128,-1,0
 88 447 88 447 88 356 c 128,-1,1
48 356 m 128,-1,13
 48 432 48 432 76 501 c 128,-1,14
 104 570 104 570 152 620 c 128,-1,15
 200 670 200 670 267 700 c 128,-1,16
 334 730 334 730 410 730 c 128,-1,17
 486 730 486 730 553 700 c 128,-1,18
 620 670 620 670 668 620 c 128,-1,19
 716 570 716 570 744 501 c 128,-1,20
 772 432 772 432 772 356 c 128,-1,21
 772 280 772 280 744 211 c 128,-1,22
 716 142 716 142 668 92 c 128,-1,23
 620 42 620 42 553 12 c 128,-1,24
 486 -18 486 -18 410 -18 c 128,-1,25
 334 -18 334 -18 267 12 c 128,-1,26
 200 42 200 42 152 92 c 128,-1,27
 104 142 104 142 76 211 c 128,-1,12
 48 280 48 280 48 356 c 128,-1,13
220 351 m 0,28,29
 220 417 220 417 241 471.5 c 128,-1,30
 262 526 262 526 304 560 c 128,-1,31
 346 594 346 594 401 594 c 0,32,33
 448 594 448 594 489 564 c 0,34,35
 507 552 507 552 513 552 c 0,36,37
 523 552 523 552 528 565 c 2,38,-1
 537 588 l 1,39,-1
 562 588 l 1,40,-1
 562 390 l 1,41,-1
 538 390 l 1,42,43
 524 472 524 472 491.5 519 c 128,-1,44
 459 566 459 566 415 566 c 0,45,46
 386 566 386 566 367 538 c 128,-1,47
 348 510 348 510 348 447 c 2,48,-1
 348 256 l 2,49,50
 348 194 348 194 370 166 c 128,-1,51
 392 138 392 138 422 138 c 0,52,53
 492 138 492 138 526 205 c 0,54,55
 542 238 542 238 550 300 c 1,56,-1
 576 300 l 1,57,58
 572 238 572 238 549 192 c 0,59,60
 529 154 529 154 493.5 132 c 128,-1,61
 458 110 458 110 411 110 c 128,-1,62
 364 110 364 110 327 130.5 c 128,-1,63
 290 151 290 151 267 185.5 c 128,-1,64
 244 220 244 220 232 262 c 128,-1,65
 220 304 220 304 220 351 c 0,28,29
EndSplineSet
EndChar

StartChar: ordfeminine
Encoding: 170 170 105
Width: 380
VWidth: 959
Flags: W
TeX: 111 0
HStem: 354 32<52 328> 410 30<110.5 177.782 249.5 306.916> 694 18<124.365 181.902>
VStem: 44 88<441.701 536.226> 60 54<617.065 682.382> 198 84<446.244 581 599 679.392> 316 20<453.723 504>
DStem2: 159 585 170 571 0.941195 0.337865<-20.4328 35.3551>
LayerCount: 3
Fore
SplineSet
52 354 m 25xe6
 52 386 l 25
 328 386 l 25
 328 354 l 25
 52 354 l 25xe6
132 490 m 0xf6
 132 448 151 440 162 440 c 0
 178 440 189 448 198 463 c 9
 198 581 l 17
 170 571 l 2
 143 561 132 533 132 490 c 0xf6
44 483 m 0
 44 545 109 568 159 585 c 10
 198 599 l 25
 198 639 l 18
 198 680 180 694 156 694 c 0
 135 694 114 685 114 667 c 0
 114 663 116 655 125 650 c 0
 137 643 143 637 143 624 c 0
 143 603 122 594 104 594 c 0
 83 594 60 607 60 635 c 0xee
 60 684 115 712 163 712 c 0
 219 712 282 690 282 625 c 10
 282 467 l 18
 282 453 287 446 295 446 c 0
 310 446 316 477 316 504 c 9
 336 504 l 17
 336 481 334 454 321 435 c 0
 312 421 293 410 268 410 c 0
 231 410 214 423 201 447 c 1
 200 447 l 1
 187 427 162 410 130 410 c 0
 91 410 44 425 44 483 c 0
EndSplineSet
Layer: 2
SplineSet
52 354 m 1,0,-1
 52 386 l 1,1,-1
 328 386 l 1,2,-1
 328 354 l 1,3,-1
 52 354 l 1,0,-1
132 490 m 0,4,5
 132 462 132 462 141 451 c 128,-1,6
 150 440 150 440 162 440 c 0,7,8
 184 440 184 440 198 463 c 1,9,-1
 198 581 l 1,10,-1
 170 571 l 2,11,12
 132 557 132 557 132 490 c 0,4,5
44 483 m 0,13,14
 44 501 44 501 52 516 c 128,-1,15
 60 531 60 531 70 540.5 c 128,-1,16
 80 550 80 550 98 559.5 c 128,-1,17
 116 569 116 569 127.5 573.5 c 128,-1,18
 139 578 139 578 159 585 c 2,19,-1
 198 599 l 1,20,-1
 198 639 l 2,21,22
 198 694 198 694 156 694 c 0,23,24
 139 694 139 694 126.5 687 c 128,-1,25
 114 680 114 680 114 667 c 0,26,27
 114 656 114 656 125 650 c 0,28,29
 143 640 143 640 143 624 c 0,30,31
 143 610 143 610 131.5 602 c 128,-1,32
 120 594 120 594 104 594 c 0,33,34
 86 594 86 594 73 605 c 128,-1,35
 60 616 60 616 60 635 c 0,36,37
 60 670 60 670 92 691 c 128,-1,38
 124 712 124 712 163 712 c 0,39,40
 186 712 186 712 206 707 c 128,-1,41
 226 702 226 702 243.5 693 c 128,-1,42
 261 684 261 684 271.5 666 c 128,-1,43
 282 648 282 648 282 625 c 2,44,-1
 282 467 l 2,45,46
 282 446 282 446 295 446 c 0,47,48
 306 446 306 446 311 463.5 c 128,-1,49
 316 481 316 481 316 504 c 1,50,-1
 336 504 l 1,51,52
 336 457 336 457 321 435 c 0,53,54
 305 410 305 410 268 410 c 0,55,56
 242 410 242 410 227 419 c 128,-1,57
 212 428 212 428 201 447 c 1,58,-1
 200 447 l 1,59,60
 190 431 190 431 171.5 420.5 c 128,-1,61
 153 410 153 410 130 410 c 0,62,63
 114 410 114 410 100 413.5 c 128,-1,64
 86 417 86 417 73 424.5 c 128,-1,65
 60 432 60 432 52 447 c 128,-1,66
 44 462 44 462 44 483 c 0,13,14
EndSplineSet
EndChar

StartChar: guillemotleft
Encoding: 171 171 106
Width: 480
Flags: W
TeX: 103 0
VStem: 108 88<135.573 338.427> 265 72<145.238 334.35>
LayerCount: 3
Fore
SplineSet
265 237 m 0
 265 326 310 381 360 428 c 9
 376 412 l 17
 338 362 337 301 337 237 c 0
 337 173 338 112 376 62 c 9
 360 46 l 17
 330 71 265 145 265 237 c 0
108 237 m 0
 108 343 166 406 232 446 c 9
 248 430 l 17
 204 382 196 349 196 237 c 0
 196 125 204 92 248 44 c 9
 232 28 l 17
 166 68 108 131 108 237 c 0
EndSplineSet
Layer: 2
SplineSet
265 237 m 0,0,1
 265 298 265 298 290 342 c 128,-1,2
 315 386 315 386 360 428 c 1,3,-1
 376 412 l 1,4,5
 358 388 358 388 349 356.5 c 128,-1,6
 340 325 340 325 338.5 301.5 c 128,-1,7
 337 278 337 278 337 237 c 128,-1,8
 337 196 337 196 338.5 172.5 c 128,-1,9
 340 149 340 149 349 117.5 c 128,-1,10
 358 86 358 86 376 62 c 1,11,-1
 360 46 l 1,12,13
 346 57 346 57 332 74 c 128,-1,14
 318 91 318 91 302 115.5 c 128,-1,15
 286 140 286 140 275.5 172 c 128,-1,16
 265 204 265 204 265 237 c 0,0,1
108 237 m 128,-1,18
 108 371 108 371 232 446 c 1,19,-1
 248 430 l 1,20,21
 216 394 216 394 206 358 c 128,-1,22
 196 322 196 322 196 237 c 128,-1,23
 196 152 196 152 206 116 c 128,-1,24
 216 80 216 80 248 44 c 1,25,-1
 232 28 l 1,26,17
 108 103 108 103 108 237 c 128,-1,18
EndSplineSet
EndChar

StartChar: logicalnot
Encoding: 172 172 107
Width: 580
Flags: W
TeX: 108 0
HStem: 345 64<40 472>
VStem: 472 68<137 345>
LayerCount: 3
Fore
SplineSet
40 345 m 9
 40 409 l 25
 540 409 l 25
 540 137 l 1
 472 137 l 1
 472 345 l 1
 40 345 l 9
EndSplineSet
Layer: 2
SplineSet
40 345 m 1,0,-1
 40 409 l 1,1,-1
 540 409 l 1,2,-1
 540 137 l 1,3,-1
 472 137 l 1,4,-1
 472 345 l 1,5,-1
 40 345 l 1,0,-1
EndSplineSet
EndChar

StartChar: registered
Encoding: 174 174 109
Width: 820
Flags: W
TeX: 114 0
HStem: -18 36<310.354 509.646> 112 42<540.566 612.164> 130 24<204 261.367 374.633 440> 360 25<374 442.377> 562 24<204 261.367 374.633 450.167> 694 36<310.354 509.646>
VStem: 48 40<242.922 469.078> 262 112<154.004 360 385 561.996> 464 112<154.892 318.773> 472 120<416.758 533.101> 622 24<170.203 246> 732 40<242.922 469.078>
LayerCount: 3
Fore
SplineSet
88 356 m 0x9f30
 88 172 226 18 410 18 c 0
 594 18 732 172 732 356 c 0
 732 540 594 694 410 694 c 0
 226 694 88 540 88 356 c 0x9f30
48 356 m 0
 48 562 204 730 410 730 c 0
 616 730 772 562 772 356 c 0
 772 150 616 -18 410 -18 c 0
 204 -18 48 150 48 356 c 0
374 385 m 1
 414 385 l 2
 460 385 472 425 472 477 c 0x9f70
 472 530 460 562 414 562 c 2
 392 562 l 2
 380 562 374 556 374 544 c 2
 374 385 l 1
204 130 m 1xbfb0
 204 154 l 1
 244 154 l 2
 256 154 262 160 262 172 c 2
 262 544 l 2
 262 556 256 562 244 562 c 2
 204 562 l 1
 204 586 l 1
 428 586 l 2
 525 586 592 543 592 473 c 0xbf70
 592 411 533 378 456 370 c 1
 456 365 l 1
 525 354 576 327 576 249 c 2
 576 180 l 2xbfb0
 576 161 581 154 592 154 c 0
 615 154 622 202 622 246 c 1
 646 246 l 1
 646 170 630 112 562 112 c 0xdf70
 505 112 464 143 464 208 c 2
 464 287 l 2
 464 324 449 360 407 360 c 2
 374 360 l 1
 374 172 l 2
 374 160 380 154 392 154 c 2
 440 154 l 1
 440 130 l 1
 204 130 l 1xbfb0
EndSplineSet
Layer: 2
SplineSet
88 356 m 128,-1,1
 88 265 88 265 130 187.5 c 128,-1,2
 172 110 172 110 246 64 c 128,-1,3
 320 18 320 18 410 18 c 128,-1,4
 500 18 500 18 574 64 c 128,-1,5
 648 110 648 110 690 187.5 c 128,-1,6
 732 265 732 265 732 356 c 128,-1,7
 732 447 732 447 690 524.5 c 128,-1,8
 648 602 648 602 574 648 c 128,-1,9
 500 694 500 694 410 694 c 128,-1,10
 320 694 320 694 246 648 c 128,-1,11
 172 602 172 602 130 524.5 c 128,-1,0
 88 447 88 447 88 356 c 128,-1,1
48 356 m 128,-1,13
 48 432 48 432 76 501 c 128,-1,14
 104 570 104 570 152 620 c 128,-1,15
 200 670 200 670 267 700 c 128,-1,16
 334 730 334 730 410 730 c 128,-1,17
 486 730 486 730 553 700 c 128,-1,18
 620 670 620 670 668 620 c 128,-1,19
 716 570 716 570 744 501 c 128,-1,20
 772 432 772 432 772 356 c 128,-1,21
 772 280 772 280 744 211 c 128,-1,22
 716 142 716 142 668 92 c 128,-1,23
 620 42 620 42 553 12 c 128,-1,24
 486 -18 486 -18 410 -18 c 128,-1,25
 334 -18 334 -18 267 12 c 128,-1,26
 200 42 200 42 152 92 c 128,-1,27
 104 142 104 142 76 211 c 128,-1,12
 48 280 48 280 48 356 c 128,-1,13
374 385 m 1,28,-1
 414 385 l 2,29,30
 446 385 446 385 459 409.5 c 128,-1,31
 472 434 472 434 472 477 c 128,-1,32
 472 520 472 520 459 541 c 128,-1,33
 446 562 446 562 414 562 c 2,34,-1
 392 562 l 2,35,36
 374 562 374 562 374 544 c 2,37,-1
 374 385 l 1,28,-1
204 130 m 1,38,-1
 204 154 l 1,39,-1
 244 154 l 2,40,41
 262 154 262 154 262 172 c 2,42,-1
 262 544 l 2,43,44
 262 562 262 562 244 562 c 2,45,-1
 204 562 l 1,46,-1
 204 586 l 1,47,-1
 428 586 l 2,48,49
 502 586 502 586 547 555.5 c 128,-1,50
 592 525 592 525 592 473 c 0,51,52
 592 428 592 428 554.5 402 c 128,-1,53
 517 376 517 376 456 370 c 1,54,-1
 456 365 l 1,55,56
 514 356 514 356 545 330 c 128,-1,57
 576 304 576 304 576 249 c 2,58,-1
 576 180 l 2,59,60
 576 154 576 154 592 154 c 128,-1,61
 608 154 608 154 615 181 c 128,-1,62
 622 208 622 208 622 246 c 1,63,-1
 646 246 l 1,64,65
 646 216 646 216 642 193 c 128,-1,66
 638 170 638 170 629 151 c 128,-1,67
 620 132 620 132 603 122 c 128,-1,68
 586 112 586 112 562 112 c 0,69,70
 518 112 518 112 491 136.5 c 128,-1,71
 464 161 464 161 464 208 c 2,72,-1
 464 287 l 2,73,74
 464 318 464 318 450 339 c 128,-1,75
 436 360 436 360 407 360 c 2,76,-1
 374 360 l 1,77,-1
 374 172 l 2,78,79
 374 154 374 154 392 154 c 2,80,-1
 440 154 l 1,81,-1
 440 130 l 1,82,-1
 204 130 l 1,38,-1
EndSplineSet
EndChar

StartChar: macron
Encoding: 175 175 110
AltUni2: 0002c9.ffffffff.0
Width: 440
Flags: W
TeX: 109 0
HStem: 584 64<90 350>
VStem: 90 260<584 648>
LayerCount: 3
Fore
SplineSet
90 584 m 25
 90 648 l 25
 350 648 l 25
 350 584 l 25
 90 584 l 25
EndSplineSet
Layer: 2
SplineSet
90 584 m 1,0,-1
 90 648 l 1,1,-1
 350 648 l 1,2,-1
 350 584 l 1,3,-1
 90 584 l 1,0,-1
EndSplineSet
EndChar

StartChar: degree
Encoding: 176 176 111
Width: 580
Flags: W
TeX: 100 0
HStem: 408 56<224.51 355.49> 672 56<224.51 355.49>
VStem: 130 56<502.51 633.49> 394 56<502.51 633.49>
LayerCount: 3
Fore
SplineSet
130 568 m 0
 130 656 202 728 290 728 c 0
 378 728 450 656 450 568 c 0
 450 480 378 408 290 408 c 0
 202 408 130 480 130 568 c 0
186 568 m 0
 186 508 230 464 290 464 c 0
 350 464 394 508 394 568 c 0
 394 628 350 672 290 672 c 0
 230 672 186 628 186 568 c 0
EndSplineSet
Layer: 2
SplineSet
130 568 m 128,-1,1
 130 634 130 634 177 681 c 128,-1,2
 224 728 224 728 290 728 c 128,-1,3
 356 728 356 728 403 681 c 128,-1,4
 450 634 450 634 450 568 c 128,-1,5
 450 502 450 502 403 455 c 128,-1,6
 356 408 356 408 290 408 c 128,-1,7
 224 408 224 408 177 455 c 128,-1,0
 130 502 130 502 130 568 c 128,-1,1
186 568 m 128,-1,9
 186 523 186 523 215.5 493.5 c 128,-1,10
 245 464 245 464 290 464 c 128,-1,11
 335 464 335 464 364.5 493.5 c 128,-1,12
 394 523 394 523 394 568 c 128,-1,13
 394 613 394 613 364.5 642.5 c 128,-1,14
 335 672 335 672 290 672 c 128,-1,15
 245 672 245 672 215.5 642.5 c 128,-1,8
 186 613 186 613 186 568 c 128,-1,9
EndSplineSet
EndChar

StartChar: plusminus
Encoding: 177 177 112
Width: 940
Flags: W
TeX: 112 0
HStem: -64 64<48 884> 344 64<48 436 504 892>
VStem: 436 68<64 344 408 688>
LayerCount: 3
Fore
SplineSet
48 344 m 1
 48 408 l 1
 436 408 l 1
 436 688 l 1
 504 688 l 1
 504 408 l 1
 892 408 l 1
 892 344 l 1
 504 344 l 1
 504 64 l 1
 436 64 l 1
 436 344 l 1
 48 344 l 1
48 0 m 1
 884 0 l 1
 884 -64 l 1
 48 -64 l 1
 48 0 l 1
EndSplineSet
Layer: 2
SplineSet
48 344 m 1,0,-1
 48 408 l 1,1,-1
 436 408 l 1,2,-1
 436 688 l 1,3,-1
 504 688 l 1,4,-1
 504 408 l 1,5,-1
 892 408 l 1,6,-1
 892 344 l 1,7,-1
 504 344 l 1,8,-1
 504 64 l 1,9,-1
 436 64 l 1,10,-1
 436 344 l 1,11,-1
 48 344 l 1,0,-1
48 0 m 1,12,-1
 884 0 l 1,13,-1
 884 -64 l 1,14,-1
 48 -64 l 1,15,-1
 48 0 l 1,12,-1
EndSplineSet
EndChar

StartChar: twosuperior
Encoding: 178 178 113
Width: 440
VWidth: 770
Flags: W
TeX: 117 0
HStem: 274 112<200.32 322.418> 344 52<126.34 181.5> 697 27<164.973 238.74>
VStem: 76 72<589.207 669.182> 82 28<286 342.72> 262 108<565.179 679.642> 344 23<401.096 457>
LayerCount: 3
Fore
SplineSet
76 609 m 0x74
 76 672 138 724 220 724 c 0
 322 724 370 680 370 620 c 0
 370 556 282 502 207 466 c 0
 179 453 130 417 120 374 c 9
 124 372 l 17
 139 387 157 396 174 396 c 0x74
 189 396 216 393 230 391 c 0
 248 388 264 386 289 386 c 0
 322 386 344 404 344 423 c 0
 344 437 343 445 340 457 c 9
 363 457 l 17
 366 439 367 423 367 407 c 0
 367 348 339 274 259 274 c 0xa2
 224 274 194 298 173 320 c 0
 159 335 149 344 132 344 c 0
 120 344 110 336 110 323 c 2
 110 286 l 25
 82 286 l 25
 82 314 l 2x6a
 82 349 85 400 164 470 c 0
 214 515 262 559 262 619 c 0
 262 657 249 697 201 697 c 0
 170 697 148 675 148 650 c 0
 148 634 154 623 165 616 c 0
 180 605 192 595 192 576 c 0
 192 556 173 541 147 541 c 0
 111 541 76 566 76 609 c 0x74
EndSplineSet
Layer: 2
SplineSet
76 609 m 0,0,1
 76 656 76 656 117.5 690 c 128,-1,2
 159 724 159 724 220 724 c 0,3,4
 294 724 294 724 332 695.5 c 128,-1,5
 370 667 370 667 370 620 c 0,6,7
 370 544 370 544 207 466 c 0,8,9
 180 454 180 454 153 428.5 c 128,-1,10
 126 403 126 403 120 374 c 1,11,-1
 124 372 l 1,12,13
 148 396 148 396 174 396 c 0,14,15
 195 396 195 396 230 391 c 0,16,17
 260 386 260 386 289 386 c 0,18,19
 313 386 313 386 328.5 397 c 128,-1,20
 344 408 344 408 344 423 c 0,21,22
 344 441 344 441 340 457 c 1,23,-1
 363 457 l 1,24,25
 367 433 367 433 367 407 c 0,26,27
 367 384 367 384 361.5 361 c 128,-1,28
 356 338 356 338 343.5 318 c 128,-1,29
 331 298 331 298 309.5 286 c 128,-1,30
 288 274 288 274 259 274 c 0,31,32
 217 274 217 274 173 320 c 0,33,34
 161 333 161 333 152.5 338.5 c 128,-1,35
 144 344 144 344 132 344 c 0,36,37
 122 344 122 344 116 338 c 128,-1,38
 110 332 110 332 110 323 c 2,39,-1
 110 286 l 1,40,-1
 82 286 l 1,41,-1
 82 314 l 2,42,43
 82 331 82 331 84 344.5 c 128,-1,44
 86 358 86 358 93 378 c 128,-1,45
 100 398 100 398 118 421.5 c 128,-1,46
 136 445 136 445 164 470 c 0,47,48
 188 492 188 492 201 505 c 128,-1,49
 214 518 214 518 231 538 c 128,-1,50
 248 558 248 558 255 578 c 128,-1,51
 262 598 262 598 262 619 c 0,52,53
 262 652 262 652 248 674.5 c 128,-1,54
 234 697 234 697 201 697 c 0,55,56
 178 697 178 697 163 683 c 128,-1,57
 148 669 148 669 148 650 c 0,58,59
 148 627 148 627 165 616 c 0,60,61
 178 606 178 606 185 597.5 c 128,-1,62
 192 589 192 589 192 576 c 0,63,64
 192 561 192 561 179 551 c 128,-1,65
 166 541 166 541 147 541 c 0,66,67
 118 541 118 541 97 559.5 c 128,-1,68
 76 578 76 578 76 609 c 0,0,1
EndSplineSet
EndChar

StartChar: threesuperior
Encoding: 179 179 114
Width: 440
Flags: W
TeX: 117 0
HStem: 274 24<146.816 236.6> 495 28<135 239.14> 700 24<161.89 237.531>
VStem: 64 70<313.922 384.5> 78 64<605 680.418> 260 108<560.667 675.15> 268 116<332.383 453.767>
LayerCount: 3
Fore
SplineSet
64 368 m 0xf2
 64 401 92 430 131 430 c 0
 164 430 183 413 183 391 c 0
 183 370 170 358 152 351 c 0
 144 348 134 341 134 332 c 0
 134 310 159 298 198 298 c 0
 245 298 268 331 268 401 c 0xf2
 268 470 236 495 202 495 c 2
 135 495 l 25
 135 523 l 25
 200 523 l 2
 242 523 260 550 260 608 c 0
 260 683 237 700 203 700 c 0
 171 700 142 683 142 655 c 0
 142 644 154 635 162 631 c 0
 174 624 185 613 185 596 c 0
 185 578 168 561 140 561 c 0
 107 561 78 587 78 623 c 0
 78 685 139 724 212 724 c 0
 303 724 368 683 368 616 c 0xec
 368 553 305 524 250 514 c 1
 250 507 l 1
 315 502 384 460 384 398 c 0
 384 316 309 274 201 274 c 0
 124 274 64 309 64 368 c 0xf2
EndSplineSet
Layer: 2
SplineSet
64 368 m 0,0,1
 64 394 64 394 83 412 c 128,-1,2
 102 430 102 430 131 430 c 0,3,4
 155 430 155 430 169 419 c 128,-1,5
 183 408 183 408 183 391 c 0,6,7
 183 363 183 363 152 351 c 0,8,9
 134 344 134 344 134 332 c 0,10,11
 134 316 134 316 151 307 c 128,-1,12
 168 298 168 298 198 298 c 0,13,14
 268 298 268 298 268 401 c 0,15,16
 268 450 268 450 249 472.5 c 128,-1,17
 230 495 230 495 202 495 c 2,18,-1
 135 495 l 1,19,-1
 135 523 l 1,20,-1
 200 523 l 2,21,22
 232 523 232 523 246 543.5 c 128,-1,23
 260 564 260 564 260 608 c 0,24,25
 260 660 260 660 245.5 680 c 128,-1,26
 231 700 231 700 203 700 c 0,27,28
 178 700 178 700 160 688 c 128,-1,29
 142 676 142 676 142 655 c 0,30,31
 142 641 142 641 162 631 c 0,32,33
 185 618 185 618 185 596 c 0,34,35
 185 582 185 582 172.5 571.5 c 128,-1,36
 160 561 160 561 140 561 c 0,37,38
 114 561 114 561 96 578.5 c 128,-1,39
 78 596 78 596 78 623 c 0,40,41
 78 668 78 668 117 696 c 128,-1,42
 156 724 156 724 212 724 c 0,43,44
 282 724 282 724 325 695 c 128,-1,45
 368 666 368 666 368 616 c 0,46,47
 368 586 368 586 349 564 c 128,-1,48
 330 542 330 542 305 531 c 128,-1,49
 280 520 280 520 250 514 c 1,50,-1
 250 507 l 1,51,52
 302 503 302 503 343 472.5 c 128,-1,53
 384 442 384 442 384 398 c 0,54,55
 384 338 384 338 334 306 c 128,-1,56
 284 274 284 274 201 274 c 0,57,58
 142 274 142 274 103 299.5 c 128,-1,59
 64 325 64 325 64 368 c 0,0,1
EndSplineSet
EndChar

StartChar: acute
Encoding: 180 180 115
AltUni2: 0002ca.ffffffff.0
Width: 440
VWidth: 959
Flags: W
TeX: 78 0
HStem: 524 188
VStem: 176 180
LayerCount: 3
Fore
SplineSet
176 542 m 25
 265 680 l 18
 281 705 296 712 314 712 c 0
 338 712 356 696 356 672 c 0
 356 654 345 637 328 624 c 10
 196 524 l 25
 176 542 l 25
EndSplineSet
Layer: 2
SplineSet
176 542 m 1,0,-1
 265 680 l 2,1,2
 286 712 286 712 314 712 c 0,3,4
 332 712 332 712 344 701 c 128,-1,5
 356 690 356 690 356 672 c 0,6,7
 356 646 356 646 328 624 c 2,8,-1
 196 524 l 1,9,-1
 176 542 l 1,0,-1
EndSplineSet
EndChar

StartChar: paragraph
Encoding: 182 182 117
Width: 600
Flags: W
TeX: 112 0
HStem: -156 21G<258 326 406 474> 678 34<326 406 474 544>
VStem: 56 270<419.282 603.915> 258 68<-156 321> 406 68<-156 678>
LayerCount: 3
Fore
SplineSet
56 510 m 0xe8
 56 626 143 712 258 712 c 2
 544 712 l 1
 544 678 l 1
 474 678 l 1
 474 -156 l 1
 406 -156 l 1
 406 678 l 1
 326 678 l 1
 326 -156 l 1
 258 -156 l 1
 258 321 l 1xd8
 143 321 56 395 56 510 c 0xe8
EndSplineSet
Layer: 2
SplineSet
56 510 m 0,0,1
 56 597 56 597 114 654.5 c 128,-1,2
 172 712 172 712 258 712 c 2,3,-1
 544 712 l 1,4,-1
 544 678 l 1,5,-1
 474 678 l 1,6,-1
 474 -156 l 1,7,-1
 406 -156 l 1,8,-1
 406 678 l 1,9,-1
 326 678 l 1,10,-1
 326 -156 l 1,11,-1
 258 -156 l 1,12,-1
 258 321 l 1,13,14
 170 321 170 321 113 373 c 128,-1,15
 56 425 56 425 56 510 c 0,0,1
EndSplineSet
EndChar

StartChar: cedilla
Encoding: 184 184 119
Width: 440
VWidth: 959
Flags: W
TeX: 99 0
HStem: -212 32<140.23 224.56> -178 20G<114 136> -20 20G<188.836 227>
VStem: 236 80<-173.341 -91.8216>
DStem2: 172 -67 209 -52 0.337226 0.941424<26.5987 71.1688>
LayerCount: 3
Fore
SplineSet
114 -178 m 9
 126 -158 l 17
 146 -174 163 -180 185 -180 c 0
 217 -180 236 -164 236 -130 c 0
 236 -87 216 -76 172 -67 c 9
 196 0 l 25
 227 0 l 25
 209 -52 l 17
 247 -60 316 -83 316 -139 c 0
 316 -181 283 -212 202 -212 c 0
 168 -212 132 -196 114 -178 c 9
EndSplineSet
Layer: 2
SplineSet
114 -178 m 1,0,-1
 126 -158 l 1,1,2
 154 -180 154 -180 185 -180 c 0,3,4
 236 -180 236 -180 236 -130 c 0,5,6
 236 -100 236 -100 222 -87 c 128,-1,7
 208 -74 208 -74 172 -67 c 1,8,-1
 196 0 l 1,9,-1
 227 0 l 1,10,-1
 209 -52 l 1,11,12
 226 -56 226 -56 242 -61.5 c 128,-1,13
 258 -67 258 -67 276 -77 c 128,-1,14
 294 -87 294 -87 305 -103.5 c 128,-1,15
 316 -120 316 -120 316 -139 c 0,16,17
 316 -172 316 -172 288 -192 c 128,-1,18
 260 -212 260 -212 202 -212 c 0,19,20
 178 -212 178 -212 153 -202 c 128,-1,21
 128 -192 128 -192 114 -178 c 1,0,-1
EndSplineSet
EndChar

StartChar: onesuperior
Encoding: 185 185 120
Width: 440
VWidth: 1080
Flags: W
TeX: 117 0
HStem: 286 24<106 165.805 274.195 334> 636 28<106 164.418> 692 20G<213 274>
VStem: 166 108<310.003 636>
LayerCount: 3
Fore
SplineSet
106 286 m 25
 106 310 l 25
 150 310 l 18
 162 310 166 314 166 326 c 10
 166 636 l 25
 106 636 l 25
 106 664 l 17
 133 664 l 2
 168 664 207 680 219 712 c 9
 274 712 l 25
 274 326 l 18
 274 314 278 310 290 310 c 10
 334 310 l 25
 334 286 l 25
 106 286 l 25
EndSplineSet
Layer: 2
SplineSet
106 286 m 1,0,-1
 106 310 l 1,1,-1
 150 310 l 2,2,3
 159 310 159 310 162.5 313.5 c 128,-1,4
 166 317 166 317 166 326 c 2,5,-1
 166 636 l 1,6,-1
 106 636 l 1,7,-1
 106 664 l 1,8,-1
 133 664 l 2,9,10
 161 664 161 664 185.5 676.5 c 128,-1,11
 210 689 210 689 219 712 c 1,12,-1
 274 712 l 1,13,-1
 274 326 l 2,14,15
 274 317 274 317 277.5 313.5 c 128,-1,16
 281 310 281 310 290 310 c 2,17,-1
 334 310 l 1,18,-1
 334 286 l 1,19,-1
 106 286 l 1,0,-1
EndSplineSet
EndChar

